<?xml version="1.0" encoding="utf-8"?>
<!-- Generator: Adobe Illustrator 25.2.3, SVG Export Plug-In . SVG Version: 6.00 Build 0)  -->
<svg version="1.1" id="圖層_1" xmlns="http://www.w3.org/2000/svg" xmlns:xlink="http://www.w3.org/1999/xlink" x="0px" y="0px"
	 viewBox="0 0 1700 1080" style="enable-background:new 0 0 1700 1080;" xml:space="preserve">
<style type="text/css">
	.st0{fill:#FFFFFF;}
	.st1{fill:none;stroke:#C6C6C6;stroke-miterlimit:10;}
	.st2{fill:none;stroke:#C6C6C6;stroke-miterlimit:10;stroke-dasharray:2.0013,2.0013;}
	.st3{fill:none;stroke:#C6C6C6;stroke-miterlimit:10;stroke-dasharray:1.9994,1.9994;}
	.st4{fill:none;stroke:#C6C6C6;stroke-miterlimit:10;stroke-dasharray:2.0089,2.0089;}
	.st5{fill:none;stroke:#C6C6C6;stroke-miterlimit:10;stroke-dasharray:2.0063,2.0063;}
	.st6{fill:none;stroke:#C6C6C6;stroke-miterlimit:10;stroke-dasharray:2.0073,2.0073;}
	.st7{fill:none;stroke:#C6C6C6;stroke-miterlimit:10;stroke-dasharray:2.0009,2.0009;}
	.st8{fill:none;stroke:#C6C6C6;stroke-miterlimit:10;stroke-dasharray:1.9899,1.9899;}
	.st9{fill:#458DA7;}
	.st10{fill:#E2AE46;}
	.st11{fill:#D98239;}
	.st12{fill:none;stroke:#231815;stroke-width:1.4373;stroke-miterlimit:10;}
	.st13{fill:#EEEEEF;}
	.st14{fill:none;stroke:#EEEEEF;stroke-miterlimit:10;}
	.st15{fill:#C6C6C6;}
	.st16{fill:none;stroke:#231815;stroke-miterlimit:10;}
	.st17{fill:#231815;}
</style>
<polygon class="st0" points="0,899.4 189.9,900.5 433.7,605.7 665.2,770.6 900,595.1 1147,819.1 1361.6,732.8 1604.9,878.1 
	1700,913.5 1700,1857.9 0,1857.9 "/>
<g>
	<g>
		<line class="st1" x1="189.9" y1="912.3" x2="189.9" y2="913.3"/>
		<line class="st2" x1="189.9" y1="915.3" x2="189.9" y2="1222.5"/>
		<line class="st1" x1="189.9" y1="1223.5" x2="189.9" y2="1224.5"/>
	</g>
</g>
<g>
	<g>
		<line class="st1" x1="433" y1="606.9" x2="433" y2="607.9"/>
		<line class="st3" x1="433" y1="609.9" x2="433" y2="1476.6"/>
		<line class="st1" x1="433" y1="1477.6" x2="433" y2="1478.6"/>
	</g>
</g>
<g>
	<g>
		<line class="st1" x1="665.2" y1="770.6" x2="665.2" y2="771.6"/>
		<line class="st4" x1="665.2" y1="773.6" x2="665.2" y2="1218.6"/>
		<line class="st1" x1="665.2" y1="1219.6" x2="665.2" y2="1220.6"/>
	</g>
</g>
<g>
	<g>
		<line class="st1" x1="902.6" y1="600.6" x2="902.6" y2="601.6"/>
		<line class="st5" x1="902.6" y1="603.6" x2="902.6" y2="1224.5"/>
		<line class="st1" x1="902.6" y1="1225.5" x2="902.6" y2="1226.5"/>
	</g>
</g>
<g>
	<g>
		<line class="st1" x1="1140.4" y1="814.3" x2="1140.4" y2="815.3"/>
		<line class="st6" x1="1140.4" y1="817.3" x2="1140.4" y2="1217.8"/>
		<line class="st1" x1="1140.4" y1="1218.8" x2="1140.4" y2="1219.8"/>
	</g>
</g>
<g>
	<g>
		<line class="st1" x1="1361.6" y1="719.2" x2="1361.6" y2="720.2"/>
		<line class="st7" x1="1361.6" y1="722.2" x2="1361.6" y2="1225.4"/>
		<line class="st1" x1="1361.6" y1="1226.4" x2="1361.6" y2="1227.4"/>
	</g>
</g>
<g>
	<g>
		<line class="st1" x1="1604.9" y1="878.1" x2="1604.9" y2="879.1"/>
		<line class="st8" x1="1604.9" y1="881.1" x2="1604.9" y2="1130.8"/>
		<line class="st1" x1="1604.9" y1="1131.8" x2="1604.9" y2="1132.8"/>
	</g>
</g>
<g>
	<polygon class="st9" points="104.2,805 74.2,805 74.2,751.7 89.2,745.1 104.2,751.7 	"/>
	<polygon class="st10" points="139.2,805 109.3,805 109.3,699.2 124.2,692.5 139.2,699.2 	"/>
	<polygon class="st11" points="175.2,805 145.2,805 145.2,734.9 160.2,728.3 175.2,734.9 	"/>
	<g>
		<line class="st12" x1="68.7" y1="814.5" x2="179.8" y2="814.5"/>
		<g>
			<path class="st13" d="M86.8,789.4c-1.2,0-2-0.9-2-2.1v-4.4c0-1.3,0.8-2.1,2-2.1s2,0.9,2,2.1v4.4C88.8,788.5,88,789.4,86.8,789.4z
				 M88,782.8c0-0.9-0.4-1.4-1.2-1.4c-0.8,0-1.2,0.6-1.2,1.4v4.4c0,0.9,0.4,1.4,1.2,1.4s1.2-0.6,1.2-1.4V782.8z M87.6,797.4h-0.8
				l5.7-16.5h0.8L87.6,797.4z M93.3,797.6c-1.2,0-2-0.9-2-2.1V791c0-1.3,0.8-2.1,2-2.1s2,0.9,2,2.1v4.4
				C95.4,796.7,94.6,797.6,93.3,797.6z M94.6,791c0-0.9-0.4-1.4-1.2-1.4s-1.2,0.6-1.2,1.4v4.4c0,0.9,0.4,1.4,1.2,1.4
				s1.2-0.6,1.2-1.4V791z"/>
		</g>
		<g>
			<path class="st13" d="M121.3,789.4c-1.2,0-2-0.9-2-2.1v-4.4c0-1.3,0.8-2.1,2-2.1s2,0.9,2,2.1v4.4
				C123.3,788.5,122.5,789.4,121.3,789.4z M122.5,782.8c0-0.9-0.4-1.4-1.2-1.4s-1.2,0.6-1.2,1.4v4.4c0,0.9,0.4,1.4,1.2,1.4
				c0.8,0,1.2-0.6,1.2-1.4V782.8z M122.1,797.4h-0.8l5.7-16.5h0.8L122.1,797.4z M127.8,797.6c-1.2,0-2-0.9-2-2.1V791
				c0-1.3,0.8-2.1,2-2.1s2,0.9,2,2.1v4.4C129.9,796.7,129.1,797.6,127.8,797.6z M129.1,791c0-0.9-0.4-1.4-1.2-1.4s-1.2,0.6-1.2,1.4
				v4.4c0,0.9,0.4,1.4,1.2,1.4c0.8,0,1.2-0.6,1.2-1.4V791z"/>
		</g>
		<g>
			<path class="st13" d="M157.8,789.4c-1.2,0-2-0.9-2-2.1v-4.4c0-1.3,0.8-2.1,2-2.1s2,0.9,2,2.1v4.4
				C159.8,788.5,159,789.4,157.8,789.4z M159,782.8c0-0.9-0.4-1.4-1.2-1.4s-1.2,0.6-1.2,1.4v4.4c0,0.9,0.4,1.4,1.2,1.4
				s1.2-0.6,1.2-1.4V782.8z M158.6,797.4h-0.8l5.7-16.5h0.8L158.6,797.4z M164.3,797.6c-1.2,0-2-0.9-2-2.1V791c0-1.3,0.8-2.1,2-2.1
				s2,0.9,2,2.1v4.4C166.4,796.7,165.6,797.6,164.3,797.6z M165.6,791c0-0.9-0.4-1.4-1.2-1.4s-1.2,0.6-1.2,1.4v4.4
				c0,0.9,0.4,1.4,1.2,1.4s1.2-0.6,1.2-1.4V791z"/>
		</g>
	</g>
	<line class="st14" x1="124.2" y1="702.2" x2="124.2" y2="773"/>
	<line class="st14" x1="160.2" y1="737.6" x2="160.2" y2="773"/>
	<line class="st14" x1="89.2" y1="753.5" x2="89.2" y2="773"/>
</g>
<path class="st15" d="M914.4,595.1c0,6.5-5.3,11.8-11.8,11.8s-11.8-5.3-11.8-11.8s5.3-11.8,11.8-11.8
	C909.1,583.3,914.4,588.6,914.4,595.1z"/>
<path class="st15" d="M1155,814.3c0,6.5-5.3,11.8-11.8,11.8s-11.8-5.3-11.8-11.8s5.3-11.8,11.8-11.8S1155,807.8,1155,814.3z"/>
<path class="st15" d="M1373.4,731c0,6.5-5.3,11.8-11.8,11.8s-11.8-5.3-11.8-11.8s5.3-11.8,11.8-11.8S1373.4,724.5,1373.4,731z"/>
<path class="st15" d="M201.7,900.5c0,6.5-5.3,11.8-11.8,11.8s-11.8-5.3-11.8-11.8s5.3-11.8,11.8-11.8
	C196.5,888.7,201.7,894,201.7,900.5z"/>
<circle class="st15" cx="433" cy="606.9" r="11.8"/>
<path class="st15" d="M677,770.6c0,6.5-5.3,11.8-11.8,11.8s-11.8-5.3-11.8-11.8s5.3-11.8,11.8-11.8S677,764.1,677,770.6z"/>
<g>
	<polygon class="st16" points="1555.2,638.5 1341.1,638.5 1319.7,676 1319.7,561.5 1555.2,561.5 	"/>
	<g transform="translate(0,-952.36218)">
		<path class="st17" d="M1396.7,1529.7c0.6,0,1.2,0.5,1.2,1.2s-0.5,1.2-1.2,1.2h-6l-6.1,28.9c-0.1,0.7-0.6,1.3-1.2,1.3h-29.1
			c-0.6,0-1.2-0.5-1.2-1.2c0-0.6,0.6-1.2,1.2-1.2h28.1l1-4.7H1352c-0.5,0-1-0.4-1.1-0.9l-4.1-17.4c-0.1-0.7,0.4-1.4,1.1-1.4h39.7
			l1-4.9c0.1-0.5,0.6-0.9,1.1-0.9H1396.7L1396.7,1529.7L1396.7,1529.7z M1387,1537.8h-10.3l-1.1,6.4h10L1387,1537.8z M1374.4,1537.8
			H1362l1.1,6.4h10.3L1374.4,1537.8z M1359.7,1537.8h-10.4l1.5,6.4h9.9L1359.7,1537.8z M1385.2,1546.5h-9.9l-1.1,6.4h9.6
			L1385.2,1546.5z M1372.9,1546.5h-9.4l1.1,6.4h7.3L1372.9,1546.5z M1361.1,1546.5h-9.8l1.5,6.4h9.3L1361.1,1546.5z M1376.9,1565.7
			c2.9,0,5.2,2.4,5.2,5.2c0,2.9-2.4,5.2-5.2,5.2s-5.2-2.4-5.2-5.2C1371.7,1568.1,1374,1565.7,1376.9,1565.7z M1360.6,1565.7
			c2.9,0,5.2,2.4,5.2,5.2c0,2.9-2.4,5.2-5.2,5.2c-2.9,0-5.2-2.4-5.2-5.2S1357.8,1565.7,1360.6,1565.7z M1376.9,1568
			c-1.6,0-2.9,1.3-2.9,2.9s1.3,2.9,2.9,2.9s2.9-1.3,2.9-2.9S1378.5,1568,1376.9,1568z M1360.6,1568c-1.6,0-2.9,1.3-2.9,2.9
			s1.3,2.9,2.9,2.9s2.9-1.3,2.9-2.9S1362.3,1568,1360.6,1568z"/>
	</g>
	<polygon class="st10" points="1407.4,591.1 1407.4,577.3 1464.8,577.3 1467.9,584.2 1464.8,591.1 	"/>
	<polygon class="st9" points="1407.4,607.3 1407.4,593.5 1521.8,593.5 1524.9,600.4 1521.8,607.3 	"/>
	<polygon class="st11" points="1407.4,623.8 1407.4,610 1488.9,610 1492,616.9 1488.9,623.8 	"/>
</g>
<path class="st15" d="M1624.6,878.1c0,10.9-8.8,19.7-19.7,19.7c-10.9,0-19.7-8.8-19.7-19.7s8.8-19.7,19.7-19.7
	C1615.7,858.4,1624.6,867.2,1624.6,878.1z"/>
</svg>
