<?xml version="1.0" encoding="utf-8"?>
<!-- Generator: Adobe Illustrator 25.2.3, SVG Export Plug-In . SVG Version: 6.00 Build 0)  -->
<svg version="1.1" id="圖層_1" xmlns="http://www.w3.org/2000/svg" xmlns:xlink="http://www.w3.org/1999/xlink" x="0px" y="0px"
	 viewBox="0 0 400 275" style="enable-background:new 0 0 400 275;" xml:space="preserve">
<style type="text/css">
	.st0{fill:#FFFFFF;}
	.st1{fill:none;stroke:#231815;stroke-miterlimit:10;}
	.st2{fill:#EEEEEF;stroke:#231815;stroke-width:1;stroke-miterlimit:10.0001;}
	.st3{fill:#458DA7;}
	.st4{fill:#EEEEEF;stroke:#231815;stroke-miterlimit:10;}
	.st5{fill:#EEF0EF;stroke:#231815;stroke-miterlimit:10;}
</style>
<g>
	<path class="st0" d="M600.6-45h-6.1v3.9c0,0.9-0.2,1.4-1,1.6c-0.8,0.3-2,0.3-4.1,0.3c-0.1-0.4-0.3-1-0.5-1.5c1.6,0.1,3,0.1,3.4,0.1
		s0.5-0.1,0.5-0.4v-4h-15.2v-1.4h15.2v-1.7c-5.3,0.2-10.4,0.3-14.1,0.3l-0.1-1.4c2.6,0,5.9,0,9.6-0.1v-1.5h-7.9v-6.9h7.9v-1.5h-9.9
		v-1.4h9.9v-2h1.6v2h9.7v1.4h-9.7v1.5h8.1v6.9h-3.3c1.8,0.7,3.8,1.7,4.9,2.5l-1,1c-0.4-0.3-0.9-0.7-1.5-1l-4.2,0.1h1.5v1.7h6.1
		L600.6-45L600.6-45z M582.8-44.9c1.5,0.9,3.4,2.2,4.3,3.2l-1.2,1.1c-0.9-1-2.7-2.4-4.3-3.3L582.8-44.9z M581.9-54.8h6.3v-1.7h-6.3
		V-54.8z M588.2-52v-1.7h-6.3v1.7H588.2z M589.9-56.4v1.7h6.5v-1.7H589.9z M596.4-53.6h-6.5v1.7h6.5V-53.6z M589.9-49.3
		c1.7,0,3.4-0.1,5.1-0.1c-0.7-0.3-1.4-0.6-2.1-0.8l0.6-0.6h-3.6V-49.3z"/>
	<path class="st0" d="M625.5-48.9c0,0,0,0.5-0.1,0.7c-0.5,5.3-0.9,7.4-1.7,8.2c-0.4,0.5-0.9,0.6-1.6,0.6c-0.6,0.1-1.9,0.1-3.1-0.1
		c0-0.4-0.2-1.1-0.5-1.5c1.3,0.1,2.5,0.1,3,0.1c0.4,0,0.7,0,0.9-0.2c0.5-0.6,1-2.2,1.4-6.4h-15.4c-1.4,1.2-2.9,2.3-4.6,3.2
		c-0.2-0.4-0.6-1.1-0.9-1.4c4.8-2.5,8.4-6.5,10.9-10.9h-9.2v-1.5h5.2c-0.4-1-1.2-2.6-2.1-3.8l1.5-0.6c0.9,1.1,1.8,2.7,2.1,3.8
		l-1.4,0.6h4.6c0.7-1.5,1.3-3,1.8-4.5l1.6,0.5c-0.5,1.4-1,2.7-1.6,4h5.3c-0.2,1.5-0.5,3.3-0.8,4.6h2.9c-0.2,1.5-0.5,3.3-0.8,4.6
		C622.9-48.9,625.5-48.9,625.5-48.9z M604.2-40.5c1.6-1.2,2.5-3.3,3-5.3l1.5,0.5c-0.5,2.1-1.4,4.4-3.1,5.7L604.2-40.5z M621.5-48.9
		c0.2-0.9,0.4-2,0.5-3.1h-9.2c-0.8,1.1-1.7,2.1-2.7,3.1H621.5z M611.8-45.3c0.5,1.5,0.8,3.4,0.7,4.6l-1.5,0.2
		c0.1-1.2-0.2-3.2-0.6-4.7L611.8-45.3z M615.7-56.6c-0.6,1-1.2,2.1-1.8,3.1h5.5c0.2-0.9,0.4-2,0.6-3.1H615.7z M615.6-45.7
		c0.7,1.3,1.2,3,1.4,4.1l-1.4,0.4c-0.2-1.1-0.7-2.8-1.4-4.1L615.6-45.7z M620-42.4c-0.3-0.9-1.1-2.4-1.9-3.5l1.2-0.5
		c0.8,1,1.7,2.4,2,3.4L620-42.4z"/>
	<path class="st0" d="M529.5-24.7c-0.4,3.7-1.1,6.7-2.3,9.3c1.1,1.8,2.4,3.3,4.2,4.3c-0.7,0.6-1.8,1.9-2.3,2.9
		c-1.6-1-2.8-2.4-3.8-4.1c-1.4,1.7-3.1,3.1-5.3,4.2c-0.2-0.4-0.5-1-0.9-1.6L518.3-9c-0.8-0.5-1.8-0.9-3-1.4
		c-1.7,0.9-4.1,1.6-7.4,2.1c-0.2-0.7-0.9-1.8-1.4-2.3c2.2-0.3,3.9-0.7,5.2-1.1c-0.7-0.2-1.4-0.4-2.1-0.6l-1.3-0.3
		c0.4-0.5,0.9-1.1,1.4-1.8h-2.4v-2.4h4c0.2-0.3,0.3-0.6,0.5-0.8h-3.4v-4.8h4.4V-23h-4.1v-2.8h-1.8v-2.6h1.8V-31h4.1v-1.5h2.7v1.5
		h4.3v2.7h1.3v2.6h-1.3v2.8h-4.3v0.5h4.6v0.8c1.3-2.9,2.2-6.9,2.8-10.8l3,0.6c-0.2,1.3-0.5,2.7-0.8,4h6v3.2L529.5-24.7L529.5-24.7z
		 M511.3-19.7h1.4v-0.8h-1.4L511.3-19.7L511.3-19.7z M511.4-28.7v0.6h1.4v-0.6H511.4z M512.7-25.3V-26h-1.4v0.7H512.7z M512.7-14
		c0.7,0.2,1.5,0.4,2.2,0.7c0.4-0.4,0.7-0.8,0.9-1.1H513L512.7-14z M518.9-14.4c-0.2,0.7-0.5,1.5-1.1,2.2c0.7,0.3,1.3,0.5,1.9,0.8
		c1.8-1,3.2-2.4,4.2-4c-0.5-1.4-0.9-2.8-1.3-4.4c-0.3,0.6-0.5,1.2-0.8,1.8c-0.4-0.5-1.1-1.2-1.7-1.8v2.2H515
		c-0.1,0.3-0.3,0.6-0.4,0.8h1.8v-0.6h2.9v0.6h1.9v2.4H518.9L518.9-14.4z M515.4-28.7v0.6h1.5v-0.6H515.4z M516.9-25.3V-26h-1.5v0.7
		H516.9z M515.4-20.5v0.8h1.4v-0.8H515.4z M524.4-24.7c0.3,1.8,0.6,3.6,1.1,5.2c0.4-1.6,0.7-3.3,0.9-5.2H524.4z"/>
	<path class="st0" d="M541.4-31.2c-0.6,1.7-1.4,3.3-2.2,5v18h-3.8v-12.2c-0.4,0.5-0.7,0.9-1.1,1.3c-0.3-0.9-1.3-3-1.9-3.9
		c2.2-2.2,4.3-5.7,5.5-9.3L541.4-31.2z M556.1-12.8v3.6H540v-3.6h8.9c0.8-3.3,1.6-8,1.9-11.6l3.9,0.6c-0.6,3.8-1.5,8-2.4,11
		C552.3-12.8,556.1-12.8,556.1-12.8z M546.7-28.3c-0.2-1.1-0.7-2.6-1.1-3.7l3.5-0.9c0.5,1.2,1,2.8,1.3,3.9l-2.6,0.7h7.5v3.6h-14.5
		v-3.6C540.8-28.3,546.7-28.3,546.7-28.3z M543.7-13.2c-0.2-2.7-0.8-7-1.4-10.4l3.3-0.8c0.7,3.3,1.4,7.5,1.7,10.1L543.7-13.2z"/>
	<path class="st0" d="M568-25.5c-0.7,1.3-1.7,2.6-2.7,3.9v13.4h-3.7v-9.2c-0.6,0.5-1.1,1-1.6,1.5c-0.5-0.8-1.8-2.5-2.5-3.2
		c2.6-1.8,5.4-4.7,7-7.6L568-25.5z M567.1-31c-1.9,2.5-4.8,5.3-7.3,7c-0.5-0.8-1.4-2.3-2-3.1c2.1-1.3,4.6-3.6,5.8-5.4L567.1-31z
		 M581.8-20.4h-3.3v8.1c0,1.9-0.3,2.9-1.6,3.5c-1.2,0.6-2.9,0.6-5.1,0.6c-0.1-1.1-0.6-2.7-1.1-3.8c1.2,0.1,2.9,0.1,3.4,0.1
		s0.6-0.1,0.6-0.5v-8h-7v-3.5h14.1L581.8-20.4L581.8-20.4z M581.2-27.5h-12.4V-31h12.4V-27.5z"/>
	<path class="st0" d="M606.8-12c0,1.6-0.3,2.6-1.3,3.1c-1,0.6-2.4,0.6-4.3,0.6c-0.1-1-0.6-2.5-1-3.4c1,0.1,2.2,0.1,2.6,0.1
		c0.4,0,0.5-0.1,0.5-0.4v-2.4c-1.9,0.5-3.9,1-5.5,1.4l-0.6-1.7c-0.1,2.4-0.5,5.1-1.5,6.8c-0.6-0.6-2.1-1.6-2.9-2
		c0.2-0.3,0.3-0.6,0.4-1c-3.2,0.7-6.5,1.5-9.1,2.1l-0.7-3.3c1-0.1,2.3-0.3,3.8-0.5v-5.8h-3.3v-3.1h3.3V-23h-1.8v-0.5
		c-0.3,0.3-0.5,0.5-0.8,0.7c-0.2-0.8-1-2.9-1.5-3.9c1.8-1.5,3.6-3.7,4.6-6.1l3.2,1.1c-0.1,0.3-0.3,0.5-0.4,0.8
		c1.4,1.1,3,2.4,3.8,3.2l-2.1,2.9c-0.2-0.2-0.3-0.4-0.5-0.6v2.2h-1.4v1.4h2.6v3.1h-2.6v4.4c0.3-1.1,0.6-2.8,0.7-3.9l2.7,0.6
		c-0.5,1.4-0.9,2.9-1.3,3.9l0.5-0.1l0.2,2.5c0.6-1.8,0.6-4,0.6-5.9v-8.4h4.7v-7h3.5v7h4.7L606.8-12L606.8-12z M586.2-17.9
		c0.4,1.3,0.8,3.1,0.9,4.2l-2.5,0.7c-0.1-1.2-0.5-2.9-0.8-4.3L586.2-17.9z M590.8-26.1c-0.6-0.6-1.3-1.2-1.9-1.8
		c-0.4,0.6-0.8,1.2-1.2,1.8H590.8z M590.3-13.2l1.7-0.3l-1.7-0.5V-13.2z M595.1-25.6c-0.3-1.3-1.1-3.2-2-4.7l3-1.4
		c0.9,1.4,1.9,3.3,2.2,4.6L595.1-25.6z M597.2-22.2v2.6l1.3-1.9c1.6,0.4,3.6,1.1,4.7,1.8v-2.4h-6V-22.2z M597.2-16.2
		c1.7-0.3,3.9-0.8,6.1-1.3v-2.2l-1.6,2.4c-0.9-0.7-2.9-1.5-4.5-2v2.3V-16.2z M607.7-30.8c-0.7,1.8-1.6,3.6-2.2,4.8l-3.1-1.1
		c0.6-1.3,1.5-3.3,1.9-4.9L607.7-30.8z"/>
	<path class="st0" d="M622.8-32.4c0,1.2-0.1,2.6-0.2,4.3c0.4,3.6,2,12.6,10.8,16.6c-1.1,0.9-2.2,2.2-2.7,3.2
		c-5.4-2.6-8.2-7.1-9.8-11.2c-1.5,4.2-4.1,8.4-9,11.4c-0.7-1-1.9-2.2-3.1-3c10.3-5.7,9.6-16.6,9.7-21.2L622.8-32.4L622.8-32.4z"/>
	<path class="st0" d="M644.6-26.2H635v-1.4h9.6V-26.2z M637.6-10.3V-9h-1.5v-8.5h7.5v7.3L637.6-10.3L637.6-10.3z M643.6-24.3v1.4
		h-7.4v-1.4H643.6z M636.1-21h7.5v1.4h-7.5V-21z M637.6-16.2v4.5h4.5v-4.5H637.6z M639.8-28c-0.4-0.9-1.2-2.3-1.9-3.4l1.3-0.7
		c0.8,1,1.6,2.3,2,3.3L639.8-28z M656.7-20.3c-1,3.1-2.6,5.5-4.6,7.3c1.8,1.2,3.9,2.2,6.2,2.7c-0.4,0.4-0.8,1-1.1,1.5
		c-2.4-0.7-4.6-1.7-6.4-3.1c-1.9,1.5-4.1,2.5-6.4,3.2c-0.2-0.5-0.6-1.1-0.9-1.5c2.1-0.6,4.2-1.5,6-2.8c-1.7-1.6-3-3.5-3.9-5.8
		l0.9-0.3h-2.1v-1.6h10.9l0.3-0.1L656.7-20.3z M648.5-28.2c0,2.2-0.7,5-3.7,6.8c-0.2-0.4-0.8-1-1.1-1.2c2.7-1.6,3.2-3.8,3.2-5.6V-31
		h7.6v6c0,0.7,0.1,0.9,0.4,0.9h1.6c0.3,0,0.8-0.1,1.1-0.1c0,0.4,0.1,1.1,0.1,1.5c-0.3,0.1-0.8,0.1-1.2,0.1h-1.7
		c-1.6,0-1.9-0.7-1.9-2.4v-4.3h-4.5L648.5-28.2L648.5-28.2z M647.1-19.1c0.9,2,2.1,3.7,3.7,5.1c1.6-1.4,2.9-3.1,3.8-5.1H647.1z"/>
	<path class="st0" d="M671.4-26.2H661v-1.4h10.5L671.4-26.2L671.4-26.2z M662.1-24.3h8.2v1.4h-8.2V-24.3z M670.3-19.6h-8.2V-21h8.2
		V-19.6z M670.3-10.3h-6.5V-9h-1.5v-8.5h8V-10.3z M663.8-16.2v4.5h5v-4.5H663.8z M665.9-28c-0.4-0.9-1.2-2.3-1.9-3.4l1.3-0.7
		c0.7,1,1.6,2.3,2,3.2L665.9-28z M683.5-21.4h-5.3v12.7h-1.7v-12.7h-5.1v-1.7h5.1v-8.4h1.7v8.4h5.3V-21.4z"/>
	<path class="st0" d="M688.5-16.8c2-0.8,3.1-2.1,3.2-3.9c-0.2,0.1-0.3,0.1-0.5,0.1c-1,0-1.8-0.6-1.8-1.7s0.9-1.7,1.8-1.7
		c1.4,0,2.1,1.1,2.1,2.8c0,2.7-1.7,4.8-4.3,5.7L688.5-16.8z"/>
	<path class="st0" d="M512.1,15c1-0.4,2-0.8,3.1-1.2l0.3,1.6c-2.7,1.1-5.5,2.2-7.7,3.1l-0.5-1.7c0.9-0.3,2-0.7,3.3-1.2V6.5h-3.1V4.9
		h3.1V-1h1.5v5.9h3v1.6h-3L512.1,15L512.1,15z M530.6,8.7v1.5h-15.7V8.7h9.5c0.7-1.5,1.5-3.8,1.9-5.4l1.6,0.4
		c-0.6,1.6-1.3,3.5-1.9,4.9L530.6,8.7L530.6,8.7z M529.8,3.1h-13.9V1.6h6.3c-0.2-0.8-0.4-1.9-0.7-2.8l1.5-0.2c0.4,1,0.7,2.2,0.9,3h6
		L529.8,3.1L529.8,3.1z M517.2,12.6h11.4v9.2H527v-1.1h-8.1v1.1h-1.6L517.2,12.6L517.2,12.6z M519.1,8.3c-0.2-1.2-0.8-3.1-1.4-4.5
		l1.4-0.4c0.7,1.4,1.3,3.2,1.5,4.4L519.1,8.3z M518.7,14.1v5.1h8.1v-5.1C526.9,14.1,518.7,14.1,518.7,14.1z"/>
	<path class="st0" d="M549.5,7.8c1.7,1.9,4.2,3.5,6.8,4.3c-0.4,0.3-0.9,0.9-1.1,1.3c-2.9-1-5.8-3.1-7.5-5.6h-6.3
		c-0.9,1.3-2.1,2.4-3.4,3.4h13V17h-11.5v2.6l4.4-1c0,0.4,0.1,1,0.1,1.3c-5.3,1.4-6,1.6-6.5,2c-0.1-0.4-0.4-1.1-0.7-1.5
		c0.4-0.2,0.9-0.6,0.9-1.6v-7.4c-1.2,0.9-2.6,1.7-3.9,2.3c-0.3-0.3-0.8-0.9-1.2-1.2c2.6-1.1,5.1-2.7,6.8-4.7h-6.1V6.6h10.3V5.1h-7.4
		V4h7.4V2.6h-8.8V1.4h4.9c-0.4-0.7-1-1.5-1.4-2.1l1.5-0.5c0.7,0.8,1.5,2,1.9,2.7h6c0.5-0.8,1.2-1.9,1.6-2.7l1.8,0.5
		c-0.5,0.8-1,1.6-1.6,2.2h4.9v1.2h-8.9V4h7.5v1.2h-7.5v1.4h10.4v1.3C555.7,7.8,549.5,7.8,549.5,7.8z M539.5,12.4v1.3h9.8v-1.3H539.5
		z M549.2,16v-1.4h-9.8V16H549.2z M540.8,10.1V9h7.3v1h-7.3V10.1z M554.5,17.1c-1.2,0.7-2.8,1.5-4.3,2c1.6,0.6,3.1,1.1,4.2,1.6
		l-0.7,1.2c-2.3-1-6.7-2.6-10-3.7l0.7-1.1c1.3,0.4,2.8,0.9,4.3,1.4c1.6-0.7,3.5-1.7,4.7-2.4L554.5,17.1z"/>
	<path class="st0" d="M566.8,4.7C566,6,565,7.3,563.9,8.5V22h-1.7V10.4c-1,1-2,2-3,2.8c-0.3-0.3-0.9-1.1-1.2-1.4
		c2.6-1.9,5.4-4.8,7.2-7.7L566.8,4.7z M565.7-0.7c-1.7,2.2-4.2,4.6-6.5,6.3c-0.2-0.4-0.7-1-1-1.4c2.1-1.4,4.6-3.7,5.9-5.5L565.7-0.7
		z M581.5,8.8h-3.9v10.8c0,1.1-0.3,1.6-1.1,1.9s-2.2,0.3-4.8,0.3c-0.1-0.5-0.3-1.1-0.6-1.6c1.9,0.1,3.6,0.1,4.1,0
		c0.5,0,0.6-0.1,0.6-0.6V8.8h-8.7V7.2h14.3L581.5,8.8L581.5,8.8z M580.7,1.8h-12.5V0.2h12.5V1.8z"/>
	<path class="st0" d="M593.2,19c-3.2,0.7-6.5,1.5-8.9,2l-0.4-1.5c1.1-0.2,2.6-0.5,4.3-0.8V11h-4V9.5h4V6.6h-2.4v-1
		c-0.4,0.4-0.7,0.7-1.1,1c-0.1-0.4-0.6-1.2-0.9-1.6c1.9-1.5,3.8-3.9,4.9-6.3l1.5,0.5c-0.2,0.3-0.3,0.6-0.5,0.9
		c1.5,1.2,3.3,2.8,4.2,3.8l-1,1.3c-0.9-1-2.5-2.5-4-3.8C588,2.8,587.1,4,586,5.1h6v1.5h-2.5v2.9h3.3V11h-3.3v7.3l3.5-0.7L593.2,19z
		 M585.6,12.4c0.4,1.5,0.9,3.5,1.1,4.7l-1.3,0.3c-0.2-1.3-0.6-3.3-1-4.8L585.6,12.4z M590.4,16.9c0.5-1.3,1-3.4,1.3-4.7l1.4,0.4
		c-0.5,1.6-1.1,3.5-1.6,4.7L590.4,16.9z M605.9,19.7c0,1-0.2,1.5-0.9,1.8s-2,0.3-3.9,0.3c-0.1-0.5-0.3-1.1-0.5-1.6
		c1.5,0.1,2.8,0.1,3.2,0c0.4,0,0.5-0.1,0.5-0.5V15c-2.7,0.7-5.4,1.4-7.5,1.9l-0.6-1.5c2.1-0.4,5.1-1.1,8.1-1.8V7.4h-8.2v5.4
		c0,2.8-0.2,6.6-1.8,9.2c-0.3-0.3-0.9-0.8-1.3-1c1.4-2.4,1.5-5.6,1.5-8.2V5.9h4.8v-7.2h1.6v7.2h4.9L605.9,19.7L605.9,19.7z
		 M596.5,4.9c-0.4-1.3-1.5-3.3-2.6-4.8l1.4-0.6c1.1,1.4,2.2,3.4,2.6,4.7L596.5,4.9z M597.4,9.3c2.1,0.4,4.7,1.2,6.1,1.9l-0.7,1.3
		c-1.4-0.7-4-1.6-6.1-2.1L597.4,9.3z M606.7,0c-0.9,1.7-2,3.5-2.9,4.8l-1.4-0.6c0.9-1.3,2.1-3.3,2.7-4.8L606.7,0z"/>
	<path class="st0" d="M620.6,15.3c-0.2,1.1-0.8,2.3-2.2,3.4c1.1,0.5,2.2,1,3,1.5l-1.2,1c-0.8-0.5-1.9-1.1-3.1-1.7
		c-1.6,0.9-3.9,1.7-7.1,2.3c-0.2-0.4-0.5-0.8-0.7-1.1c2.8-0.5,4.8-1.1,6.3-1.8c-1.4-0.6-2.8-1.1-4.1-1.5c0.4-0.5,0.9-1.1,1.3-1.7
		l-3.1,0.2l-0.2-1.3c1.2-0.1,2.6-0.1,4.2-0.2c0.4-0.7,0.8-1.4,1.2-2.1h-4.2v-4h4.8V7.2h-4.1V4.4h-1.7V3.1h1.7V0.5h4.1v-1.8h1.4v1.8
		h4.4v2.6h1.7v1.3h-1.7v2.8h-4.4v1.1h5v4.1h-5.4c-0.3,0.7-0.7,1.3-1.1,2l4-0.2c0-0.1,0-0.3,0-0.4v-0.9h1.4v0.9v0.3l1.4-0.1v1.2
		L620.6,15.3z M612,11.2h3.4V9.5H612V11.2z M612.8,1.7v1.5h2.7V1.7H612.8z M615.4,6V4.3h-2.7V6H615.4z M614.4,15.7
		c-0.3,0.4-0.6,0.8-0.9,1.2c1.1,0.4,2.2,0.8,3.3,1.2c1.3-0.9,1.9-1.8,2.2-2.7L614.4,15.7z M616.8,1.7v1.5h2.9V1.7H616.8z M619.7,6
		V4.3h-2.9V6H619.7z M616.8,9.5v1.7h3.5V9.5H616.8z M630.7,5.1c-0.5,3.8-1.1,7.1-2.3,9.8c1.1,2.4,2.5,4.3,4.3,5.5
		c-0.4,0.3-0.8,0.8-1,1.2c-1.7-1.2-3-2.9-4.1-5c-1.1,2.2-2.6,4-4.6,5.4c-0.1-0.3-0.6-1-0.9-1.3c2.2-1.5,3.7-3.5,4.8-5.9
		c-0.8-2.1-1.5-4.5-1.9-7.1c-0.4,1.1-0.9,2.2-1.4,3.1c-0.3-0.3-0.8-0.8-1.2-1C624,7.1,625,3,625.6-1.1l1.5,0.2
		c-0.2,1.5-0.5,3-0.9,4.5h6.3v1.5H630.7L630.7,5.1z M625.8,5.1c0.4,2.8,1,5.5,1.8,7.8c0.8-2.3,1.2-4.9,1.6-7.8
		C629.2,5.1,625.8,5.1,625.8,5.1z"/>
	<path class="st0" d="M639.7,12v7.9c0,1-0.2,1.4-0.8,1.7c-0.6,0.3-1.5,0.3-3.1,0.3c-0.1-0.4-0.3-1.1-0.5-1.6c1.1,0,2.1,0,2.4,0
		c0.3,0,0.5-0.1,0.5-0.5v-7.4l-3.1,1l-0.4-1.7c1-0.3,2.2-0.7,3.5-1.1V5.4H635V3.9h3.2v-5.2h1.6v5.2h2.4v1.6h-2.4v4.8
		c0.8-0.3,1.7-0.5,2.6-0.8l0.2,1.6L639.7,12z M644.6,10.2c0,3.5-0.4,8.4-2.8,11.7c-0.3-0.3-0.9-0.7-1.2-0.9
		c2.3-3.1,2.6-7.5,2.6-10.8V3.1h5.8v-4.4h1.6v1.6h6v1.3h-6v1.5h6.1L657,3l1,0.3c-0.4,1.2-0.8,2.6-1.2,3.4l-1.3-0.3
		c0.2-0.5,0.5-1.3,0.7-2h-5.9v1.5l4.3-0.4l0.1,1.1L650.1,7v0.4c0,0.6,0.1,0.8,0.7,0.8h3.6c0.5,0,1.4,0,1.7-0.1
		c0,0.4,0.1,0.8,0.1,1.1c-0.4,0.1-1.1,0.1-1.8,0.1h-4c-1.6,0-1.9-0.6-1.9-2l0,0l-3.3,0.3L645,6.3l3.4-0.3V4.4h-4.1v5.8H644.6z
		 M657.7,13.3c-0.9,0.5-1.9,1.1-3,1.6c0.6,2.2,1.9,4.3,3.7,5.2c-0.3,0.3-0.8,0.8-1,1.1c-1.8-1.1-3.1-3.4-3.8-5.9
		c-0.4,0.2-0.8,0.4-1.2,0.5c0.8,2.2,0.5,4.6-0.4,5.4c-0.5,0.5-1,0.6-1.8,0.7c-0.4,0-0.8,0-1.4-0.1c0-0.4-0.1-0.9-0.4-1.3
		c0.6,0.1,1.1,0.1,1.5,0.1s0.7,0,1-0.4c0.4-0.4,0.7-1.6,0.4-3c-1.7,1.5-4.2,3-6.3,3.9c-0.2-0.3-0.5-0.8-0.8-1c2.3-0.7,5.3-2.4,6.8-4
		c-0.1-0.3-0.3-0.7-0.4-1c-1.4,1-3.6,2.2-5.4,2.8c-0.1-0.3-0.4-0.7-0.7-1c1.9-0.5,4.2-1.6,5.5-2.6c-0.2-0.3-0.5-0.6-0.7-0.8
		c-1.2,0.6-2.6,1.2-3.8,1.5c-0.2-0.2-0.4-0.7-0.6-0.9c1.9-0.5,4.1-1.5,5.5-2.5h-5.3v-1.2h12.5v1.2H652c-0.5,0.5-1.1,0.9-1.8,1.3
		c0.6,0.6,1.1,1.2,1.5,1.9c1.6-0.7,3.5-1.7,4.7-2.4L657.7,13.3z"/>
	<path class="st0" d="M682.3,4.3c0,0,0,0.7-0.1,0.9c-0.6,10.6-1.1,14.3-2.3,15.6c-0.6,0.7-1.1,0.9-2.1,1c-0.8,0.1-2.4,0-4-0.1
		c-0.1-0.5-0.3-1.2-0.6-1.7c1.8,0.2,3.4,0.2,4,0.2c0.5,0,0.9-0.1,1.2-0.4c0.9-0.9,1.5-4.5,2-13.8h-8.9c-0.4,5.3-2.1,11.5-9.5,16
		c-0.3-0.4-0.9-1.1-1.3-1.3c7-4.2,8.7-9.9,9-14.7h-8.3V4.3h8.4c0-0.5,0-0.9,0-1.3v-4.3h1.8V3c0,0.4,0,0.8,0,1.3H682.3z"/>
	<path class="st0" d="M689.2,18.2c0-1.1,0.9-1.9,1.9-1.9s1.9,0.7,1.9,1.9c0,1.2-0.9,1.9-1.9,1.9C690.1,20.1,689.2,19.4,689.2,18.2z
		 M689.8,3.8l-0.1-2.9h2.8l-0.1,2.9l-0.6,10.1h-1.5L689.8,3.8z"/>
</g>
<g>
	<polyline class="st1" points="19.1,252.3 148.7,81.2 295.2,165.6 380.9,99.4 	"/>
	<ellipse class="st2" cx="19.1" cy="252.3" rx="9.8" ry="9.8"/>
	<circle class="st3" cx="19.1" cy="252.3" r="5.6"/>
	<g>
		<circle class="st4" cx="294.8" cy="165.7" r="9.8"/>
		<circle class="st3" cx="294.7" cy="165.7" r="5.6"/>
	</g>
	<circle class="st4" cx="380.9" cy="99.4" r="9.8"/>
	<circle class="st3" cx="380.9" cy="99.4" r="5.6"/>
	<circle class="st5" cx="153.4" cy="134.1" r="121.2"/>
	<circle class="st3" cx="153.4" cy="134.1" r="111.1"/>
	<g>
		<path class="st0" d="M71,140.2c0,1.2-0.4,2.4-1.6,3.8c1.2,0.3,2.4,0.6,3.2,1l-1,1.3c-0.9-0.4-2.1-0.7-3.4-1.1
			c-1.5,1.1-3.6,2.3-6.7,3.5c-0.2-0.4-0.7-0.8-1-1.1c2.6-1,4.5-1.9,5.8-2.8c-1.4-0.3-2.8-0.6-4.2-0.7c0.3-0.6,0.7-1.2,1-1.9l-3,0.7
			l-0.4-1.4c1.1-0.2,2.6-0.6,4.1-0.9c0.3-0.8,0.5-1.5,0.8-2.2l-4.2,0.8l-0.8-4.2l4.8-0.9l-0.2-1l-4.1,0.8l-0.5-2.8l-1.7,0.3
			l-0.3-1.5l1.7-0.3l-0.5-2.6l4.1-0.8l-0.3-1.8l1.5-0.3l0.3,1.8l4.3-0.8l0.5,2.6l1.7-0.3l0.3,1.5l-1.7,0.3L70,132l-4.3,0.8l0.2,1
			l5-0.9l0.8,4.2l-5.4,1c-0.2,0.7-0.4,1.4-0.7,2.1c1.2-0.3,2.5-0.6,3.8-0.9V139l-0.2-0.9l1.6-0.3l0.2,1v0.1l1.3-0.3l0.2,1.3
			L71,140.2z M61.7,137.5l3.2-0.6l-0.3-1.6l-3.2,0.6L61.7,137.5z M60.6,128l0.3,1.4l2.5-0.5l-0.3-1.4L60.6,128z M63.9,131.7
			l-0.3-1.5l-2.5,0.5l0.3,1.5L63.9,131.7z M64.8,141.7c-0.2,0.5-0.4,0.9-0.6,1.3c1.1,0.1,2.3,0.3,3.4,0.6c1.1-1.1,1.5-2.1,1.7-3
			L64.8,141.7z M64.6,127.2l0.3,1.4l2.7-0.5l-0.3-1.4L64.6,127.2z M68.1,130.9l-0.3-1.5l-2.7,0.5l0.3,1.5L68.1,130.9z M66.1,135.1
			l0.3,1.6l3.3-0.6l-0.3-1.6L66.1,135.1z M79.2,128.1c0.2,3.9,0.2,7.3-0.5,10.2c1.6,2.1,3.3,3.7,5.3,4.5c-0.3,0.4-0.7,1.1-0.9,1.6
			c-1.9-0.8-3.5-2.3-4.9-4.1c-0.8,2.3-1.9,4.3-3.6,6.1c-0.2-0.3-0.9-1-1.3-1.2c1.9-1.8,3.1-4,3.7-6.6c-1.2-1.8-2.2-4-3.1-6.4
			c-0.2,1.1-0.5,2.1-0.8,3.1c-0.3-0.2-1.1-0.7-1.5-0.9c1.2-3,1.4-7.3,1.2-11.6h1.7c0.1,1.5,0.1,3.1,0,4.6l6.2-1.2l0.3,1.7
			L79.2,128.1z M74.3,129c0.9,2.6,1.9,5.1,3.1,7.2c0.3-2.3,0.3-4.9,0.1-7.8L74.3,129z"/>
		<path class="st0" d="M91.5,119.7c-0.3,2-0.9,4-1.6,5.9l3.2,17.2l-1.9,0.4l-2.7-14.3c-0.6,1.3-1.3,2.5-2,3.6
			c-0.3-0.4-1-1.3-1.4-1.7c2-2.9,3.7-7.2,4.4-11.3L91.5,119.7z M110.3,136.7l0.3,1.8l-15.9,3l-0.3-1.8l8.9-1.7
			c0.3-3.6,0.3-9.2,0.1-13.1h2c0.1,4-0.1,9.2-0.3,12.8L110.3,136.7z M106.6,122.9l-13.8,2.6l-0.3-1.8l13.8-2.6L106.6,122.9z
			 M98.6,137.6c-0.7-2.6-2.3-7.2-3.8-10.6l1.6-0.7c1.5,3.4,3.1,7.8,3.9,10.4L98.6,137.6z M98.7,122.1c-0.4-1-1.2-2.6-2-3.8l1.7-0.8
			c0.7,1.2,1.6,2.7,2,3.7L98.7,122.1z"/>
		<path class="st0" d="M119.8,120c-0.6,1.4-1.3,2.9-2.1,4.4l2.5,13.4l-1.9,0.4l-2.1-11.3c-0.8,1.2-1.6,2.3-2.4,3.2
			c-0.4-0.3-1.2-1-1.6-1.3c2.3-2.4,4.5-5.8,5.7-9L119.8,120z M117.8,114.8c-1.2,2.6-3.4,5.5-5.4,7.6c-0.4-0.4-1-1-1.4-1.3
			c1.9-1.8,3.9-4.6,4.8-6.6L117.8,114.8z M135.2,121.5l-3.9,0.7l2,10.5c0.2,1.2,0,1.8-0.7,2.3c-0.8,0.4-2.2,0.7-4.7,1.2
			c-0.2-0.5-0.6-1.2-1-1.7c1.8-0.3,3.5-0.6,4-0.7c0.5-0.1,0.6-0.2,0.5-0.7l-2-10.5l-8.5,1.6l-0.3-1.8l14.3-2.7L135.2,121.5z
			 M133.2,114.7l-12.5,2.3l-0.3-1.8l12.5-2.3L133.2,114.7z"/>
		<path class="st0" d="M150.1,129.2c-3,1.3-6.2,2.7-8.6,3.7l-0.8-1.6c1.1-0.4,2.5-0.9,4.1-1.6l-1.4-7.4l-3.9,0.7l-0.3-1.7l3.9-0.7
			l-0.5-2.8l-2.4,0.4l-0.2-0.9c-0.3,0.4-0.6,0.8-0.9,1.2c-0.2-0.4-0.9-1.3-1.3-1.7c1.7-1.9,3.1-4.6,3.8-7.2l1.8,0.2
			c-0.1,0.3-0.2,0.7-0.3,1c1.7,1,3.8,2.2,4.9,3l-0.8,1.7c-1.1-0.8-3-2-4.6-3c-0.5,1.4-1.2,2.8-2,4l5.8-1.1l0.3,1.6l-2.4,0.4l0.5,2.8
			l3.2-0.6l0.3,1.7l-3.2,0.6l1.3,7.1l3.3-1.3L150.1,129.2z M141.3,124c0.7,1.4,1.5,3.3,2,4.5l-1.4,0.6c-0.4-1.2-1.2-3.1-1.9-4.5
			L141.3,124z M146.9,127.5c0.2-1.3,0.4-3.5,0.4-4.9l1.6,0.2c-0.2,1.6-0.4,3.6-0.7,4.9L146.9,127.5z M163,127.3
			c0.2,1,0.1,1.7-0.6,2.1c-0.7,0.4-1.9,0.7-3.9,1c-0.2-0.5-0.6-1.2-0.9-1.7c1.5-0.2,2.8-0.5,3.1-0.6c0.4-0.1,0.5-0.2,0.4-0.6
			l-0.8-4.5c-2.4,1.1-5,2.3-6.9,3.2l-0.9-1.5c1.9-0.8,4.8-2,7.6-3.2l-1.1-5.9l-7.9,1.5l1,5.3c0.5,2.8,1,6.6,0,9.5
			c-0.4-0.3-1.2-0.7-1.7-0.9c0.9-2.6,0.4-5.8-0.1-8.3l-1.3-7l4.8-0.9l-1.3-7.2l1.8-0.3l1.3,7.2l4.9-0.9L163,127.3z M150.7,114.5
			c-0.6-1.2-2-3.1-3.4-4.3l1.4-1c1.4,1.2,2.9,3,3.5,4.2L150.7,114.5z M152.6,118.7c2.1,0,4.8,0.3,6.3,0.8l-0.5,1.5
			c-1.5-0.5-4.2-0.9-6.3-0.9L152.6,118.7z M160.2,107.6c-0.6,1.8-1.3,3.9-2,5.3l-1.7-0.4c0.6-1.5,1.4-3.7,1.7-5.3L160.2,107.6z"/>
		<path class="st0" d="M176.4,103.3c0.1,0.9,0.4,2.2,0.5,3.7c0.9,3,4.5,13.4,14.2,15.7c-0.5,0.5-0.9,1.3-1.1,1.9
			c-6.9-1.8-10.9-7.6-13-12.1c-0.2,5.3-1.9,11.6-7.5,16c-0.4-0.4-1.1-0.9-1.8-1.2c9.6-7.3,7.1-19.7,6.5-23.6L176.4,103.3z"/>
		<path class="st0" d="M196.6,107.8c0,2.9-0.3,6.7-1.3,9.3l-1.9-0.4c1-2.5,1.4-6.1,1.3-8.9H196.6z M209.9,118.9
			c1.5-0.3,1.6-1.1,1-5.2c0.6,0.3,1.4,0.4,2,0.5c0.6,4.6,0.2,6.1-2.6,6.6l-5.1,1c-2.8,0.5-3.7,0-4.2-2.7l-0.2-1.3
			c-1.6,1.6-3.3,3-5.1,4.4c-0.4-0.4-1.1-1-1.5-1.3c2.3-1.6,4.3-3.4,6.2-5.4l-1.9-10l2-0.4l1.6,8.4c3.7-4.6,6.4-9.9,7.9-15l2,0.4
			c-1.9,6-5,11.9-9.4,17l0.5,2.8c0.2,1.2,0.5,1.4,2,1.1L209.9,118.9z M204.9,104.4c-1.7-1-4.9-2.6-7.3-3.7l1-1.6
			c2.4,1,5.6,2.6,7.3,3.5L204.9,104.4z M211.5,105.5c2.2,2.2,4.6,5.2,5.7,7.3l-1.6,1.2c-1.1-2.1-3.4-5.2-5.6-7.4L211.5,105.5z"/>
		<path class="st0" d="M230.6,93.6c-0.1,0.2-0.2,0.4-0.3,0.6c2.8,1.9,7.6,3.1,11.8,3.3c-0.3,0.4-0.7,1.2-0.9,1.7
			c-2.2-0.2-4.5-0.7-6.7-1.4l0.1,0.8l-8.8,1.6l-0.1-0.7c-1.8,1.4-3.8,2.7-5.8,3.8c-0.3-0.3-0.9-1-1.3-1.3c4.4-2.1,8.5-5.2,10.3-8.7
			L230.6,93.6z M221.8,102.2l17.1-3.2l1.2,6.4l-17.1,3.2L221.8,102.2z M224.8,109.6l14.4-2.7l1.5,8.3l-1.9,0.4l-0.1-0.8l-10.6,2
			l0.2,0.8l-1.9,0.3L224.8,109.6z M224.4,107.1l6-1.1l-0.7-3.8l-6,1.1L224.4,107.1z M226.7,103c0.8,0.8,1.7,1.8,2.1,2.6l-1.4,0.8
			c-0.4-0.8-1.2-1.9-2-2.7L226.7,103z M226.9,110.6l0.3,1.7l10.6-2l-0.3-1.7L226.9,110.6z M238.3,113.4l-0.3-1.7l-10.6,2l0.3,1.7
			L238.3,113.4z M233.4,97.4c-1.4-0.5-2.7-1.2-3.8-1.9c-0.8,1.1-1.8,2.2-2.8,3.2L233.4,97.4z M237.4,100.7l-6.1,1.1l0.7,3.8l6.1-1.1
			L237.4,100.7z M233.6,104.8c0.3-0.9,0.7-2.4,0.8-3.3l1.7,0.2c-0.4,1.2-0.8,2.5-1.2,3.3L233.6,104.8z"/>
		<path class="st0" d="M68.9,152.6c-0.2,1.3-0.4,2.8-0.6,4l4.2-0.8l3.1,16.6l-7.1,1.3l0.4,2l-1.7,0.3l-3.5-18.6l2.9-0.5
			c0.2-1.3,0.3-3.1,0.2-4.3H68.9z M71.1,157.9l-5.4,1l1,5.3l5.4-1L71.1,157.9z M73.5,171l-1.1-6.1l-5.4,1l1.1,6.1L73.5,171z
			 M85.2,154.4c1.8,11.7,2.2,15.7,1.4,17.2c-0.4,0.8-1,1.2-1.8,1.4c-0.9,0.3-2.3,0.5-3.8,0.7c-0.2-0.6-0.5-1.3-1-1.7
			c1.7-0.2,3.2-0.4,3.8-0.6c0.5-0.1,0.8-0.2,1-0.6c0.7-1.1,0.3-5-1.2-15.2l-6.5,1.2c-0.4,1.8-0.9,3.5-1.6,4.9
			c-0.4-0.2-1.3-0.6-1.8-0.8c1.3-2.6,2-6.3,2.2-10l1.9,0.1c-0.1,1.3-0.2,2.6-0.4,3.9l7.6-1.4L85.2,154.4z M81.7,167
			c-1.1-1.4-3.2-3.6-5-5.2l1.3-1.1c1.8,1.5,4,3.7,5.1,5L81.7,167z"/>
		<path class="st0" d="M99.4,153.3c-0.5,1.4-1.2,2.9-1.9,4.4l2.5,13.4l-3.7,0.7l-1.7-9.2c-0.5,0.6-0.9,1.2-1.4,1.8
			c-0.7-0.7-2.2-2.1-3.1-2.8c2.2-2.3,4.5-5.8,5.6-8.9L99.4,153.3z M97.5,148c-1.5,2.9-3.8,6.1-6,8.4c-0.6-0.8-1.8-2.1-2.6-2.7
			c1.9-1.7,3.9-4.5,4.8-6.5L97.5,148z M114.2,155.8l-3.3,0.6l1.5,8.1c0.4,1.9,0.2,3-1,3.8c-1.1,0.8-2.8,1.2-5,1.6
			c-0.3-1.1-1.1-2.6-1.8-3.6c1.3-0.2,3-0.5,3.4-0.6c0.5-0.1,0.6-0.2,0.5-0.6l-1.5-8l-7,1.3l-0.7-3.5l14.2-2.6L114.2,155.8z
			 M112.3,148.8l-12.4,2.3l-0.7-3.5l12.4-2.3L112.3,148.8z"/>
		<path class="st0" d="M142,159.3c0.3,1.6,0.2,2.6-0.7,3.4c-0.9,0.8-2.3,1.1-4.2,1.4c-0.3-1-1-2.4-1.6-3.2c1-0.1,2.3-0.3,2.6-0.4
			c0.4-0.1,0.5-0.2,0.4-0.5l-0.5-2.4c-1.8,0.9-3.7,1.7-5.3,2.5l-0.9-1.6c0.3,2.4,0.5,5.1-0.2,7c-0.7-0.5-2.4-1.2-3.3-1.5
			c0.1-0.3,0.2-0.7,0.3-1.1c-3,1.3-6.2,2.7-8.7,3.8l-1.4-3.2c1-0.3,2.3-0.7,3.7-1.2l-1.1-5.8l-3.3,0.6l-0.6-3.1l3.3-0.6l-0.3-1.4
			l-1.8,0.3l-0.1-0.5c-0.2,0.3-0.4,0.6-0.7,0.9c-0.4-0.8-1.6-2.7-2.3-3.6c1.5-1.8,2.9-4.4,3.5-6.9l3.4,0.6c-0.1,0.3-0.2,0.6-0.2,0.9
			c1.6,0.8,3.4,1.8,4.4,2.5l-1.5,3.2c-0.2-0.2-0.4-0.3-0.6-0.5l0.4,2.2l-1.4,0.3l0.3,1.4l2.6-0.5l0.6,3.1l-2.6,0.5l0.8,4.4
			c0.1-1.2,0.1-2.9,0-4l2.9,0.1c-0.2,1.5-0.4,3-0.6,4.1l0.5-0.2l0.6,2.4c0.2-1.9-0.2-4.1-0.5-6l-1.6-8.4l4.7-0.9l-1.3-7l3.6-0.7
			l1.3,7l4.7-0.9L142,159.3z M120.3,157.3c0.6,1.3,1.3,2.9,1.7,4l-2.4,1.2c-0.3-1.2-1-2.9-1.6-4.1L120.3,157.3z M123.4,148.2
			c-0.7-0.4-1.5-0.9-2.3-1.4c-0.3,0.7-0.6,1.3-0.9,2L123.4,148.2z M125.3,161.2l1.6-0.6l-1.8-0.1L125.3,161.2z M127.8,147.9
			c-0.5-1.2-1.7-3-2.9-4.4l2.7-2c1.2,1.2,2.5,2.9,3.1,4.2L127.8,147.9z M130.6,150.9l0.5,2.6l1-2.2c1.6,0.1,3.9,0.5,5.1,0.9
			l-0.5-2.5L130.6,150.9z M131.7,156.9c1.6-0.6,3.7-1.5,5.8-2.5l-0.4-2.2L136,155c-1.1-0.5-3.2-1-4.8-1.2l0.4,2.3L131.7,156.9z
			 M139.4,140.4c-0.4,2-0.9,3.9-1.3,5.3l-3.3-0.5c0.4-1.4,0.8-3.6,1-5.3L139.4,140.4z"/>
		<path class="st0" d="M165.7,141.8c0.3,3.8,0.3,7.1-0.4,9.9c1.3,1.6,2.9,2.7,4.7,3.4c-0.6,0.7-1.3,2-1.6,2.9
			c-1.6-0.7-3-1.7-4.2-2.9c-0.9,1.9-2.1,3.5-3.8,5c-0.3-0.4-0.8-1-1.3-1.5l-1.5,1.8c-1-0.4-2.3-0.8-3.7-1.2c-1.6,1-3.8,2.1-6.9,3
			c-0.4-0.6-1.2-1.6-1.8-2.1c1.9-0.6,3.5-1.2,4.7-1.8c-1.1-0.2-2.2-0.3-3.2-0.4c0.3-0.5,0.5-1,0.8-1.6l-1.9,0.5l-0.7-2.4
			c1.1-0.2,2.4-0.5,3.8-0.9c0.2-0.5,0.4-1,0.5-1.5l-3.6,0.7l-0.9-4.9l4.5-0.8l-0.1-0.5l-3.8,0.7l-0.5-2.6l-2.1,0.4l-0.5-2.6l2.1-0.4
			l-0.5-2.6l3.8-0.7l-0.3-1.5l2.7-0.5l0.3,1.5l4-0.7l0.5,2.6l1.8-0.3l0.5,2.6l-1.8,0.3l0.5,2.6l-4,0.7l0.1,0.5l4.5-0.8l0.3,1.7
			c1-3.1,1-7.5,0.5-11.9l3.1-0.2c0.1,1.4,0.2,2.9,0.2,4.3l6-1.1l0.6,3.2L165.7,141.8z M148.3,149.9l1.5-0.3l-0.1-0.6l-1.5,0.3
			L148.3,149.9z M147.4,141l0.1,0.5l0.8-0.1l-0.1-0.5L147.4,141z M148.8,144.1l-0.1-0.6l-0.8,0.1l0.1,0.6L148.8,144.1z M150.8,155.8
			c0.8,0.1,1.6,0.3,2.4,0.4c0.7-0.6,1-1.2,1.2-1.7l-3.4,0.8L150.8,155.8z M157.6,153.8c-0.1,1-0.4,2.1-1.3,3.1
			c0.7,0.2,1.4,0.3,2,0.5c1.8-1.5,3-3.2,3.7-5.3c-0.8-1.2-1.5-2.6-2.1-4c-0.1,0.6-0.3,1.1-0.5,1.6c-0.5-0.5-1.6-1.3-2.4-1.8l0.5,2.5
			l-5,0.9c-0.1,0.4-0.3,0.9-0.4,1.4l2.5-0.6l-0.1-0.7l2.9-0.5l0.1,0.6l0.6-0.1l0.4,2.3L157.6,153.8z M150.9,140.3l0.1,0.5l0.8-0.1
			l-0.1-0.5L150.9,140.3z M152.3,143.4l-0.1-0.6l-0.8,0.1l0.1,0.6L152.3,143.4z M152.4,148.6l0.1,0.6l1.3-0.2l-0.1-0.6L152.4,148.6z
			 M160.7,142.7c0.6,1.8,1.3,3.5,2.1,5.1c0.1-1.7,0-3.5-0.1-5.4L160.7,142.7z"/>
		<path class="st0" d="M177,146.7l1.1,6c0.3,1.6,0.2,2.5-0.5,3.3c-0.7,0.7-1.9,1.1-3.5,1.4c-0.3-0.9-0.9-2.3-1.5-3.2
			c0.8-0.1,1.7-0.3,2-0.3c0.3-0.1,0.4-0.2,0.3-0.5l-0.9-5l-1.9,0.9l-1.4-3.4c0.8-0.3,1.7-0.7,2.7-1.1l-0.7-3.8l-2.3,0.4l-0.6-3.4
			l2.3-0.4l-0.9-4.7l3.3-0.6l0.9,4.7l1.8-0.3l0.6,3.4l-1.8,0.3l0.6,3l1.6-0.7l1.1,3.2L177,146.7z M195.8,145.3c-0.6,0.5-1.3,1-2,1.5
			c0.8,1.4,1.9,2.6,3.2,3.2c-0.5,0.6-1.3,1.8-1.6,2.6c-1.5-0.9-2.7-2.6-3.6-4.6l-0.6,0.4c1,1.8,0.9,3.8,0.2,4.8
			c-0.5,0.8-1.1,1.1-2,1.3c-0.4,0.1-0.9,0.2-1.3,0.2c-0.1-0.6-0.5-1.5-1-2.2c-1,0.8-2.1,1.5-3.1,2c-0.3-0.4-1-1.1-1.5-1.5
			c-0.2,1-0.4,1.9-0.8,2.8c-0.7-0.4-2.2-1.1-3-1.3c1.4-3.2,0.8-7.3,0.2-10.5l-1.5-7.8l5.5-1l-0.8-4.4l3.6-0.7l0.2,1.1l5.7-1.1
			l0.5,2.5l-5.7,1.1l0.2,0.8l4.2-0.8l0.5-0.2h2.4c0,1.6-0.2,3.5-0.4,4.8l-2.8-0.1c0.1-0.5,0.1-1.1,0.1-1.8l-3.9,0.7l0.1,0.6l3-0.8
			l0.6,1.9l-3.2,0.9c0.1,0.3,0.3,0.4,0.8,0.3l2.5-0.5c0.7-0.1,1.9-0.4,2.3-0.6c0.2,0.8,0.4,1.4,0.6,2.1c-0.5,0.2-1.5,0.5-2.3,0.6
			l-3.4,0.6c-1.9,0.3-2.7-0.1-3.2-1.1l-2,0.6l-0.8-2.6l2.2-0.6l-0.2-0.9l-2.4,0.4l1,5.3c0.2,1.1,0.4,2.4,0.5,3.8
			c1.3-0.5,2.7-1.3,3.9-2l-3.6,0.7l-0.4-2.3l12.4-2.3l0.4,2.3l-5.2,1c-0.4,0.4-0.8,0.8-1.4,1.3c0.5,0.3,0.9,0.6,1.3,0.9
			c1.3-0.8,2.8-1.9,3.7-2.7L195.8,145.3z M188.4,148.9c-0.1-0.1-0.1-0.2-0.2-0.3c-1.2,1-2.8,2.2-4.2,2.9c-0.3-0.4-0.9-1-1.3-1.4
			c0,1,0,1.9-0.2,2.8C184.6,151.9,187.1,150.3,188.4,148.9z M182.5,147.3c0.1,0.8,0.1,1.7,0.1,2.6c1.5-0.6,3.2-1.6,4.3-2.4
			c-0.1-0.1-0.2-0.1-0.3-0.2c-0.9,0.6-1.9,1.1-2.9,1.6C183.5,148.4,182.9,147.7,182.5,147.3z M189.1,151.6c0.1-0.2,0.1-0.5,0.1-0.9
			c-0.5,0.5-1.1,1.1-1.8,1.6c0.4,0,0.7-0.1,1-0.1C188.7,152.1,188.9,152,189.1,151.6z"/>
		<path class="st0" d="M219.1,129.1c0,0,0.2,1.2,0.2,1.7c1.4,10.1,1.6,14.1,0.7,15.7c-0.6,1.3-1.4,1.7-2.6,2.1
			c-1,0.4-2.5,0.7-4.1,0.9c-0.3-1.1-1.1-2.7-2-3.6c1.6-0.2,3-0.4,3.7-0.6c0.5-0.1,0.8-0.3,1.1-0.7c0.6-0.9,0.5-4.2-0.4-11.1
			l-6.4,1.2c0.6,5.4-0.1,12-6.4,17.2c-0.8-0.8-2.5-2-3.5-2.5c5.5-4.2,6.3-9.5,5.9-13.9l-7.4,1.4l-0.7-3.8l7.6-1.4l-1-5.1l4-0.7
			l1,5.1L219.1,129.1z"/>
		<path class="st0" d="M235.8,141.3c-0.2-1.2,0.5-2.2,1.7-2.4c1.1-0.2,2.2,0.4,2.4,1.6c0.2,1.3-0.5,2.2-1.7,2.4
			C237.1,143.2,236.1,142.6,235.8,141.3z M233.8,127l-0.6-3l3.1-0.6l0.5,3l1.2,10l-1.7,0.3L233.8,127z"/>
	</g>
</g>
</svg>
