<?xml version="1.0" encoding="utf-8"?>
<!-- Generator: Adobe Illustrator 25.2.3, SVG Export Plug-In . SVG Version: 6.00 Build 0)  -->
<svg version="1.1" id="圖層_1" xmlns="http://www.w3.org/2000/svg" xmlns:xlink="http://www.w3.org/1999/xlink" x="0px" y="0px"
	 viewBox="0 0 85 85" style="enable-background:new 0 0 85 85;" xml:space="preserve">
<style type="text/css">
	.st0{fill:#458DA7;}
	.st1{fill:#FFFFFF;}
	.st2{font-family:'DINPro-Medium';}
	.st3{font-size:4.4637px;}
	.st4{fill:#D98239;}
</style>
<polygon class="st0" points="58,10 73.7,16.2 58,22.4 "/>
<g>
	<path class="st0" d="M58,31.1c-0.6,0-1-0.4-1-1V10c0-0.6,0.4-1,1-1s1,0.4,1,1v20.1C59,30.7,58.6,31.1,58,31.1z"/>
</g>
<text transform="matrix(1 0 0 1 58.2642 17.7441)" class="st1 st2 st3">GOAL</text>
<g>
	<path class="st0" d="M14.6,45.5c-0.3,0-0.7-0.2-0.9-0.5l-2.9-4.9c-0.1-0.2-0.2-0.5-0.1-0.8c0.1-0.3,0.2-0.5,0.5-0.6l21-12.4l-1.2-2
		c-0.2-0.3-0.2-0.7,0-1.1c0.2-0.3,0.6-0.5,1-0.4l10.1,1.3c0.3,0,0.6,0.2,0.7,0.5c0.2,0.3,0.2,0.6,0.1,0.9L39.1,35
		c-0.1,0.4-0.5,0.6-0.9,0.6s-0.7-0.2-0.9-0.5l-1.2-2l-21,12.3C14.9,45.5,14.8,45.5,14.6,45.5z M13.1,40l1.9,3.2l21-12.3
		c0.5-0.3,1.1-0.1,1.4,0.4l0.7,1.1l2.6-6.4l-6.8-0.9l0.7,1.1c0.3,0.5,0.1,1.1-0.4,1.4L13.1,40z"/>
</g>
<path class="st4" d="M10.7,65.8c-0.8,0-1.4-0.6-1.4-1.4V56c0-0.8,0.6-1.4,1.4-1.4h18.7V43.2c0-0.8,0.6-1.4,1.4-1.4h18.7V30.5
	c0-0.8,0.6-1.4,1.4-1.4H71c0.8,0,1.4,0.6,1.4,1.4v33.2c0,0.8-0.6,1.4-1.4,1.4s-1.4-0.6-1.4-1.4V31.9H52.2v11.4
	c0,0.8-0.6,1.4-1.4,1.4H32.1V56c0,0.8-0.6,1.4-1.4,1.4H12.1v7.1C12.1,65.2,11.5,65.8,10.7,65.8z"/>
<g>
	<g>
		<path class="st4" d="M79,66.8H6c-0.8,0-1.5-0.7-1.5-1.5s0.7-1.5,1.5-1.5h73c0.8,0,1.5,0.7,1.5,1.5S79.8,66.8,79,66.8z"/>
	</g>
</g>
</svg>
