<?xml version="1.0" encoding="utf-8"?>
<!-- Generator: Adobe Illustrator 25.2.3, SVG Export Plug-In . SVG Version: 6.00 Build 0)  -->
<svg version="1.1" id="圖層_1" xmlns="http://www.w3.org/2000/svg" xmlns:xlink="http://www.w3.org/1999/xlink" x="0px" y="0px"
	 viewBox="0 0 85 85" style="enable-background:new 0 0 85 85;" xml:space="preserve">
<style type="text/css">
	.st0{fill:#D98239;}
	.st1{fill:#458DA7;}
</style>
<g>
	<g>
		<g>
			<path class="st0" d="M16.4,54h53c0.3,0,0.6-0.3,0.6-0.6V24c0-0.3-0.3-0.6-0.6-0.6h-53c-0.3,0-0.6,0.3-0.6,0.6v29.4
				C15.8,53.8,16.1,54,16.4,54z M17,39c0.1,0.1,0.3,0.2,0.4,0.2H22c0.3,0,0.6-0.3,0.6-0.6S22.3,38,22,38h-4.6
				c-0.2,0-0.3,0.1-0.4,0.2V24.6h51.8v28.2H17V39z"/>
			<path class="st0" d="M69.4,54.5h-53c-0.6,0-1.1-0.5-1.1-1.1V24c0-0.6,0.5-1.1,1.1-1.1h53c0.6,0,1.1,0.5,1.1,1.1v29.4
				C70.4,54,70,54.5,69.4,54.5z M16.4,23.9C16.4,23.9,16.3,24,16.4,23.9l-0.1,29.5c0,0,0,0.1,0.1,0.1h53c0,0,0.1,0,0.1-0.1V24
				c0,0,0-0.1-0.1-0.1H16.4z M69.3,53.4H16.5V24.1h52.8V53.4z M17.5,52.4h50.8V25.1H17.5v12.4h4.6c0.6,0,1.1,0.5,1.1,1.1
				s-0.5,1.1-1.1,1.1h-4.6V52.4z M17.3,38.7L17.3,38.7C17.4,38.7,17.4,38.7,17.3,38.7l4.7,0.1c0,0,0.1,0,0.1-0.1s0-0.1-0.1-0.1h-4.6
				L17.3,38.7z"/>
		</g>
		<g>
			<path class="st0" d="M77.8,55.8h-5V24c0-1.9-1.6-3.5-3.5-3.5h-53c-1.9,0-3.5,1.6-3.5,3.5v31.8h-5c-0.3,0-0.6,0.3-0.6,0.6v3.8
				c0,2.4,2,4.4,4.4,4.4H74c2.4,0,4.4-2,4.4-4.4v-3.8C78.4,56.1,78.2,55.8,77.8,55.8z M14,24c0-1.3,1.1-2.4,2.4-2.4h53
				c1.3,0,2.4,1.1,2.4,2.4v31.8H14l0,0V24z M77.3,60.2c0,1.8-1.4,3.2-3.2,3.2H11.7c-1.8,0-3.2-1.4-3.2-3.2V57h5h58.8h5V60.2z"/>
			<path class="st0" d="M74.1,65H11.7c-2.7,0-4.9-2.2-4.9-4.9v-3.8c0-0.6,0.5-1.1,1.1-1.1h4.5V24c0-2.2,1.8-4,4-4h53
				c2.2,0,4,1.8,4,4v31.3h4.5c0.6,0,1.1,0.5,1.1,1.1v3.8c0,1.3-0.5,2.5-1.4,3.4C76.6,64.5,75.4,65,74.1,65z M7.9,56.3
				C7.9,56.3,7.8,56.3,7.9,56.3l-0.1,3.9c0,2.1,1.7,3.9,3.9,3.9h62.4c1,0,2-0.4,2.7-1.1c0.7-0.7,1.1-1.7,1.1-2.7v-3.8
				c0,0,0-0.1-0.1-0.1h-5.5V24c0-1.7-1.4-3-3-3h-53c-1.7,0-3,1.4-3,3v32.3H7.9z M74.1,63.9H11.7c-2,0-3.7-1.7-3.7-3.7v-3.7h69.8v3.7
				C77.8,62.2,76.1,63.9,74.1,63.9z M9,57.5v2.7c0,1.5,1.2,2.7,2.7,2.7h62.4c1.5,0,2.7-1.2,2.7-2.7v-2.7H9z M72.2,56.3H13.5V24
				c0-1.6,1.3-2.9,2.9-2.9h53c1.6,0,2.9,1.3,2.9,2.9v32.3H72.2z M14.5,55.3h56.7V24c0-1-0.8-1.9-1.9-1.9h-53c-1,0-1.9,0.8-1.9,1.9
				v31.3H14.5z"/>
		</g>
		<g>
			<path class="st0" d="M42.9,58.1c-1.1,0-2.1,0.9-2.1,2.1c0,1.1,0.9,2,2.1,2c1.1,0,2.1-0.9,2.1-2C44.9,59,44,58.1,42.9,58.1z
				 M42.9,61.1c-0.5,0-0.9-0.4-0.9-0.9s0.4-0.9,0.9-0.9s0.9,0.4,0.9,0.9C43.8,60.7,43.4,61.1,42.9,61.1z"/>
			<path class="st0" d="M42.9,62.7c-1.4,0-2.6-1.1-2.6-2.5s1.1-2.6,2.6-2.6c1.4,0,2.6,1.1,2.6,2.6C45.4,61.6,44.3,62.7,42.9,62.7z
				 M42.9,58.6c-0.9,0-1.6,0.7-1.6,1.6c0,0.9,0.7,1.5,1.6,1.5c0.9,0,1.6-0.7,1.6-1.5C44.4,59.3,43.7,58.6,42.9,58.6z M42.9,61.6
				c-0.8,0-1.4-0.6-1.4-1.4c0-0.8,0.6-1.4,1.4-1.4c0.8,0,1.4,0.6,1.4,1.4C44.3,60.9,43.6,61.6,42.9,61.6z M42.9,59.8
				c-0.2,0-0.4,0.2-0.4,0.4s0.2,0.4,0.4,0.4s0.4-0.2,0.4-0.4C43.3,60,43.1,59.8,42.9,59.8z"/>
		</g>
		<g>
			<path class="st0" d="M54.1,29.3h-4.6c-0.3,0-0.6,0.3-0.6,0.6c0,0.3,0.3,0.6,0.6,0.6h4.6c0.3,0,0.6-0.3,0.6-0.6
				S54.5,29.3,54.1,29.3z"/>
			<path class="st0" d="M54.1,31h-4.6c-0.6,0-1.1-0.5-1.1-1.1s0.5-1.1,1.1-1.1h4.6c0.6,0,1.1,0.5,1.1,1.1C55.2,30.5,54.7,31,54.1,31
				z M49.5,29.8C49.5,29.8,49.4,29.8,49.5,29.8c-0.1,0.1,0,0.2,0,0.2h4.6c0,0,0.1,0,0.1-0.1c0,0,0-0.1-0.1-0.1H49.5z"/>
		</g>
		<g>
			<path class="st0" d="M39.9,33.9h-17c-0.3,0-0.6,0.3-0.6,0.6s0.3,0.6,0.6,0.6h17c0.3,0,0.6-0.3,0.6-0.6S40.2,33.9,39.9,33.9z"/>
			<path class="st0" d="M39.9,35.6h-17c-0.6,0-1.1-0.5-1.1-1.1s0.5-1.1,1.1-1.1h17c0.6,0,1.1,0.5,1.1,1.1S40.5,35.6,39.9,35.6z
				 M22.9,34.4C22.9,34.4,22.8,34.4,22.9,34.4c-0.1,0.1,0,0.2,0,0.2h17c0,0,0.1,0,0.1-0.1c0,0,0-0.1-0.1-0.1
				C39.9,34.4,22.9,34.4,22.9,34.4z"/>
		</g>
		<g>
			<path class="st0" d="M46.1,33.9h-3.2c-0.3,0-0.6,0.3-0.6,0.6s0.3,0.6,0.6,0.6h3.2c0.3,0,0.6-0.3,0.6-0.6
				C46.7,34.2,46.4,33.9,46.1,33.9z"/>
			<path class="st0" d="M46.1,35.6h-3.2c-0.6,0-1.1-0.5-1.1-1.1s0.5-1.1,1.1-1.1h3.2c0.6,0,1.1,0.5,1.1,1.1S46.7,35.6,46.1,35.6z
				 M42.8,34.4L42.8,34.4c-0.1,0.1,0,0.2,0,0.2H46c0,0,0.1,0,0.1-0.1s0-0.1-0.1-0.1C46,34.4,42.8,34.4,42.8,34.4z"/>
		</g>
		<g>
			<path class="st0" d="M28.7,38.1h-3.2c-0.3,0-0.6,0.3-0.6,0.6s0.3,0.6,0.6,0.6h3.2c0.3,0,0.6-0.3,0.6-0.6
				C29.3,38.3,29,38.1,28.7,38.1z"/>
			<path class="st0" d="M28.7,39.7h-3.2c-0.6,0-1.1-0.5-1.1-1.1s0.5-1.1,1.1-1.1h3.2c0.6,0,1.1,0.5,1.1,1.1c0,0.3-0.1,0.6-0.3,0.8
				C29.3,39.6,29,39.7,28.7,39.7z M25.5,38.6C25.4,38.6,25.4,38.6,25.5,38.6c-0.1,0.1,0,0.2,0,0.2h3.2l0.1-0.1c0,0,0-0.1-0.1-0.1
				C28.7,38.6,25.5,38.6,25.5,38.6z"/>
		</g>
		<g>
			<path class="st0" d="M39.9,47h-4.6c-0.3,0-0.6,0.3-0.6,0.6s0.3,0.6,0.6,0.6h4.6c0.3,0,0.6-0.3,0.6-0.6S40.2,47,39.9,47z"/>
			<path class="st0" d="M39.9,48.7h-4.6c-0.6,0-1.1-0.5-1.1-1.1s0.5-1.1,1.1-1.1h4.6c0.6,0,1.1,0.5,1.1,1.1S40.5,48.7,39.9,48.7z
				 M35.3,47.5C35.2,47.5,35.2,47.5,35.3,47.5c-0.1,0.1,0,0.2,0,0.2h4.6c0,0,0.1,0,0.1-0.1s0-0.1-0.1-0.1
				C39.9,47.5,35.3,47.5,35.3,47.5z"/>
		</g>
	</g>
</g>
<g>
	<g>
		<path class="st1" d="M68.8,50.2h-0.9c-0.2,0-0.4-0.2-0.4-0.4v-1.7c0-0.2-0.1-0.4-0.3-0.4c-1.1-0.2-2-0.6-3-1.2
			c-0.2-0.1-0.4-0.1-0.5,0.1l-1.2,1.2c-0.1,0.1-0.2,0.1-0.3,0.1l0,0c-0.1,0-0.2,0-0.3-0.1L60.2,46c-0.1-0.1-0.1-0.2-0.1-0.3
			s0-0.2,0.1-0.3l1.1-1.1c0.1-0.1,0.2-0.4,0.1-0.5c-0.6-0.9-1-2-1.3-3c0-0.2-0.2-0.3-0.4-0.3h-1.6c-0.2,0-0.4-0.2-0.4-0.4v-2.4
			c0-0.2,0.2-0.4,0.4-0.4h1.6l0,0c0.2,0,0.4-0.1,0.4-0.3c0.3-1.1,0.7-2.1,1.3-3c0.1-0.2,0.1-0.4-0.1-0.5l-1-1.5
			c-0.1-0.1-0.1-0.2-0.1-0.3c0-0.1,0-0.2,0.1-0.3l1.7-1.7c0.1-0.1,0.2-0.1,0.3-0.1l0,0c0.1,0,0.2,0,0.3,0.1l1.2,1.2
			c0.1,0.1,0.4,0.2,0.5,0.1c0.9-0.6,1.9-0.9,3-1.1c0.2,0,0.3-0.2,0.4-0.4v-1.7c0-0.2,0.2-0.4,0.4-0.4H69c0.2,0,0.4-0.2,0.4-0.4
			c0-0.2-0.2-0.4-0.4-0.4h-0.9c-0.7,0-1.3,0.6-1.3,1.3v1.4c-0.9,0.2-1.8,0.5-2.6,1l-0.9-1c-0.2-0.2-0.6-0.4-0.9-0.4l0,0
			c-0.3,0-0.7,0.1-0.9,0.4L59.8,31c-0.2,0.2-0.4,0.6-0.4,0.9s0.1,0.7,0.4,0.9l0.9,0.9c-0.5,0.8-0.9,1.7-1.1,2.7h-1.2
			c-0.7,0-1.3,0.6-1.3,1.3v2.4c0,0.7,0.6,1.3,1.3,1.3h1.2c0.2,0.9,0.6,1.8,1.1,2.7L59.8,45c-0.2,0.2-0.4,0.6-0.4,0.9
			c0,0.3,0.1,0.7,0.4,0.9l1.7,1.7c0.2,0.2,0.6,0.4,0.9,0.4c0.4,0,0.7-0.1,0.9-0.4l0.9-0.9c0.8,0.5,1.7,0.8,2.6,1V50
			c0,0.7,0.6,1.3,1.3,1.3H69l0,0c0.2,0,0.4-0.2,0.4-0.4C69.2,50.4,69.1,50.2,68.8,50.2z"/>
		<path class="st1" d="M68.8,51.6h-0.9c-1,0-1.8-0.8-1.8-1.8v-1c-0.7-0.2-1.4-0.5-2-0.8l-0.7,0.7c-0.4,0.4-0.8,0.5-1.3,0.5
			s-0.9-0.2-1.3-0.5L59.1,47c-0.3-0.3-0.5-0.8-0.5-1.3s0.2-0.9,0.5-1.3l0.6-0.6c-0.4-0.7-0.7-1.4-0.9-2.1H58c-1,0-1.8-0.8-1.8-1.8
			v-2.4c0-1,0.8-1.8,1.8-1.8h0.8c0.2-0.7,0.5-1.4,0.9-2.1L59.3,33c-0.3-0.4-0.5-0.8-0.5-1.3s0.2-0.9,0.5-1.3l1.7-1.7
			c0.7-0.7,1.9-0.7,2.5,0l0.7,0.7c0.6-0.3,1.3-0.6,2-0.8v-1c0-1,0.8-1.8,1.8-1.8h0.9c0.5,0,0.9,0.4,0.9,0.9c0,0.3-0.1,0.5-0.3,0.7
			c-0.2,0.2-0.4,0.3-0.7,0.2H68v1.7c0,0.4-0.3,0.8-0.8,0.9c-1,0.2-1.9,0.5-2.8,1.1c-0.4,0.2-0.8,0.2-1.1-0.1L62.1,30l-1.6,1.7l1.1,1
			c0.3,0.3,0.4,0.8,0.1,1.2c-0.6,0.9-1,1.8-1.2,2.8c-0.1,0.4-0.5,0.7-0.9,0.7H58v2.3l1.5-0.1c0.4,0,0.8,0.3,0.9,0.7
			c0.2,1,0.6,2,1.2,2.9c0.2,0.4,0.2,0.9-0.1,1.2l-1.1,1.1l1.7,1.6l1.1-1.2c0.3-0.3,0.8-0.4,1.1-0.1c0.9,0.5,1.8,0.9,2.8,1.1
			c0.4,0.1,0.7,0.5,0.7,0.9v1.7l0.8-0.1c0.2,0,0.5,0.1,0.7,0.3s0.3,0.4,0.3,0.7c0,0.2-0.1,0.5-0.3,0.6
			C69.3,51.5,69.1,51.6,68.8,51.6z"/>
	</g>
	<g>
		<path class="st1" d="M69,34.4c0.2,0,0.4-0.2,0.4-0.5c0-0.2-0.2-0.4-0.5-0.4C66.2,33.7,64,36,64,38.7s2.1,5,4.9,5.2l0,0
			c0.2,0,0.4-0.2,0.4-0.4s-0.2-0.4-0.4-0.5c-2.3-0.2-4.1-2.1-4.1-4.4C64.9,36.4,66.7,34.5,69,34.4z"/>
		<path class="st1" d="M68.9,44.5c-3.1-0.2-5.4-2.8-5.4-5.8s2.4-5.5,5.4-5.7c0.2,0,0.5,0.1,0.7,0.2c0.2,0.2,0.3,0.4,0.3,0.6
			c0,0.2-0.1,0.5-0.2,0.7c-0.2,0.2-0.4,0.3-0.6,0.3c-2,0.1-3.6,1.8-3.7,3.8c0,2,1.6,3.7,3.6,3.9c0.5,0,0.9,0.5,0.9,1
			C69.8,44.1,69.4,44.5,68.9,44.5z M69,33.9L69,33.9L69,33.9L69,33.9z"/>
	</g>
	<g>
		<path class="st1" d="M17.4,30.5H46c0.3,0,0.6-0.3,0.6-0.6c0-0.3-0.3-0.6-0.6-0.6H17.4c-0.3,0-0.6,0.3-0.6,0.6S17.1,30.5,17.4,30.5
			z"/>
		<path class="st1" d="M46,31H17.4c-0.6,0-1.1-0.5-1.1-1.1s0.5-1.1,1.1-1.1H46c0.6,0,1.1,0.5,1.1,1.1C47,30.5,46.6,31,46,31z
			 M17.4,29.8C17.4,29.8,17.3,29.8,17.4,29.8c-0.1,0.1,0,0.2,0,0.2H46c0,0,0.1,0,0.1-0.1c0,0,0-0.1-0.1-0.1H17.4z"/>
	</g>
	<g>
		<path class="st1" d="M39.9,42.6H7.6c-0.3,0-0.6,0.3-0.6,0.6s0.3,0.6,0.6,0.6h32.3c0.3,0,0.6-0.3,0.6-0.6
			C40.5,42.8,40.2,42.6,39.9,42.6z"/>
		<path class="st1" d="M39.9,44.2H7.6c-0.6,0-1.1-0.5-1.1-1.1S7,42,7.6,42h32.3c0.6,0,1.1,0.5,1.1,1.1S40.5,44.2,39.9,44.2z
			 M7.6,43.1C7.6,43.1,7.5,43.1,7.6,43.1c-0.1,0.1,0,0.2,0,0.2h32.3c0,0,0.1,0,0.1-0.1c0,0,0-0.1-0.1-0.1
			C39.9,43.1,7.6,43.1,7.6,43.1z"/>
	</g>
	<g>
		<path class="st1" d="M47.5,42.6h-4.6c-0.3,0-0.6,0.3-0.6,0.6s0.3,0.6,0.6,0.6h4.6c0.3,0,0.6-0.3,0.6-0.6
			C48.1,42.8,47.8,42.6,47.5,42.6z"/>
		<path class="st1" d="M47.5,44.2h-4.6c-0.6,0-1.1-0.5-1.1-1.1s0.5-1.1,1.1-1.1h4.6c0.6,0,1.1,0.5,1.1,1.1S48.1,44.2,47.5,44.2z
			 M42.8,43.1L42.8,43.1c-0.1,0.1,0,0.2,0,0.2h4.6c0,0,0.1,0,0.1-0.1c0,0,0-0.1-0.1-0.1C47.4,43.1,42.8,43.1,42.8,43.1z"/>
	</g>
	<g>
		<path class="st1" d="M25.7,47H3.2c-0.3,0-0.6,0.3-0.6,0.6s0.3,0.6,0.6,0.6h22.5c0.3,0,0.6-0.3,0.6-0.6S26,47,25.7,47z"/>
		<path class="st1" d="M25.7,48.7H3.2c-0.6,0-1.1-0.5-1.1-1.1s0.5-1.1,1.1-1.1h22.5c0.6,0,1.1,0.5,1.1,1.1S26.3,48.7,25.7,48.7z
			 M3.2,47.5C3.1,47.5,3.1,47.5,3.2,47.5c-0.1,0.1,0,0.2,0,0.2h22.5c0,0,0.1,0,0.1-0.1s0-0.1-0.1-0.1C25.7,47.5,3.2,47.5,3.2,47.5z"
			/>
	</g>
	<g>
		<path class="st1" d="M31.8,47h-3.2c-0.3,0-0.6,0.3-0.6,0.6s0.3,0.6,0.6,0.6h3.2c0.3,0,0.6-0.3,0.6-0.6S32.2,47,31.8,47z"/>
		<path class="st1" d="M31.8,48.7h-3.2c-0.6,0-1.1-0.5-1.1-1.1s0.5-1.1,1.1-1.1h3.2c0.6,0,1.1,0.5,1.1,1.1S32.4,48.7,31.8,48.7z
			 M28.6,47.5C28.6,47.5,28.5,47.5,28.6,47.5c-0.1,0.1,0,0.2,0,0.2h3.2c0,0,0.1,0,0.1-0.1s0-0.1-0.1-0.1
			C31.8,47.5,28.6,47.5,28.6,47.5z"/>
	</g>
</g>
</svg>
