<?xml version="1.0" encoding="utf-8"?>
<!-- Generator: Adobe Illustrator 25.2.3, SVG Export Plug-In . SVG Version: 6.00 Build 0)  -->
<svg version="1.1" id="圖層_1" xmlns="http://www.w3.org/2000/svg" xmlns:xlink="http://www.w3.org/1999/xlink" x="0px" y="0px"
	 viewBox="0 0 85 85" style="enable-background:new 0 0 85 85;" xml:space="preserve">
<style type="text/css">
	.st0{fill:#458DA7;}
	.st1{fill:#FFFFFF;}
	.st2{fill:#D98239;}
</style>
<g>
	<g>
		<path class="st0" d="M37.1,15.3l-0.2-1.4c-2,0.3-4,0.8-5.8,1.6l0.6,1.3C33.4,16,35.2,15.5,37.1,15.3z"/>
	</g>
	<g>
		<path class="st0" d="M44.2,15.5l0.3-1.4c-2-0.4-4-0.5-6-0.4l0.1,1.4C40.4,15,42.3,15.1,44.2,15.5z"/>
	</g>
	<g>
		<path class="st0" d="M51.5,16.6c-1.8-1-3.7-1.7-5.6-2.2l-0.4,1.4c1.8,0.5,3.6,1.2,5.3,2.1L51.5,16.6z"/>
	</g>
	<g>
		<path class="st0" d="M62.9,34.5l1.4-0.2c-0.3-2-0.9-4-1.7-5.8L61.3,29C62.1,30.7,62.6,32.6,62.9,34.5z"/>
	</g>
	<g>
		<path class="st0" d="M64.5,35.7l-1.4,0.1c0.1,0.8,0.1,1.7,0.1,2.5c0,1.1-0.1,2.1-0.2,3.2l1.4,0.2c0.1-1.1,0.2-2.2,0.2-3.4
			C64.6,37.5,64.6,36.6,64.5,35.7z"/>
	</g>
	<g>
		<path class="st0" d="M52.8,17.3L52,18.6c1.6,1,3.1,2.2,4.4,3.5l1-1C56.1,19.6,54.5,18.4,52.8,17.3z"/>
	</g>
	<g>
		<path class="st0" d="M61.2,48.4l1.3,0.6c0.8-1.8,1.3-3.8,1.7-5.7L62.8,43C62.5,44.8,61.9,46.6,61.2,48.4z"/>
	</g>
	<g>
		<path class="st0" d="M60.7,27.8l1.3-0.7c-0.5-0.9-1-1.7-1.5-2.5c-0.6-0.8-1.2-1.6-1.9-2.4l-1.1,1c0.6,0.7,1.2,1.5,1.8,2.3
			C59.8,26.1,60.3,26.9,60.7,27.8z"/>
	</g>
	<g>
		<path class="st0" d="M59.3,52.1l1.2,0.8c0.5-0.8,1-1.6,1.4-2.5l-1.3-0.6C60.2,50.5,59.8,51.3,59.3,52.1z"/>
	</g>
	<g>
		<path class="st0" d="M28.8,18.4c0.5-0.4,1.1-0.7,1.7-1l-0.7-1.3c-0.6,0.3-1.2,0.7-1.8,1.1l-2.1-3L22.1,22l8.6-0.9L28.8,18.4z"/>
	</g>
	<g>
		<path class="st0" d="M39.7,23.9c-2,0-3.8,0.4-5.6,1.2c-3.4,1.5-6.1,4.3-7.4,7.8s-1.3,7.3,0.2,10.7c2.2,5.1,7.3,8.4,12.8,8.4
			c2,0,3.8-0.4,5.6-1.2c3.4-1.5,6.1-4.3,7.4-7.8c1.4-3.5,1.3-7.3-0.2-10.7C50.3,27.2,45.3,23.9,39.7,23.9z M50,41.9
			c-1.1,2.7-3.1,4.9-5.8,6.1c-1.4,0.6-2.9,0.9-4.4,0.9c-4.4,0-8.3-2.6-10.1-6.6c-1.2-2.7-1.3-5.7-0.2-8.4s3.1-4.9,5.8-6.1
			c1.4-0.6,2.9-0.9,4.4-0.9c4.4,0,8.3,2.6,10.1,6.6C51,36.1,51.1,39.1,50,41.9z"/>
	</g>
	<g>
		<circle class="st0" cx="39.7" cy="37.9" r="6"/>
	</g>
</g>
<g>
	<g>
		<path class="st1" d="M39.2,41.4c-0.5,0-0.9-0.1-1.3-0.1c-0.4-0.1-0.7-0.2-1-0.3v-1.4c0.2,0.1,0.4,0.1,0.5,0.2s0.4,0.1,0.5,0.1
			s0.4,0.1,0.6,0.1c0.2,0,0.4,0,0.7,0v-1.5c-0.3,0-0.6-0.1-0.9-0.2c-0.3-0.1-0.6-0.2-0.8-0.3s-0.4-0.3-0.6-0.6
			c-0.1-0.2-0.2-0.5-0.2-0.9c0-0.3,0.1-0.6,0.2-0.8c0.1-0.2,0.3-0.4,0.5-0.6c0.2-0.2,0.5-0.3,0.8-0.4c0.3-0.1,0.6-0.2,1-0.2v-0.7
			h1.1v0.7c0.3,0,0.7,0.1,1,0.1c0.4,0.1,0.7,0.1,1,0.2v1.4c-0.7-0.2-1.4-0.4-2-0.4v1.6c0.3,0,0.6,0.1,0.9,0.2
			c0.3,0.1,0.5,0.2,0.8,0.3c0.2,0.1,0.4,0.3,0.6,0.6c0.1,0.2,0.2,0.5,0.2,0.9c0,0.6-0.2,1.1-0.6,1.4c-0.4,0.3-1,0.6-1.8,0.6v0.7
			h-1.1L39.2,41.4L39.2,41.4z M38.3,36.4c0,0.2,0.1,0.3,0.2,0.4c0.2,0.1,0.4,0.2,0.7,0.2v-1.3c-0.3,0-0.6,0.1-0.7,0.2
			C38.4,36.1,38.3,36.3,38.3,36.4z M41.2,39.3c0-0.2-0.1-0.3-0.2-0.4c-0.1-0.1-0.4-0.2-0.7-0.2V40C40.9,39.9,41.2,39.7,41.2,39.3z"
			/>
	</g>
</g>
<g>
	<g>
		<g>
			<g>
				<path class="st2" d="M37.6,67.5c-2.1,0-4.2-0.2-6.3-0.7c-7.4-1.7-13.6-6.1-17.7-12.5C6.5,43,8.4,28,18,18.8
					c0.1-0.1,0.3-0.2,0.5-0.2s0.4,0.1,0.5,0.2l6,6.3c0.3,0.3,0.3,0.7,0,1c-6.2,5.9-7.4,15.5-2.8,22.8c3.3,5.3,9.1,8.5,15.4,8.5
					c3,0,5.9-0.7,8.5-2.1l-1.8-2.8c-0.1-0.2-0.1-0.5,0-0.7s0.4-0.4,0.7-0.3l14.1,1c0.2,0,0.4,0.1,0.5,0.3s0.1,0.4,0.1,0.6l-5.1,13.4
					c-0.1,0.2-0.3,0.4-0.6,0.4s-0.5-0.1-0.7-0.3l-1.9-3c-3.1,1.7-6.4,2.9-9.8,3.4C40.4,67.4,39,67.5,37.6,67.5z M18.5,20.3
					C9.8,29.1,8.2,43,14.8,53.5c3.8,6.1,9.8,10.3,16.8,11.9c3.3,0.7,6.6,0.9,9.9,0.4c3.5-0.5,6.8-1.7,9.9-3.6c0.3-0.2,0.8-0.1,1,0.2
					l1.5,2.4l4.2-11.2l-11.8-0.8l1.4,2.3c0.1,0.2,0.1,0.4,0.1,0.5c0,0.2-0.2,0.3-0.3,0.4c-3,1.8-6.4,2.7-9.9,2.7
					c-6.8,0-13-3.4-16.6-9.1c-4.8-7.6-3.7-17.6,2.5-24L18.5,20.3z"/>
				<path class="st2" d="M37.6,68c-2.2,0-4.3-0.2-6.4-0.7c-7.5-1.7-13.9-6.2-18-12.7C6,43,7.8,27.8,17.7,18.4
					c0.2-0.2,0.5-0.4,0.9-0.3c0.3,0,0.6,0.1,0.8,0.4l6,6.3c0.2,0.2,0.3,0.5,0.3,0.9c0,0.3-0.1,0.6-0.4,0.8c-6,5.8-7.2,15.1-2.7,22.2
					c3.3,5.2,8.9,8.3,15,8.3c2.7,0,5.4-0.6,7.8-1.8l-1.5-2.4c-0.2-0.4-0.2-0.9,0-1.3c0.2-0.4,0.6-0.6,1.1-0.6l14.1,1
					c0.4,0,0.7,0.2,0.9,0.5s0.3,0.7,0.1,1.1L55,66.9c-0.2,0.4-0.6,0.7-1,0.8c-0.4,0.1-0.9-0.2-1.1-0.5l-1.6-2.6
					c-3,1.6-6.2,2.7-9.5,3.2C40.4,67.9,39,68,37.6,68z M18.5,19.1c0,0-0.1,0-0.1,0.1c-9.5,9-11.3,23.7-4.3,34.8
					c3.9,6.3,10.1,10.6,17.3,12.3c3.4,0.8,6.9,0.9,10.2,0.4c3.4-0.5,6.6-1.6,9.6-3.3l0.4-0.2l2.2,3.4c0,0,0.1,0.1,0.2,0.1
					c0.1,0,0.2-0.1,0.2-0.1l5.1-13.4c0-0.1,0-0.1,0-0.2c0-0.1-0.1-0.1-0.2-0.1l-14.1-1c-0.1,0-0.1,0-0.2,0.1c0,0.1,0,0.1,0,0.2
					l2.1,3.3l-0.5,0.3c-2.7,1.4-5.7,2.2-8.8,2.2c-6.5,0-12.4-3.3-15.9-8.7c-4.7-7.5-3.5-17.4,2.9-23.5c0.1-0.1,0.1-0.2,0-0.3l-6-6.3
					C18.6,19.1,18.5,19.1,18.5,19.1z M37.6,66.6c-2,0-4.1-0.2-6.1-0.7c-7.1-1.6-13.2-5.9-17.1-12.1C7.7,43.1,9.3,28.9,18.1,20
					l0.4-0.4l5.7,6l-0.3,0.3c-6.2,6.3-7.2,16-2.5,23.5c3.5,5.6,9.6,8.9,16.2,8.9c3.4,0,6.7-0.9,9.6-2.6l0.1-0.1c0,0,0-0.1,0-0.2
					l-2-3.1l13.5,0.9L54,66l-2-3.3c-0.1-0.1-0.2-0.1-0.3-0.1c-3.1,1.9-6.5,3.1-10.1,3.6C40.3,66.5,38.9,66.6,37.6,66.6z M18.5,21
					c-8.2,8.6-9.6,22.1-3.2,32.2c3.8,6,9.6,10.1,16.5,11.7c3.2,0.7,6.5,0.9,9.7,0.4c3.4-0.5,6.7-1.7,9.7-3.5
					c0.6-0.3,1.3-0.2,1.6,0.4l1,1.6l3.7-9.6l-10.2-0.7l0.9,1.5c0.2,0.3,0.2,0.6,0.2,0.9c-0.1,0.3-0.3,0.6-0.6,0.8
					c-3.1,1.8-6.6,2.8-10.1,2.8c-7,0-13.3-3.5-17-9.4c-4.9-7.8-3.9-17.7,2.3-24.4L18.5,21z"/>
			</g>
		</g>
		<g>
			<path class="st2" d="M75.6,13.3c-0.1-0.2-0.3-0.4-0.5-0.4l-5-0.3c0.2-0.4,0.1-0.8-0.2-1.2c-0.3-0.3-0.8-0.4-1.1-0.3l0.2-5
				c0-0.2-0.1-0.5-0.3-0.6c-0.2-0.1-0.5-0.1-0.6,0.1l-7.2,6.6c-0.1,0.1-0.2,0.3-0.2,0.4l-0.2,6L41,36.4c-0.4,0.4-0.5,1-0.1,1.5
				c0.4,0.4,1,0.5,1.5,0.1l19.3-17.6l6,0.3l0,0c0.1,0,0.3-0.1,0.4-0.2l7.2-6.6C75.6,13.8,75.6,13.6,75.6,13.3z M61.7,13.1l6-5.5
				l-0.2,4.6l-6,5.5L61.7,13.1z M67.6,19.5L63,19.2l6-5.5l4.6,0.3L67.6,19.5z"/>
			<path class="st2" d="M41.7,38.7L41.7,38.7c-0.5,0-0.9-0.2-1.1-0.5c-0.6-0.6-0.5-1.6,0.1-2.2l19.2-17.5l0.2-5.8
				c0-0.3,0.1-0.6,0.4-0.8l7.2-6.6C68,5,68.5,4.9,68.9,5.1c0.4,0.2,0.6,0.6,0.6,1l-0.2,4.4c0.4,0,0.7,0.2,1,0.5s0.4,0.7,0.4,1
				l4.4,0.3c0.4,0,0.8,0.3,1,0.7c0.1,0.4,0,0.9-0.3,1.2l-7.2,6.6c-0.2,0.2-0.5,0.3-0.7,0.3L62,20.8L42.8,38.3
				C42.5,38.6,42.1,38.7,41.7,38.7z M68.4,6.2L68.4,6.2L68.4,6.2l-7.3,6.6L60.8,19l-0.2,0.1L41.4,36.8c-0.2,0.2-0.2,0.5,0,0.8
				c0.1,0.1,0.2,0.2,0.4,0.2c0.1,0,0.3,0,0.4-0.1L61.7,20l6.2,0.4l7.3-6.6v-0.1c0,0,0-0.1-0.1-0.1l-5.7-0.3l0.3-0.7
				c0.1-0.2,0.1-0.4-0.1-0.6c-0.2-0.2-0.4-0.2-0.6-0.1L68.3,12L68.4,6.2C68.5,6.2,68.4,6.2,68.4,6.2z M67.8,20l-6-0.3l7-6.4l6,0.3
				L67.8,20z M64.2,18.8l3.2,0.2l4.9-4.5l-3.2-0.2L64.2,18.8z M61,18.9l0.2-6l7-6.4l-0.2,6L61,18.9z M62.2,13.3l-0.1,3.2L67,12
				l0.1-3.2L62.2,13.3z"/>
		</g>
	</g>
</g>
</svg>
