<?xml version="1.0" encoding="utf-8"?>
<!-- Generator: Adobe Illustrator 25.2.3, SVG Export Plug-In . SVG Version: 6.00 Build 0)  -->
<svg version="1.1" id="圖層_1" xmlns="http://www.w3.org/2000/svg" xmlns:xlink="http://www.w3.org/1999/xlink" x="0px" y="0px"
	 viewBox="0 0 85 85" style="enable-background:new 0 0 85 85;" xml:space="preserve">
<style type="text/css">
	.st0{fill:#458DA7;}
	.st1{fill:#D98239;}
</style>
<g>
	<g>
		<path class="st0" d="M52.9,32.9l-10.6-2.7v-0.1c0-1.4-1.1-2.5-2.5-2.5s-2.5,1.1-2.5,2.5c0,0.3,0.1,0.7,0.2,0.9l-6.8,4.7
			c-0.4-0.4-1-0.7-1.7-0.7c-1,0-1.9,0.6-2.3,1.5l-7-1.4c-0.3-0.1-0.6,0.1-0.6,0.4c-0.1,0.3,0.1,0.6,0.4,0.6l7,1.4
			c0,1.3,1.1,2.4,2.5,2.4s2.5-1.1,2.5-2.5c0-0.3-0.1-0.7-0.2-0.9l6.8-4.7c0.4,0.4,1,0.7,1.7,0.7c1,0,1.8-0.6,2.2-1.4L52.6,34h0.1
			c0.2,0,0.5-0.2,0.5-0.4C53.3,33.3,53.2,33,52.9,32.9z"/>
		<path class="st0" d="M28.9,40.6c-1.5,0-2.7-1.1-3-2.5l-6.7-1.3c-0.3-0.1-0.5-0.2-0.7-0.4s-0.2-0.5-0.2-0.8
			c0.1-0.6,0.7-0.9,1.2-0.8l6.7,1.3c0.5-0.9,1.5-1.4,2.6-1.4c0.6,0,1.2,0.2,1.7,0.5l6.2-4.3c-0.1-0.2-0.1-0.5-0.1-0.7
			c0-1.7,1.3-3,3-3c1.6,0,2.8,1.2,3,2.7L53,32.4c0.3,0.1,0.5,0.2,0.6,0.5c0.1,0.2,0.2,0.5,0.1,0.8c-0.1,0.5-0.7,0.9-1.3,0.7
			l-10.3-2.6c-0.6,0.8-1.5,1.3-2.5,1.3c-0.6,0-1.2-0.2-1.7-0.5l-6.2,4.3c0.1,0.2,0.1,0.5,0.1,0.7C31.9,39.3,30.6,40.6,28.9,40.6z
			 M19.5,35.7l7.4,1.5v0.4c0,1.1,0.9,1.9,2,1.9s2-0.9,2-2c0-0.3-0.1-0.5-0.1-0.8l-0.2-0.4l7.5-5.2l0.3,0.3c0.4,0.3,0.9,0.5,1.4,0.5
			c0.7,0,1.4-0.4,1.8-1.1l0.2-0.4l11,2.8v-0.1l-11-2.8v-0.4c0-1.2-0.9-2.1-2-2.1s-2,0.9-2,2c0,0.3,0.1,0.5,0.1,0.8l0.2,0.4l-7.5,5.2
			l-0.3-0.3c-0.4-0.3-0.9-0.5-1.4-0.5c-0.8,0-1.5,0.5-1.8,1.2L26.9,37L19.5,35.7z"/>
	</g>
	<g>
		<path class="st0" d="M68.1,19.3c-1.4,0-2.5,1.1-2.5,2.5c0,0.5,0.1,0.9,0.4,1.3l-9.3,9.1c-0.2,0.2-0.2,0.6,0,0.8
			c0.1,0.1,0.2,0.2,0.4,0.2c0.1,0,0.3-0.1,0.4-0.2l9.3-9.1c0.4,0.3,0.9,0.4,1.4,0.4c1.4,0,2.5-1.1,2.5-2.5
			C70.6,20.4,69.5,19.3,68.1,19.3z"/>
		<path class="st0" d="M57.1,33.6c-0.3,0-0.6-0.1-0.7-0.3c-0.2-0.2-0.3-0.5-0.3-0.7c0-0.3,0.1-0.5,0.3-0.7l9-8.9
			c-0.2-0.4-0.3-0.8-0.3-1.2c0-1.7,1.3-3,3-3s3,1.3,3,3s-1.3,3-3,3c-0.4,0-0.9-0.1-1.3-0.3l-9,8.9C57.6,33.5,57.4,33.6,57.1,33.6z
			 M68.1,19.8c-1.1,0-2,0.9-2,2c0,0.4,0.1,0.7,0.3,1.1l0.2,0.3L57,32.6l9.6-9.4l0.3,0.2c0.3,0.2,0.7,0.3,1.1,0.3c1.1,0,2-0.9,2-2
			S69.2,19.8,68.1,19.8z"/>
	</g>
</g>
<g>
	<g>
		<g>
			<g>
				<path class="st1" d="M53.2,37.3c0.1-0.5,0.2-1.1,0.2-1.6c0.9-9.6-6.1-18.2-15.7-19.1c-0.6-0.1-1.1-0.1-1.7-0.1
					c-8.9,0-16.5,6.9-17.4,15.8c-0.9,9.6,6.1,18.1,15.7,19.1c0.6,0.1,1.1,0.1,1.7,0.1l0,0C44.4,51.5,51.7,45.4,53.2,37.3z M20,32.4
					c0.8-8.2,7.9-14.6,16.1-14.6c0.5,0,1,0,1.6,0.1c8.9,0.9,15.4,8.8,14.5,17.6c-0.3,3.1-1.5,6-3.3,8.3v-6h-3.7v9.4
					c-0.7,0.4-1.3,0.9-2.1,1.2V35.8h-3.7v14c-0.6,0.1-1.2,0.2-1.8,0.3c-0.1,0-0.2,0-0.4,0v-8.7h-3.7v8.5C25.2,48.6,19.2,41,20,32.4z
					"/>
				<path class="st1" d="M36.1,52c-0.6,0-1.2,0-1.8-0.1c-4.8-0.5-9.1-2.8-12.1-6.5s-4.5-8.4-4-13.2C19.1,23.1,27,16,36.1,16
					c0.6,0,1.2,0,1.7,0.1c9.9,1,17.1,9.8,16.1,19.6c-0.1,0.5-0.1,1.1-0.2,1.7l0,0C52.1,45.7,44.5,52,36.1,52z M36.1,17
					c-8.6,0-16.1,6.7-16.9,15.3c-0.4,4.5,0.9,8.9,3.8,12.4s7,5.7,11.5,6.1c0.6,0.1,1.1,0.1,1.7,0.1c8,0,15.1-5.9,16.7-13.7
					c0.1-0.6,0.2-1.1,0.2-1.6C54,26.3,47.2,18,37.9,17C37.2,17,36.6,17,36.1,17z M36.8,50.6v-8.7h-2.7v8.6l-0.6-0.1
					c-8.7-1.4-14.8-9.3-14-18l0,0c0.8-8.4,8.1-15,16.6-15c0.5,0,1.1,0,1.6,0.1c9.1,0.9,15.8,9.1,14.9,18.2c-0.3,3.1-1.5,6.1-3.5,8.6
					l-0.9,1.1v-6.9h-2.7v9.2l-0.2,0.1c-0.7,0.5-1.4,0.9-2.1,1.2l-0.7,0.4v-13h-2.7v13.9l-0.4,0.1c-0.7,0.1-1.3,0.2-1.8,0.3
					c-0.1,0-0.1,0-0.2,0L36.8,50.6z M33.1,40.9h4.7v8.7c0.4,0,0.7-0.1,1.1-0.2V35.3h4.7v12.4c0.4-0.2,0.7-0.4,1.1-0.6v-9.6h4.7v4.9
					c1.3-2.1,2.1-4.4,2.4-6.8c0.8-8.6-5.5-16.3-14-17.1c-0.5,0-1-0.1-1.5-0.1c-8,0-14.8,6.2-15.6,14.1c-0.8,8,4.7,15.3,12.6,16.8
					v-8.4H33.1z"/>
			</g>
			<g>
				<path class="st1" d="M67.4,63.6L56.9,52c-0.7-0.9-2-1-2.9-0.3L51.8,49c2.3-2.4,4.1-5.4,5.1-8.8c0.4-1.3,0.6-2.7,0.8-4
					c0.6-5.8-1.1-11.4-4.8-15.9s-8.9-7.2-14.6-7.8c-0.7-0.1-1.4-0.1-2.1-0.1C25,12.4,15.8,20.8,14.7,32C13.4,43.8,22.1,54.4,34,55.6
					c0.7,0.1,1.4,0.1,2.1,0.1c4.3,0,8.2-1.2,11.6-3.4L50,55c-0.4,0.4-0.7,0.8-0.7,1.4c-0.1,0.5,0.1,1.1,0.4,1.5l9,12.7
					c1,1.2,2.4,2,3.9,2.1c0.2,0,0.4,0,0.5,0c2.8,0,5.3-2.2,5.6-5C68.9,66.2,68.4,64.6,67.4,63.6z M34.1,54.2
					c-11.2-1.1-19.3-11-18.3-22.2c1-10.5,9.7-18.4,20.2-18.4c0.7,0,1.3,0,2,0.1c5.4,0.5,10.3,3.1,13.7,7.3s5.1,9.5,4.5,14.9
					c-0.5,4.9-2.7,9.2-5.9,12.5l0,0c-0.9,0.9-1.9,1.7-2.9,2.4l0,0c-3.2,2.2-7.1,3.5-11.3,3.5C35.5,54.3,34.8,54.3,34.1,54.2z
					 M50.8,49.9l2.1,2.6l-2,1.6l-2.2-2.6C49.5,51,50.2,50.5,50.8,49.9z M63.2,71.4c-0.1,0-0.3,0-0.4,0c-1.2-0.1-2.2-0.7-3-1.6
					l-9-12.7c-0.1-0.2-0.2-0.3-0.2-0.5s0.1-0.4,0.3-0.5l4-3.3c0.1-0.1,0.3-0.2,0.5-0.2s0.4,0.1,0.6,0.3l10.5,11.6
					c0.7,0.7,1.1,2,1,3.1C67.2,69.7,65.4,71.4,63.2,71.4z"/>
				<path class="st1" d="M63.2,73.2c-0.2,0-0.4,0-0.6,0c-1.7-0.2-3.2-0.9-4.3-2.3l-9.1-12.8c-0.4-0.5-0.6-1.1-0.5-1.8
					c0.1-0.5,0.2-0.9,0.6-1.3l-1.7-2c-3.5,2.1-7.4,3.2-11.5,3.2c-0.7,0-1.4,0-2.2-0.1c-5.9-0.6-11.2-3.4-15-8S13.4,37.8,14,31.9
					c1.1-11.4,10.6-20,22-20c0.7,0,1.5,0,2.2,0.1c5.9,0.6,11.2,3.4,15,8s5.5,10.3,4.9,16.2c-0.1,1.4-0.4,2.8-0.8,4.1
					c-0.9,3.2-2.6,6.2-4.9,8.7l1.7,2.1c1-0.5,2.4-0.3,3.1,0.7l10.5,11.5c1.1,1.1,1.7,2.9,1.5,4.5C69,70.8,66.3,73.2,63.2,73.2z
					 M47.9,51.6l2.8,3.5l-0.4,0.3c-0.3,0.3-0.5,0.6-0.6,1c0,0.4,0.1,0.8,0.3,1.1l9.1,12.8c0.9,1.1,2.2,1.8,3.6,1.9
					c0.2,0,0.3,0,0.5,0c2.6,0,4.8-2,5.1-4.6c0.1-1.3-0.4-2.8-1.2-3.7l0,0L56.5,52.3C56,51.6,55,51.5,54.3,52L54,52.4l-2.8-3.5
					l0.3-0.3c2.3-2.4,4-5.4,5-8.6c0.4-1.3,0.6-2.6,0.8-4c0.6-5.6-1.1-11.1-4.7-15.5c-3.6-4.4-8.7-7.1-14.3-7.6
					c-0.7-0.1-1.4-0.1-2.1-0.1c-10.9,0-20,8.2-21,19.1c-0.5,5.6,1.1,11.1,4.7,15.5s8.7,7.1,14.3,7.6c0.7,0.1,1.4,0.1,2.1,0.1
					c4,0,8-1.1,11.4-3.3L47.9,51.6z M63.2,71.9c-0.1,0-0.3,0-0.5,0c-1.3-0.1-2.5-0.7-3.3-1.8l-9.1-12.8c-0.2-0.2-0.3-0.5-0.3-0.9
					s0.2-0.6,0.5-0.8l4-3.3c0.3-0.2,0.5-0.3,0.8-0.3c0.2,0,0.6,0.1,1,0.5l10.5,11.6c0.8,0.8,1.3,2.2,1.1,3.5
					C67.7,70,65.6,71.9,63.2,71.9z M55.3,53.1c0,0-0.1,0-0.2,0.1l-4,3.3C51,56.6,51,56.6,51,56.7s0,0.1,0.1,0.2l9.1,12.8
					c0.7,0.8,1.6,1.3,2.6,1.4c0.1,0,0.2,0,0.4,0c1.9,0,3.5-1.5,3.7-3.4c0.1-1-0.3-2.1-0.9-2.7L55.5,53.2
					C55.5,53.2,55.4,53.1,55.3,53.1z M50.9,54.9l-2.8-3.4l0.4-0.3c0.7-0.5,1.4-1,2-1.6l0.4-0.4l2.8,3.4L50.9,54.9z M49.6,51.6
					l1.5,1.8l1.2-1l-1.5-1.8C50.4,51,50,51.3,49.6,51.6z M36.1,54.8c-0.7,0-1.3,0-2-0.1l0,0C22.6,53.6,14.2,43.4,15.3,32
					c1.1-10.7,10-18.8,20.7-18.8c0.7,0,1.4,0,2.1,0.1c5.6,0.5,10.6,3.2,14.1,7.5s5.2,9.7,4.6,15.3c-0.5,4.8-2.6,9.4-6,12.8L50.7,49
					c-0.9,0.9-1.9,1.7-2.9,2.4l-0.1,0.1C44.3,53.6,40.3,54.8,36.1,54.8L36.1,54.8z M34.2,53.7c0.7,0.1,1.3,0.1,1.9,0.1l0,0
					c3.9,0,7.7-1.1,11-3.3l0,0l0.1-0.1c1-0.6,1.9-1.4,2.8-2.3l0.1-0.1c3.2-3.2,5.2-7.5,5.7-12.1c0.5-5.3-1-10.4-4.4-14.5
					s-8.1-6.6-13.4-7.1c-0.7-0.1-1.3-0.1-2-0.1c-10.2,0-18.7,7.7-19.7,17.9C15.3,42.9,23.3,52.7,34.2,53.7L34.2,53.7z"/>
			</g>
		</g>
	</g>
</g>
</svg>
