<?xml version="1.0" encoding="utf-8"?>
<!-- Generator: Adobe Illustrator 25.2.3, SVG Export Plug-In . SVG Version: 6.00 Build 0)  -->
<svg version="1.1" id="Capa_1" xmlns="http://www.w3.org/2000/svg" xmlns:xlink="http://www.w3.org/1999/xlink" x="0px" y="0px"
	 viewBox="0 0 100 100" style="enable-background:new 0 0 100 100;" xml:space="preserve">
<style type="text/css">
	.st0{fill:#D98239;}
	.st1{fill:#231815;}
</style>
<g>
	<g>
		<g>
			<g>
				<path class="st0" d="M97.1,49.4C96.8,23.6,75.8,2.9,50,2.9l0,0v46.6L97.1,49.4L97.1,49.4z"/>
				<path class="st0" d="M50,2.9C24.1,2.9,3.2,23.6,2.9,49.4H50V2.9z"/>
				<path class="st0" d="M50,49.4v47.7l0,0C76,97.1,97.1,76,97.1,50c0-0.2,0-0.4,0-0.6H50L50,49.4z"/>
			</g>
		</g>
	</g>
</g>
<path class="st1" d="M50,91.8C26.9,91.8,8.2,73.1,8.2,50S26.9,8.2,50,8.2S91.8,27,91.8,50C91.8,73.1,73.1,91.8,50,91.8z M50,10.3
	c-21.9,0-39.7,17.8-39.7,39.7S28.1,89.7,50,89.7S89.7,71.9,89.7,50S71.9,10.3,50,10.3z"/>
</svg>
