<?xml version="1.0" encoding="utf-8"?>
<!-- Generator: Adobe Illustrator 25.2.3, SVG Export Plug-In . SVG Version: 6.00 Build 0)  -->
<svg version="1.1" id="Capa_1" xmlns="http://www.w3.org/2000/svg" xmlns:xlink="http://www.w3.org/1999/xlink" x="0px" y="0px"
	 viewBox="0 0 100 100" style="enable-background:new 0 0 100 100;" xml:space="preserve">
<style type="text/css">
	.st0{fill:#E2AE46;}
	.st1{fill:#231815;}
</style>
<g>
	<g>
		<path class="st0" d="M52.7,2.9C26.8,2.9,5.8,23.7,5.5,49.4h47.1V2.9H52.7z"/>
		<path class="st0" d="M5.5,49.4c0,0.2,0,0.4,0,0.6c0,26,21.1,47.1,47.1,47.1V49.4H5.5z"/>
	</g>
	<path class="st1" d="M52.7,91.8C29.6,91.8,10.9,73,10.9,50c0-23.1,18.8-41.8,41.8-41.8C75.8,8.2,94.5,27,94.5,50
		C94.5,73.1,75.7,91.8,52.7,91.8z M52.7,10.3C30.8,10.3,13,28.1,13,50s17.8,39.7,39.7,39.7S92.4,71.9,92.4,50S74.6,10.3,52.7,10.3z"
		/>
</g>
</svg>
