<svg xmlns="http://www.w3.org/2000/svg" viewBox="0 0 110 110"><defs><style>.cls-1{fill:#afafaf;}.cls-2{fill:#e2ae46;}.cls-3,.cls-6{fill:#fff;}.cls-4{fill:#40220f;}.cls-5{fill:none;}.cls-5,.cls-6{stroke:#40220f;stroke-miterlimit:10;stroke-width:2px;}</style></defs><g id="BG"><circle class="cls-1" cx="55" cy="55" r="54"/><circle class="cls-2" cx="55" cy="55" r="49.53"/><circle class="cls-3" cx="55" cy="55" r="28.88"/><path class="cls-4" d="M55,84.88A29.88,29.88,0,1,1,84.88,55,29.92,29.92,0,0,1,55,84.88Zm0-57.76A27.88,27.88,0,1,0,82.88,55,27.92,27.92,0,0,0,55,27.12Z"/><rect class="cls-4" x="26.12" y="54" width="57.76" height="2"/><rect class="cls-4" x="54" y="26.12" width="2" height="57.76"/><path class="cls-4" d="M55,84.88c-8.71,0-15.54-13.13-15.54-29.88S46.29,25.12,55,25.12,70.54,38.25,70.54,55,63.71,84.88,55,84.88Zm0-57.76c-7.34,0-13.54,12.77-13.54,27.88S47.66,82.88,55,82.88,68.54,70.11,68.54,55,62.34,27.12,55,27.12Z"/><circle class="cls-5" cx="55" cy="55" r="40.15"/><circle class="cls-6" cx="83.88" cy="26.36" r="3.95"/><path class="cls-4" d="M28.45,83.37a6.56,6.56,0,1,0-10.56,0h0a6.88,6.88,0,0,0,1,1.09l4.28,4.63,4.28-4.63a6.88,6.88,0,0,0,1-1.09Z"/><circle class="cls-3" cx="23.17" cy="79.49" r="2.33"/></g></svg>