<?xml version="1.0" encoding="utf-8"?>
<!-- Generator: Adobe Illustrator 25.2.3, SVG Export Plug-In . SVG Version: 6.00 Build 0)  -->
<svg version="1.1" id="圖層_1" xmlns="http://www.w3.org/2000/svg" xmlns:xlink="http://www.w3.org/1999/xlink" x="0px" y="0px"
	 viewBox="0 0 110 110" style="enable-background:new 0 0 110 110;" xml:space="preserve">
<style type="text/css">
	.st0{fill:#AFAFAF;}
	.st1{fill:#E2AE46;}
	.st2{fill:#FFFFFF;stroke:#40210F;stroke-miterlimit:10;}
	.st3{fill:#D98239;}
</style>
<circle class="st0" cx="55" cy="55.8" r="54"/>
<g>
	<circle class="st1" cx="55" cy="55.7" r="49.7"/>
	<path class="st2" d="M27.2,33h53.4c2,0,3.6,1.6,3.6,3.6c0,0,0,0,0,0v36l0,0H23.7l0,0v-36C23.7,34.6,25.2,33,27.2,33
		C27.2,33,27.2,33,27.2,33z"/>
	<path class="st2" d="M15,72.6h77.9l0,0v0.6c0,3.4-2.8,6.2-6.2,6.2H21.3c-3.4,0-6.2-2.8-6.2-6.2L15,72.6L15,72.6z"/>
	<rect x="26.2" y="35.6" class="st3" width="55.3" height="34.3"/>
	<path class="st2" d="M88.1,29H67.6c-1.6,0-2.9,1.3-2.9,2.9v17.2c0,1.6,1.3,2.9,2.9,2.9l0,0h3.7l-1,5.1l4.4-5.1h13.3
		c1.6,0,2.9-1.3,2.9-2.9V31.9C91,30.3,89.7,29,88.1,29L88.1,29z"/>
	<polygon class="st3" points="73.3,34.6 73.3,45.6 82.5,40.1 	"/>
	<path class="st2" d="M37.1,64.9H48c4.2,0,7.5,3.4,7.5,7.5v0.1l0,0H29.6l0,0v-0.1C29.6,68.3,33,64.9,37.1,64.9z"/>
	<path class="st2" d="M39.7,61.7h5.9l0,0V64c0,1.6-1.3,2.9-2.9,2.9l0,0c-1.6,0-2.9-1.3-2.9-2.9V61.7L39.7,61.7z"/>
	<ellipse class="st2" cx="42.6" cy="54.4" rx="8.4" ry="8.7"/>
	<path class="st2" d="M34.2,56.1c-1.7-1.1-2.7-2.9-2.8-4.9c-0.3-3.4,0.2-6.4,1.4-7.8c1.2-1.7,3.2-2.7,5.3-2.7
		c3.1-0.2,15.4-0.8,16.4,0.3c0.9,1.1,0,5.3-1,6.2c-1,0.9-2.7,2.3-3.9,2.3c-1.2,0-9.6-1.7-10.9-0.9C37.3,49.5,35.6,56.2,34.2,56.1z"
		/>
</g>
</svg>
