<svg xmlns="http://www.w3.org/2000/svg" viewBox="0 0 110 110"><defs><style>.cls-1{fill:#afafaf;}.cls-2{fill:#e2ae46;}.cls-3{fill:#fefcfc;}.cls-4,.cls-5,.cls-6{fill:none;stroke:#40220f;stroke-miterlimit:10;}.cls-4{stroke-width:2px;}.cls-5,.cls-6{stroke-width:3px;}.cls-5{stroke-dasharray:5.91 5.91;}.cls-6{stroke-dasharray:7.72 4.83;}.cls-7{fill:#d98339;}</style></defs><g id="BG"><circle class="cls-1" cx="54.74" cy="55.29" r="54"/><circle class="cls-2" cx="54.74" cy="55.29" r="49.53"/><circle class="cls-3" cx="55.12" cy="56.04" r="11.16"/><circle class="cls-4" cx="55.12" cy="56.04" r="38.66"/><circle class="cls-5" cx="55.12" cy="56.04" r="31.98" transform="translate(-2.11 109.93) rotate(-88.76)"/><circle class="cls-6" cx="55.12" cy="56.04" r="21.97" transform="translate(-2.59 109.42) rotate(-88.25)"/><polygon class="cls-3" points="49.17 20.44 61.07 20.44 55.12 35.95 49.17 20.44"/><rect class="cls-3" x="53.63" y="8.93" width="2.98" height="15.51" rx="1.28"/><polygon class="cls-3" points="91.19 49.35 91.19 61.24 75.69 55.3 91.19 49.35"/><rect class="cls-3" x="93.45" y="47.54" width="2.98" height="15.51" rx="1.28" transform="translate(150.24 -39.65) rotate(90)"/><polygon class="cls-3" points="18.37 59.75 18.37 47.86 33.87 53.8 18.37 59.75"/><rect class="cls-3" x="13.12" y="46.05" width="2.98" height="15.51" rx="1.28" transform="translate(-39.19 68.42) rotate(-90)"/><circle class="cls-7" cx="55.12" cy="56.04" r="5.5"/><path class="cls-3" d="M47.4,69.59H64a12,12,0,0,1,12,12V96.33a0,0,0,0,1,0,0H35.4a0,0,0,0,1,0,0V81.59A12,12,0,0,1,47.4,69.59Z"/></g></svg>