<?xml version="1.0" encoding="utf-8"?>
<!-- Generator: Adobe Illustrator 25.2.3, SVG Export Plug-In . SVG Version: 6.00 Build 0)  -->
<svg version="1.1" id="圖層_1" xmlns="http://www.w3.org/2000/svg" xmlns:xlink="http://www.w3.org/1999/xlink" x="0px" y="0px"
	 viewBox="0 0 345 109.8" style="enable-background:new 0 0 345 109.8;" xml:space="preserve">
<style type="text/css">
	.st0{fill:#C9C9CA;}
	.st1{fill:#FFFFFF;}
	.st2{fill:none;stroke:#C9C9CA;stroke-miterlimit:10;}
	.st3{fill:#606060;}
</style>
<path class="st0" d="M24.7,19.8h294.9c10.7,0,19.4,8.7,19.4,19.4v45c0,10.7-8.7,19.4-19.4,19.4H24.7c-10.7,0-19.4-8.7-19.4-19.4v-45
	C5.3,28.5,14,19.8,24.7,19.8z"/>
<path class="st1" d="M29.3,7.2h291c11,0,19.9,8.9,19.9,19.9v46.1c0,11-8.9,19.9-19.9,19.9h-291c-11,0-19.9-8.9-19.9-19.9V27.1
	C9.4,16.2,18.3,7.2,29.3,7.2z"/>
<path class="st2" d="M29.3,7.2h291c11,0,19.9,8.9,19.9,19.9v46.1c0,11-8.9,19.9-19.9,19.9h-291c-11,0-19.9-8.9-19.9-19.9V27.1
	C9.4,16.2,18.3,7.2,29.3,7.2z"/>
<g>
	<path class="st3" d="M109.4,35.3c1.2,1.7,2.6,3.8,3.3,5.2l-2.3,1.2c-0.2-0.5-0.6-1.1-0.9-1.8c-5.3,1.3-6.2,1.6-6.8,1.9
		c-0.2-0.6-0.8-1.7-1.3-2.2c0.5-0.3,1-1,1-2.1V27c-0.5-0.7-1.2-1.6-1.6-2.1c1.5-1.3,2.9-3.3,3.6-5.3l2.8,0.8
		c-0.1,0.3-0.2,0.5-0.3,0.8h5v2.4h-3.7c0.7,0.6,1.3,1.2,1.7,1.7l-1.5,1.3h3.4v8.6h-6.8v3.2l3.1-0.7c-0.3-0.5-0.7-1-0.9-1.4
		L109.4,35.3z M105.5,23.7c-0.7,1.1-1.5,2.1-2.2,3h4.1c-0.5-0.6-1.2-1.3-1.7-1.8l1.4-1.2H105.5z M109.1,28.8h-4.1V30h4.1V28.8z
		 M109.1,33.1v-1h-4.1v1H109.1z M123,23.7h-4c0.6,0.5,1.2,1.1,1.5,1.5l-1.7,1.4h3.4v10c0,1.3-0.2,2-1.2,2.5
		c-0.9,0.4-2.1,0.5-3.9,0.5c-0.1-0.8-0.5-1.9-0.8-2.6c1.1,0,2.3,0,2.6,0c0.4,0,0.5-0.1,0.5-0.4v-7.3h-3.8v13H113V27.5
		c-0.5-0.6-1.5-1.5-2.1-2c1.4-1.4,2.6-3.6,3.2-5.9l2.9,0.7c-0.1,0.3-0.2,0.6-0.3,0.9h6.3V23.7z M118.2,26.6c-0.5-0.6-1.2-1.4-1.9-2
		l1.2-1h-1.8c-0.5,1.1-1.1,2.1-1.7,3H118.2z"/>
	<path class="st3" d="M144.6,27.8c-0.4-0.7-1-1.5-1.8-2.4c-1.7,1.9-4,3.3-6.7,4.4h8.1v12.4h-2.9v-0.8h-9.5v0.9H129V32
		c-0.9,0.2-1.8,0.4-2.7,0.5c-0.4-0.7-1.2-1.9-1.8-2.5c3.5-0.4,7-1.2,9.9-2.3v-7.9h2.8v6.6c1.1-0.7,2.1-1.4,2.8-2.3l2.5,1.1
		c-0.9-1.1-2-2.1-3-3l2.3-1.4c1.9,1.5,4.1,3.8,5.2,5.4L144.6,27.8z M132.7,21.9c-1.1,2.4-2.8,4.8-4.5,6.3c-0.6-0.5-1.8-1.3-2.5-1.7
		c1.7-1.3,3.2-3.3,4.1-5.4L132.7,21.9z M141.3,32h-9.5v1.1h9.5V32z M131.8,36.2h9.5V35h-9.5V36.2z M141.3,39.3v-1.2h-9.5v1.2H141.3z
		"/>
	<path class="st3" d="M157.2,37.7h-4.9v2.1h-2.6V21.3h7.5V37.7z M152.3,23.9v4.2h2.2v-4.2H152.3z M154.5,35.1v-4.5h-2.2v4.5H154.5z
		 M165.9,24.9v2.3h4.8v2.5h-1.8v1.9h2.3v2.5h-2.3v5.3c0,1.4-0.3,2.1-1.2,2.5c-0.9,0.4-2.2,0.5-4,0.5c-0.1-0.8-0.5-1.9-0.9-2.7
		c1.2,0,2.5,0,2.8,0c0.4,0,0.5-0.1,0.5-0.4v-5.2h-8.4v-2.5h8.4v-1.9h-7.7v-2.5h4.6v-2.3h-5.4v-2.5h5.4v-2.6h2.8v2.6h5.4v2.5H165.9z
		 M161,34.4c1,1.2,2.3,2.8,2.9,3.9l-2.5,1.5c-0.6-1-1.8-2.8-2.8-4L161,34.4z"/>
	<path class="st3" d="M177,29.5v12.9h-2.8V20.8h9.2v8.7H177z M177,22.8v1.3h3.7v-1.3H177z M180.7,27.4V26H177v1.4H180.7z M194.5,39
		c0,1.5-0.3,2.4-1.3,2.8c-0.9,0.5-2.3,0.6-4.4,0.6c-0.1-0.6-0.3-1.5-0.6-2.2h-6v1.2h-2.6V30.9h9.3v8.6c0.9,0,1.8,0,2.1,0
		c0.4,0,0.6-0.1,0.6-0.5v-9.4H185v-8.7h9.4V39z M182.2,33v1.4h4V33H182.2z M186.1,38v-1.5h-4V38H186.1z M187.7,22.8v1.3h3.8v-1.3
		H187.7z M191.6,27.5V26h-3.8v1.4H191.6z"/>
	<path class="st3" d="M218,28.2c-1,3.1-2.4,5.9-4.1,8.3c0.7,1.7,1.5,2.7,2.2,2.7c0.6,0,0.9-1.2,1-4.2c0.7,0.7,1.7,1.3,2.4,1.6
		c-0.5,4.5-1.4,5.5-3.7,5.5c-1.7,0-3-1.2-4.1-3.2c-1.2,1.3-2.6,2.4-4.1,3.3c-0.4-0.6-1.5-1.8-2.1-2.4c1.9-1,3.5-2.3,4.9-3.9
		c-0.8-2.7-1.3-6.1-1.7-9.7h-7v2.6h6c0,0,0,0.7,0,1.1c-0.1,5.1-0.2,7.2-0.8,7.9c-0.5,0.6-0.9,0.8-1.7,1c-0.6,0.1-1.7,0.1-2.8,0.1
		c0-0.8-0.4-2-0.8-2.7c0.9,0.1,1.7,0.1,2.1,0.1c0.3,0,0.5,0,0.7-0.3c0.2-0.3,0.3-1.5,0.4-4.5h-3.1c-0.1,3.5-0.6,8.2-2.6,11.2
		c-0.5-0.6-1.8-1.6-2.4-2c1.8-2.9,2-7.1,2-10.2v-7h9.8c0-1.2-0.1-2.4-0.1-3.6h3c0,1.2,0,2.4,0,3.6h3.7c-0.9-0.7-2.1-1.5-3.1-2.1
		l1.7-1.7c1.3,0.7,3.1,1.8,3.9,2.6l-1.2,1.2h2.5v2.8h-7.4c0.2,2.4,0.6,4.7,1,6.6c0.9-1.6,1.7-3.4,2.3-5.3L218,28.2z"/>
	<path class="st3" d="M236.9,27.4c1.5,3.5,4,6.8,6.8,8.7c-0.7,0.6-1.8,1.7-2.3,2.5c-0.9-0.7-1.8-1.5-2.6-2.5v2.1h-5v4.1h-3v-4.1
		h-5.1v-2.1c-0.8,1-1.8,1.9-2.7,2.7c-0.5-0.7-1.4-1.8-2.1-2.3c2.8-1.9,5.3-5.4,6.7-9h-5.9v-2.9h9v-4.6h3v4.6h9.1v2.9H236.9z
		 M230.9,35.4v-7.9h-0.2c-1.1,2.9-2.5,5.7-4.3,7.9H230.9z M238.2,35.4c-1.7-2.3-3.1-5-4.2-7.9h-0.1v7.9H238.2z"/>
	<path class="st3" d="M97.7,57.5c-0.3,0.7-0.6,1.3-1,1.9h11.2v11.9c0,1.4-0.3,2.2-1.3,2.6c-0.9,0.5-2.3,0.5-4.3,0.5
		c-0.1-0.8-0.5-2-0.9-2.8c1.2,0.1,2.6,0.1,3,0.1c0.4,0,0.6-0.1,0.6-0.5v-1.4h-9.1c-0.4,1.8-1.2,3.6-2.7,4.8
		c-0.4-0.6-1.5-1.8-2.1-2.2c2.1-1.8,2.2-4.4,2.2-6.6v-2c-0.9,1-1.9,1.9-3,2.6c-0.4-0.7-1.3-1.7-1.9-2.2c2.4-1.6,4.4-4,5.8-6.7h-5.2
		v-2.7h6.5c0.4-1,0.7-2,1-2.9l3,0.7c-0.2,0.7-0.5,1.5-0.8,2.2h11.8v2.7H97.7z M105.1,67.5v-1.6h-8.6c0,0.5,0,1,0,1.6H105.1z
		 M105.1,62h-8.6v1.5h8.6V62z"/>
	<path class="st3" d="M115.6,68.1c-0.2,2.1-0.5,4.4-1,5.9c-0.4-0.3-1.5-0.6-2-0.7c0.5-1.4,0.8-3.6,0.9-5.5L115.6,68.1z M134.7,71.6
		c0,1.3-0.2,1.9-1,2.3c-0.7,0.4-1.8,0.5-3.3,0.5c-0.1-0.7-0.4-1.8-0.7-2.4c0.8,0,1.7,0,2,0c0.3,0,0.4-0.1,0.4-0.4V55.5h-7.8v19h-2.5
		V66l-1.9,0.8c-0.1-0.3-0.1-0.7-0.3-1c-4.7,0.8-5.5,1-6,1.2c-0.1-0.5-0.5-1.7-0.8-2.3c0.6-0.1,1.1-0.7,1.8-1.6
		c0.3-0.4,0.9-1.1,1.5-2.1c-1.9,0.2-2.4,0.4-2.7,0.5c-0.1-0.5-0.5-1.6-0.8-2.3c0.5-0.1,0.8-0.6,1.3-1.3c0.5-0.7,1.9-3.3,2.7-5.9
		l2.3,1c-0.9,2-2,4.1-3.2,5.9l1.7-0.1c0.6-1.1,1.2-2.2,1.7-3.4l2.1,1.3c-1.3,2.6-3.1,5.3-4.9,7.5l2.6-0.4c-0.2-0.6-0.4-1.2-0.6-1.6
		l1.8-0.7c0.6,1.3,1.2,3.2,1.5,4.3V53h12.8V71.6z M118.1,67.6c0.3,1.6,0.6,3.6,0.6,5l-2,0.5c0-1.4-0.3-3.5-0.5-5.1L118.1,67.6z
		 M120.5,66.9c0.6,1.4,1.1,3.3,1.4,4.5l-1.9,0.7c-0.2-1.3-0.8-3.2-1.3-4.6L120.5,66.9z M130.1,68.1c0.4,0,1,0,1.4-0.1
		c0,0.6,0.1,1.4,0.2,1.9c-0.3,0.1-1,0.1-1.5,0.1h-2c-2,0-2.5-0.8-2.5-2.7v-1.4H125v-2.1h2.4c-0.2-0.5-0.4-1.1-0.6-1.6l1.4-0.5h-3.4
		v-2.1h1.3c-0.1-0.9-0.5-2.2-0.9-3.1l1.6-0.5c0.5,1,0.9,2.3,1,3.2l-1.4,0.5h2.1c0.3-1.1,0.7-2.6,0.8-3.6l1.9,0.5
		c-0.3,1-0.7,2.2-1,3.1h1.2v2.1h-2.8c0.3,0.6,0.6,1.2,0.7,1.7l-1,0.4h2.9v2.1H128v1.4c0,0.5,0.1,0.7,0.5,0.7H130.1z"/>
	<path class="st3" d="M158.1,54.9c-0.7,2.5-1.9,4.7-3.3,6.5c1.4,1.1,3.1,2.1,5,2.7c-0.6,0.6-1.4,1.7-1.8,2.4l0,0v7.9h-2.7v-0.7h-4.5
		v0.8H148v-7.8l-0.6,0.2c-0.2-0.4-0.5-0.9-0.9-1.4v0.7h-2.7v3.2l2.8-0.6l0.3,2.5c-3.4,0.8-7,1.7-9.8,2.3l-0.5-2.7l1.1-0.2v-8.1h2.3
		v7.6l1.2-0.2v-9.1H138v-8h8.3v6c1.8-1.7,3.2-4.2,4-6.9l2.7,0.7c-0.2,0.5-0.4,1.1-0.6,1.6h3.4l0.5-0.1L158.1,54.9z M140.5,58.4h3.2
		v-3.1h-3.2L140.5,58.4z M146.5,64.4c1.7-0.7,3.3-1.8,4.6-3c-0.6-0.7-1.1-1.4-1.5-2.1c-0.5,0.6-0.9,1.2-1.4,1.7
		c-0.4-0.4-1.3-1.2-1.9-1.6v1.5h-2.4v2.8h2.7V64.4z M155.9,65.5c-1.1-0.7-2.1-1.4-3-2.2c-0.9,0.8-1.9,1.5-3,2.2H155.9z M155.1,71.1
		v-3.2h-4.5v3.2H155.1z M151.2,56.7L151,57c0.5,0.8,1.1,1.7,1.8,2.5c0.7-0.9,1.3-1.8,1.8-2.8H151.2z"/>
	<path class="st3" d="M169.9,65.7c1.2,2,2.7,4.6,3.3,6.3l-2.7,1.4c-0.2-0.6-0.5-1.3-0.8-2.1c-5.7,1.8-6.6,2.2-7.3,2.6
		c-0.2-0.8-0.7-2.2-1.1-2.9c0.5-0.3,1.1-0.7,1.1-1.7V53.2h10.1v11.9h-7.2v4.7l3.2-0.9c-0.4-0.7-0.8-1.4-1.1-2L169.9,65.7z
		 M165.3,55.7v2h4.3v-2H165.3z M169.6,62.5v-2.2h-4.3v2.2H169.6z M182.5,67.2c0,1.3-0.2,2-1,2.5c-0.8,0.5-1.9,0.5-3.4,0.5
		c-0.1-0.8-0.4-2-0.8-2.7c0.9,0,1.8,0,2,0c0.3,0,0.4-0.1,0.4-0.4V56h-2.9v18.5h-2.9V53.3h8.6V67.2z"/>
	<path class="st3" d="M207.1,56.5h-2.8v14.4c0,1.7-0.4,2.6-1.5,3.1c-1.2,0.5-3,0.5-5.4,0.5c-0.2-0.8-0.7-2.3-1.2-3
		c1.7,0.1,3.8,0.1,4.4,0.1c0.6,0,0.8-0.2,0.8-0.7V56.5h-15.9v-2.9h21.7V56.5z M190.5,68.5v1.8h-2.8V59.2h10.2v9.3H190.5z
		 M190.5,61.9v3.9h4.6v-3.9H190.5z"/>
	<path class="st3" d="M220.5,56.2c0,0,0,1,0,1.3c-0.4,10.2-0.7,13.9-1.6,15.1c-0.6,0.8-1.1,1.1-1.9,1.3c-0.7,0.1-1.7,0.1-2.7,0.1
		c0-0.9-0.4-2.1-0.8-3c0.8,0.1,1.6,0.1,2,0.1c0.4,0,0.6-0.1,0.8-0.5c0.5-0.7,0.9-3.7,1.2-11.7h-2.4c-0.3,6.1-1.2,11.6-4,15.4
		c-0.5-0.7-1.5-1.6-2.3-2c2.6-3.3,3.3-8.1,3.5-13.4h-2.8v-2.8h2.9c0-1.4,0-2.8,0-4.2h2.9c0,1.4,0,2.8,0,4.2L220.5,56.2z M230.7,54.7
		v19.1h-3v-1.5h-3.2V74h-2.9V54.7H230.7z M227.7,69.5V57.5h-3.2v12.1H227.7z"/>
	<path class="st3" d="M246.3,53.3c0,4.6,0.7,13.3,9.5,18.6c-0.6,0.5-1.8,1.8-2.3,2.5c-5-3-7.5-7.6-8.9-11.9
		c-1.8,5.4-4.7,9.4-8.9,11.9c-0.5-0.6-1.9-1.8-2.6-2.3c5-2.5,7.9-7.2,9.2-13.5l1.5,0.3c-0.2-0.9-0.3-1.8-0.3-2.6h-5.5v-2.9H246.3z"
		/>
</g>
</svg>
