<?xml version="1.0" encoding="utf-8"?>
<!-- Generator: Adobe Illustrator 25.2.3, SVG Export Plug-In . SVG Version: 6.00 Build 0)  -->
<svg version="1.1" id="圖層_1" xmlns="http://www.w3.org/2000/svg" xmlns:xlink="http://www.w3.org/1999/xlink" x="0px" y="0px"
	 viewBox="0 0 345 108.9" style="enable-background:new 0 0 345 108.9;" xml:space="preserve">
<style type="text/css">
	.st0{fill:#C9C9CA;}
	.st1{fill:#FFFFFF;}
	.st2{fill:none;stroke:#C9C9CA;stroke-miterlimit:10;}
	.st3{fill:#606060;}
</style>
<path class="st0" d="M25.6,19.8h294.9c10.7,0,19.4,8.7,19.4,19.4v45c0,10.7-8.7,19.4-19.4,19.4H25.6c-10.7,0-19.4-8.7-19.4-19.4v-45
	C6.2,28.5,14.9,19.8,25.6,19.8z"/>
<path class="st1" d="M30.1,7.2h291c11,0,19.9,8.9,19.9,19.9v46.1c0,11-8.9,19.9-19.9,19.9h-291c-11,0-19.9-8.9-19.9-19.9V27.1
	C10.2,16.2,19.1,7.2,30.1,7.2z"/>
<path class="st2" d="M30.1,7.2h291c11,0,19.9,8.9,19.9,19.9v46.1c0,11-8.9,19.9-19.9,19.9h-291c-11,0-19.9-8.9-19.9-19.9V27.1
	C10.2,16.2,19.1,7.2,30.1,7.2z"/>
<g>
	<path class="st3" d="M111.4,35.1c-0.6,2.2-1.7,4.1-3,5.6c1.2,0.7,2.6,1.3,4.1,1.7c-0.6,0.5-1.3,1.5-1.7,2.2
		c-1.6-0.5-3.1-1.2-4.3-2.1c-1.3,1-2.7,1.7-4.2,2.3c-0.3-0.6-0.9-1.5-1.4-2.1v2.1h-2.7v-2.1c-2.8,0.3-5.6,0.6-7.7,0.8l-0.2-2.5
		c0.6,0,1.3-0.1,2.1-0.2v-7.3h-1.9v-2.3h21.4v2.3h-10.9v8.9c1.3-0.4,2.5-1,3.6-1.8c-0.9-1.1-1.7-2.3-2.3-3.7l0.9-0.2h-1.4v-2.2h7.5
		l0.5-0.1L111.4,35.1z M96,30.6h-2.7v-7.5h15.8v7.5h-2.9V25H96V30.6z M94.9,33.6v1h3.3v-1H94.9z M94.9,37.5h3.3v-1h-3.3V37.5z
		 M94.9,40.6c1.1-0.1,2.2-0.2,3.3-0.3v-0.8h-3.3V40.6z M105.3,27.6h-8.5v-1.7h8.5V27.6z M96.8,30.1v-1.7h8.5v1.7H96.8z M104.7,36.7
		c0.4,0.8,1,1.6,1.6,2.3c0.6-0.7,1.2-1.4,1.6-2.3H104.7z"/>
	<path class="st3" d="M120.7,33.5c-0.4,2.2-1,4.5-1.8,6.3c0.4,0.3,0.8,0.6,1.4,0.9c1.7,1,3.9,1.1,6.7,1.1c2.8,0,7.1-0.2,9.7-0.6
		c-0.3,0.8-0.8,2.2-0.8,2.9c-2,0.1-6.2,0.3-9,0.3c-3.2,0-5.2-0.3-7-1.3c-1-0.6-1.9-1.3-2.4-1.3c-0.6,0-1.4,1.6-2,3l-1.9-2.7
		c0.9-1.1,1.9-2,2.8-2.5c0.5-1.2,0.9-2.6,1.2-4h-3.1c0.6-1.4,1.2-3.3,1.8-5.2h-2.2v-2.5h5.7c-0.5,1.7-1.1,3.6-1.7,5.3h1l0.4-0.1
		L120.7,33.5z M117,27.2c-0.3-1.1-1.1-2.8-1.6-4.2l2.5-0.8c0.6,1.3,1.3,2.9,1.7,4L117,27.2z M123.9,26.2h-3.2V24h6.1
		c-0.2-0.4-0.5-0.8-0.7-1.1l2.3-0.8c0.5,0.6,0.9,1.3,1.3,2h6.5v2.2h-2.9c-0.3,0.6-0.6,1.2-0.9,1.7h3.2v10.2c0,1.2-0.2,1.8-1,2.2
		c-0.7,0.4-1.8,0.4-3.2,0.4c-0.1-0.6-0.3-1.3-0.6-1.9h-3.8v0.7h-1.9v-5.2h2.2V33h-2.8v-1.7h2.8V30h-3.4v10.5h-2.6V27.8h2.8
		c-0.1-0.5-0.4-1.1-0.6-1.6L123.9,26.2z M129.8,27.8c0.2-0.5,0.4-1.1,0.6-1.7h-4.3c0.3,0.6,0.5,1.2,0.6,1.7H129.8z M129.7,35.9h-2.6
		v1.3h2.6V35.9z M133,30h-3.6v1.3h2.9V33h-2.9v1.3h2.3v4.1c0.4,0,0.8,0,1,0c0.3,0,0.4-0.1,0.4-0.4V30z"/>
	<path class="st3" d="M160,39.4c-0.9,0.5-1.9,1-2.8,1.4c0.9,0.7,2,1.2,3.3,1.6c-0.6,0.5-1.3,1.5-1.7,2.2c-3.2-1.1-5.3-3.3-6.5-6.4
		c-0.7,0.6-1.5,1.2-2.3,1.7v2.1l3.4-0.6c-0.1,0.6-0.1,1.6,0,2.1c-4.4,1-5.2,1.2-5.7,1.5c-0.1-0.6-0.6-1.5-0.9-1.9
		c0.4-0.2,1-0.7,1-1.6v-0.2c-0.7,0.3-1.3,0.5-2,0.7c-0.3-0.4-0.7-0.9-1.1-1.4l0,0.2c-2.2,0.6-4.6,1.3-6.5,1.8l-0.5-2.6
		c0.7-0.1,1.5-0.3,2.4-0.6v-5.9h-1.9v-2.5h1.9v-4.5h-2v-2.5h6.5v2.5h-2v4.5h1.8v2.5h-1.8v5.3l1.8-0.5l0.2,1.6
		c1.7-0.5,3.5-1.1,4.9-1.9h-2.8v-5.3h12v5.3h-4c0.3,0.6,0.6,1.2,1,1.6c0.9-0.5,1.8-1.1,2.4-1.6L160,39.4z M160.1,31.6h-14.7v-2.3
		h14.7V31.6z M159.3,28.5h-13.1v-5.5h13.1V28.5z M150.1,25h-1.5v1.6h1.5V25z M149.3,35.7h6.8v-1.3h-6.8V35.7z M153.5,25h-1.5v1.6
		h1.5V25z M156.9,25h-1.6v1.6h1.6V25z"/>
	<path class="st3" d="M170.2,39c-2.5,1-5.2,2.1-7.4,3l-0.9-2.9c0.8-0.2,1.7-0.5,2.8-0.9v-7.4h-2.3V28h2.3v-5.4h2.8V28h2v2.7h-2v6.4
		c0.7-0.3,1.5-0.5,2.2-0.8L170.2,39z M181.3,42.2c0.2,0,0.4,0,0.5,0c0.1,0,0.2-0.2,0.3-0.5c0-0.3,0.1-0.9,0.1-1.8
		c0.5,0.5,1.5,0.9,2.2,1.2c-0.1,0.9-0.2,1.9-0.4,2.3c-0.2,0.4-0.6,0.7-1,0.9c-0.4,0.1-1,0.2-1.5,0.2h-1.5c-0.6,0-1.4-0.2-1.8-0.6
		c-0.5-0.4-0.7-0.9-0.7-2.4v-2.9h-1.7c-0.4,3.2-1.6,5.1-6.1,6.3c-0.2-0.6-0.9-1.7-1.5-2.2c3.7-0.7,4.6-1.9,4.9-4.1h-2v-7.3h11.5v7.3
		h-2.5v3c0,0.3,0,0.5,0.1,0.6c0.1,0.1,0.2,0.1,0.4,0.1H181.3z M183.7,30.5h-13.6v-2.4h2.9c-0.1-0.5-0.3-1.1-0.5-1.6l2.3-0.5
		c0.3,0.6,0.6,1.4,0.7,2h2.7c0.3-0.7,0.5-1.4,0.7-2l2.6,0.5c-0.3,0.6-0.5,1.1-0.8,1.6h3V30.5z M183.1,26h-12.3v-2.3h4.8
		c-0.1-0.4-0.3-0.8-0.4-1.1l2.7-0.5c0.2,0.5,0.5,1.1,0.6,1.6h4.6V26z M173.7,34.1h6.2v-1h-6.2V34.1z M173.7,36.7h6.2v-1h-6.2V36.7z"
		/>
	<path class="st3" d="M198.4,26.9v3.8l0.5-0.6c2.6,1.3,6.4,3.4,8.2,4.9l-2.1,2.6c-1.4-1.2-4.1-3-6.6-4.4v11.4h-3.1V26.9h-8.7V24
		h21.4v2.9H198.4z"/>
	<path class="st3" d="M232.2,40.4H223v1.7c0,1.3-0.3,1.9-1.3,2.3c-1,0.3-2.3,0.4-4.1,0.4c-0.1-0.8-0.5-1.7-0.9-2.4
		c1.1,0,2.6,0,2.9,0c0.4,0,0.5-0.1,0.5-0.4v-1.6h-9.7v-2.3h9.7v-0.7c0.9-0.3,1.8-0.9,2.6-1.4h-7.7v-2h10.5l0.6-0.1l1.6,1.5
		c-1.3,1-3,1.9-4.6,2.8h9V40.4z M213.6,35.8h-2.7v-4.9h1.8l-0.4-7.1c1.4-0.2,3.6-0.9,4.9-1.3l1.2,1.7c-0.9,0.4-2.1,0.7-3.3,0.9
		l0,0.7h3.1v1.8h-3l0,0.8h3v1.2c0.6-0.3,1.2-0.6,1.7-0.9c-0.5-0.3-0.9-0.6-1.3-0.8l1.3-1.1c0.5,0.2,1,0.5,1.5,0.8
		c0.4-0.3,0.7-0.7,1-1l1.9,0.6c-0.4,0.5-0.8,1-1.3,1.4c0.6,0.4,1.1,0.7,1.4,1.1l-1.4,1.3c-0.4-0.4-0.8-0.7-1.4-1.2
		c-0.6,0.5-1.3,0.9-1.9,1.3h7.8l0.1-0.8h-2.8v-1.8h3l0-0.8h-2.9v-1.8h3.1l0-0.8h-3.2v-1.8h6c-0.1,2.5-0.3,5.6-0.5,7.8h1.8v4.9h-2.8
		V33h-15.4V35.8z M215.4,30.9h3.9c-0.3-0.3-0.7-0.8-1.1-1.1v0.3h-2.9L215.4,30.9z M222.8,26.5c-0.3-0.3-0.8-0.6-1.3-1
		c-0.6,0.5-1.3,0.9-1.9,1.2c-0.3-0.3-1-1-1.5-1.3c0.6-0.2,1.2-0.6,1.8-0.9c-0.5-0.3-0.9-0.5-1.3-0.7l1.3-1.1c0.5,0.2,1,0.5,1.5,0.8
		c0.3-0.3,0.6-0.6,0.9-1l1.9,0.6c-0.3,0.5-0.7,0.9-1.2,1.3c0.5,0.3,0.9,0.7,1.3,1L222.8,26.5z"/>
	<path class="st3" d="M242,29.9c-2,1.1-4.1,2.3-5.8,3.2l-1-2.2c1.5-0.6,3.9-1.8,6.2-2.9L242,29.9z M254.9,30.9c0,1.2-0.2,1.8-1,2.2
		c-0.7,0.3-1.9,0.4-3.3,0.4c-0.1-0.7-0.3-1.6-0.6-2.3c0.8,0,1.6,0,1.9,0c0.3,0,0.3-0.1,0.3-0.3v-5.4h-4.7c1.1,0.5,2.6,1.1,3.3,1.5
		l-1.1,1.7l1.9-0.9l0.6,1.9c-1.9,1.1-4,2.2-5.8,3.2l0.6,0.1c-0.3,0.6-0.6,1.2-0.9,1.8h7.6v10.1h-3V44h-10.3v0.9h-2.8V34.7h5.7
		c0.2-0.5,0.4-1.1,0.5-1.5c-0.7,0.3-1.8,0.3-3.1,0.3c-0.1-0.7-0.3-1.6-0.6-2.3c0.8,0,1.6,0,1.9,0c0.2,0,0.3-0.1,0.3-0.3v-5.4h-4.7
		c1.1,0.5,2.5,1.1,3.3,1.5l-1.3,1.9c-0.8-0.5-2.4-1.3-3.6-1.8l1.1-1.5h-1.7v-2.3h9.5v7.7c0,0.8-0.1,1.3-0.3,1.6l1.7,0.3l-1-2.1
		c1.1-0.5,2.6-1.1,4.2-1.9c-0.9-0.5-2.4-1.2-3.5-1.7l1.1-1.5h-1.5v-2.3h9.3V30.9z M250.7,36.9h-10.3v1.4h10.3V36.9z M250.7,41.8
		v-1.4h-10.3v1.4H250.7z"/>
	<path class="st3" d="M90.6,54.4c0,1-0.1,2.3-0.2,3.8c0.3,3.2,1.8,12.3,10.2,16c-0.9,0.7-1.7,1.7-2.1,2.5c-5.3-2.6-8-7.2-9.4-11.4
		c-1.3,4.2-3.8,8.6-8.9,11.5c-0.5-0.8-1.4-1.7-2.4-2.3c9.8-5.2,9.3-16,9.4-20.1H90.6z"/>
	<path class="st3" d="M114.6,54.4c0,1-0.1,2.3-0.2,3.8c0.3,3.2,1.8,12.3,10.2,16c-0.9,0.7-1.7,1.7-2.1,2.5c-5.3-2.6-8-7.2-9.4-11.4
		c-1.3,4.2-3.8,8.6-8.9,11.5c-0.5-0.8-1.4-1.7-2.4-2.3c9.8-5.2,9.3-16,9.4-20.1H114.6z"/>
	<path class="st3" d="M148.6,56.9c-0.9,2.3-1.9,5-2.9,7.1c2,2.1,2.5,4,2.5,5.6c0,1.8-0.4,3-1.3,3.6c-0.4,0.3-1,0.6-1.7,0.6
		c-0.6,0.1-1.3,0.1-2.1,0c0-0.8-0.3-2-0.7-2.8c0.6,0,1.1,0.1,1.5,0c0.4,0,0.7-0.1,1-0.2c0.5-0.3,0.6-0.8,0.6-1.6
		c0-1.3-0.6-3.1-2.5-4.9c0.7-1.7,1.5-4.2,2.1-6H142v18.4h-2.8V56.2c-0.7,1.8-1.6,3.6-2.6,5.1h1.8v2.5h-3.6c-0.5,0.6-1,1.2-1.5,1.8
		h4.3v10.8h-2.7v-0.9H131v1.2h-2.6v-7.3c-0.4,0.3-0.8,0.5-1.2,0.7c-0.3-0.6-1.1-1.8-1.7-2.4c2.1-1,4.1-2.4,5.7-4h-5.1v-2.5h4.2v-2
		h-3.2v-2.5h3.2v-2.3h2.6v2.3h2.5v1.2c0.5-0.8,0.8-1.8,1.2-2.7l2.5,0.7v-0.5h6.9l0.4-0.1L148.6,56.9z M134.9,67.8H131v1.5h3.9V67.8z
		 M134.9,73.2v-1.7H131v1.7H134.9z M133.5,61.3c0.5-0.6,0.9-1.3,1.3-2H133v2H133.5z"/>
	<path class="st3" d="M159,59.9c-0.3,0.6-0.6,1.3-1,1.9h11.2v11.9c0,1.4-0.3,2.2-1.3,2.6c-0.9,0.5-2.3,0.5-4.3,0.5
		c-0.1-0.8-0.5-2-0.9-2.8c1.2,0.1,2.6,0.1,3,0.1c0.4,0,0.6-0.1,0.6-0.5v-1.4h-9c-0.4,1.8-1.2,3.6-2.7,4.8c-0.4-0.6-1.5-1.8-2.1-2.2
		c2.1-1.8,2.2-4.4,2.2-6.6v-1.9c-0.9,1-1.9,1.9-3,2.6c-0.4-0.6-1.3-1.7-1.9-2.2c2.4-1.6,4.4-4,5.8-6.7h-5.2v-2.7h6.4
		c0.4-1,0.7-1.9,1-2.9l3,0.7c-0.2,0.7-0.5,1.5-0.8,2.2H172v2.7H159z M166.5,69.8v-1.6h-8.6c0,0.5,0,1,0,1.6H166.5z M166.5,64.4h-8.6
		v1.5h8.6V64.4z"/>
	<path class="st3" d="M195.5,67.1c-0.6,2.2-1.7,4.1-3,5.6c1.2,0.7,2.6,1.3,4.1,1.7c-0.6,0.5-1.3,1.5-1.7,2.2
		c-1.6-0.5-3.1-1.2-4.3-2.1c-1.3,1-2.7,1.7-4.2,2.3c-0.3-0.6-0.9-1.5-1.4-2.1v2.1h-2.7v-2.1c-2.8,0.3-5.6,0.6-7.7,0.8l-0.2-2.5
		c0.6,0,1.3-0.1,2.1-0.2v-7.3h-1.9v-2.3H196v2.3H185v8.9c1.3-0.4,2.6-1,3.6-1.8c-0.9-1.1-1.7-2.3-2.3-3.7l0.9-0.2h-1.4v-2.2h7.5
		l0.5-0.1L195.5,67.1z M180.2,62.6h-2.7v-7.5h15.8v7.5h-2.9v-5.6h-10.2V62.6z M179,65.7v1h3.3v-1H179z M179,69.6h3.3v-1H179V69.6z
		 M179,72.7c1.1-0.1,2.2-0.2,3.3-0.3v-0.8H179V72.7z M189.4,59.6h-8.5V58h8.5V59.6z M180.9,62.2v-1.7h8.5v1.7H180.9z M188.8,68.8
		c0.4,0.8,1,1.6,1.6,2.3c0.6-0.7,1.2-1.4,1.6-2.3H188.8z"/>
	<path class="st3" d="M205.9,55.3c-0.6,1.6-1.3,3.3-2.2,4.9v16.6h-2.8V64.7c-0.5,0.6-0.9,1.2-1.4,1.7c-0.3-0.7-1.1-2.2-1.5-2.9
		c2.1-2.2,4.1-5.6,5.3-9L205.9,55.3z M220.6,73.3V76h-16v-2.7h6.6v-2.9h-5.3v-2.7h5.3v-2.1h2.9v2.1h5.4v2.7h-5.4v2.9H220.6z
		 M211.2,59.7h-4.8V57h4.8v-2.7h2.9V57h5v2.7h-5v2.5h6v2.7h-14.9v-2.7h5.9V59.7z"/>
	<path class="st3" d="M230.2,69.8c-0.4-0.6-1.1-1.5-1.8-2.3v9.3h-2.8V68c-0.9,0.8-1.8,1.6-2.7,2.1c-0.2-0.8-0.7-2.4-1.1-2.9
		c2.4-1.3,4.7-3.7,6.2-6.2h-5.5v-2.6h4.1c-0.5-0.8-1.1-1.9-1.8-2.6l2.2-1.3c0.8,0.9,1.7,2.1,2.1,3l-1.3,0.9h1.7l0.5-0.1l1.5,1.1
		c-0.7,1.8-1.7,3.5-2.8,5c1,0.8,2.7,2.5,3.2,3L230.2,69.8z M242,74.2c0.4,0,0.5-0.3,0.6-2.7c0.5,0.4,1.6,0.9,2.3,1.1
		c-0.2,3.3-0.9,4.1-2.5,4.1h-1.6c-2.1,0-2.6-0.8-2.6-3.2v-4.7h-1.3c-0.3,3.9-1.3,6.6-5.9,8.1c-0.2-0.6-0.9-1.6-1.4-2.1
		c3.8-1.1,4.5-3,4.8-6h-1.6V55.3h10.7v13.5h-2.5v4.7c0,0.6,0,0.7,0.4,0.7H242z M235.3,59.1h5.3v-1.6h-5.3V59.1z M235.3,62.8h5.3
		v-1.5h-5.3V62.8z M235.3,66.5h5.3v-1.6h-5.3V66.5z"/>
	<path class="st3" d="M266.7,73.6c0,1.6-0.4,2.3-1.5,2.8c-1.1,0.4-2.8,0.5-5.1,0.5c-0.1-0.8-0.7-2-1.1-2.8c1.7,0.1,3.7,0.1,4.2,0.1
		c0.5,0,0.7-0.2,0.7-0.6v-1.9h-12c-0.6,2-1.8,3.9-3.8,5.3c-0.4-0.6-1.4-1.6-2-2c3.4-2.4,3.8-6,3.8-8.9v-3.6c-0.4,0.4-0.8,0.7-1.3,1
		c-0.4-0.7-1.4-1.7-2-2.1c3.1-2.1,5.1-4.8,6.3-7.2l3.1,0.5c-0.1,0.3-0.3,0.6-0.5,0.9h4.8l0.5-0.1l1.9,1.3c-0.5,0.9-1.2,2-1.9,3h6.1
		V73.6z M252.6,66.9c0,0.7-0.1,1.5-0.2,2.3h4.3v-2.3H252.6z M253.9,58c-0.4,0.6-0.9,1.2-1.4,1.8h5c0.4-0.6,0.8-1.2,1.1-1.8H253.9z
		 M252.6,64.5h4.1v-2.2h-4.1V64.5z M263.9,62.3h-4.4v2.2h4.4V62.3z M263.9,69.2v-2.3h-4.4v2.3H263.9z"/>
</g>
</svg>
