<?xml version="1.0" encoding="utf-8"?>
<!-- Generator: Adobe Illustrator 25.4.1, SVG Export Plug-In . SVG Version: 6.00 Build 0)  -->
<svg version="1.1" id="圖層_1" xmlns="http://www.w3.org/2000/svg" xmlns:xlink="http://www.w3.org/1999/xlink" x="0px" y="0px"
	 viewBox="0 0 1103 595.5" style="enable-background:new 0 0 1103 595.5;" xml:space="preserve">
<style type="text/css">
	.st0{fill:#E2AE46;}
	.st1{fill:#231815;}
	.st2{fill:#458DA7;}
	.st3{opacity:0.5;fill:#D98239;enable-background:new    ;}
	.st4{opacity:0.5;fill:#458DA7;enable-background:new    ;}
	.st5{fill:#D71618;}
	.st6{fill:#FFFFFF;}
</style>
<g>
	<g>
		<g>
			<path class="st0" d="M86.2,285.5c-15.3,0-24.6-6.3-30.9-14.3c-9.9-12.1-10.5-30.8-10.5-57.9s0.6-45.8,10.5-57.9
				c6.3-7.9,15.7-14.3,30.9-14.3c11.9,0,21,4,27.8,10.5c7.5,7.5,11.5,18.6,12.1,31.5H97.9c-0.2-6-1-16.7-11.7-16.7
				c-5.2,0-7.9,2.4-9.5,5.6c-3.4,6.5-3.8,24.2-3.8,41.3s0.4,34.7,3.8,41.3c1.6,3.2,4.4,5.6,9.5,5.6c9.3,0,11.7-8.7,11.7-16.5V229
				H86.2v-22.8h39.9v35.9C126.1,270.2,110.4,285.5,86.2,285.5z"/>
			<path class="st1" d="M187.9,276c-5.2,6.9-12.7,9.5-21.8,9.5s-16.5-2.6-21.6-9.5c-6.3-8.1-7.5-22.6-7.5-43.4s1.2-35.3,7.5-43.4
				c5.2-6.9,12.5-9.5,21.6-9.5s16.7,2.6,21.8,9.5c6.3,8.1,7.3,22.6,7.3,43.4C195.2,253.3,194.2,267.8,187.9,276z M175.2,198.4
				c-2-2.8-5.4-4.4-9.1-4.4c-3.8,0-6.9,1.6-8.9,4.4c-3.8,5.2-4.2,15.7-4.2,34.1s0.4,29,4.2,34.1c2,2.8,5.2,4.4,8.9,4.4
				c3.8,0,7.1-1.6,9.1-4.4c3.8-5.2,4-15.7,4-34.1C179.1,214.1,178.9,203.5,175.2,198.4z"/>
			<path class="st1" d="M258.9,276c-5.2,6.9-12.7,9.5-21.8,9.5s-16.5-2.6-21.6-9.5c-6.3-8.1-7.5-22.6-7.5-43.4s1.2-35.3,7.5-43.4
				c5.2-6.9,12.5-9.5,21.6-9.5s16.7,2.6,21.8,9.5c6.3,8.1,7.3,22.6,7.3,43.4C266.2,253.3,265.2,267.8,258.9,276z M246.2,198.4
				c-2-2.8-5.4-4.4-9.1-4.4c-3.8,0-6.9,1.6-8.9,4.4c-3.8,5.2-4.2,15.7-4.2,34.1s0.4,29,4.2,34.1c2,2.8,5.2,4.4,8.9,4.4
				c3.8,0,7.1-1.6,9.1-4.4c3.8-5.2,4-15.7,4-34.1S250,203.5,246.2,198.4z"/>
			<path class="st1" d="M336.4,286.3c0,15.3-2.6,22.8-8.3,28.8c-4.8,5-12.3,7.9-20.2,7.9c-7.9,0-15.5-2.4-20.6-7.3
				c-5.8-5.8-7.7-13.3-7.7-22.2h16.1c0,5,0.6,9.1,3.4,12.3c2.2,2.2,5.4,3.4,8.7,3.4c3.8,0,6.7-1.6,8.7-3.8c3-3.2,4-8.5,4-18.1v-15.7
				c-1.6,2.2-3.6,4.4-5.8,5.8c-3,2.2-6.5,3.2-10.7,3.2c-6.9,0-12.5-2.4-16.9-7.5c-6.5-7.3-8.1-18.8-8.1-43s1.6-35.5,8.1-43.1
				c4.4-5,9.7-7.3,16.9-7.3c4.4,0,7.9,1,11.1,3.2c2.2,1.4,4.4,3.6,5.8,5.6v-7.1h15.7L336.4,286.3L336.4,286.3z M320.3,208.9
				c0-5.6-1.4-9.1-4-11.7c-2.2-2.2-5-3.2-8.3-3.2c-3.8,0-6.7,1.6-8.7,4.2c-3.6,4.4-4.2,12.3-4.2,31.9s0.6,27.6,4.2,32.1
				c2,2.4,5,4.2,8.7,4.2c3.4,0,6.1-1.2,8.3-3.4c2.6-2.6,4-6.1,4-11.7V208.9z"/>
			<path class="st1" d="M362.4,277.5c-5.6-4.6-9.1-11.7-9.1-23V142.6h16.1v111.3c0,10.1,4.8,15.5,15.3,15.5v14.5
				C375.9,283.9,368.6,282.7,362.4,277.5z"/>
			<path class="st1" d="M409.6,236.3c0,16.3,0.6,25.8,4.2,30.4c1.8,2.6,5,4.4,9.1,4.4c3.6,0,6.5-1,9.1-4s3.4-6.9,3.4-11.9h16.1
				c-0.2,9.5-2.6,16.7-8.3,22.8c-5,5.2-11.9,7.5-20.2,7.5c-8.7,0-15.1-2.2-20.4-7.9c-7.7-8.1-9.1-23.6-9.1-45
				c0-21.6,1.4-36.9,8.9-45c5.4-5.8,11.9-7.9,20.2-7.9c8.3,0,14.9,2.2,20.2,7.9c7.7,8.1,9.1,23.4,9.1,48.8L409.6,236.3L409.6,236.3z
				 M431.7,198.2c-2-2.6-4.8-4.2-9.1-4.2c-4.4,0-6.9,1.6-8.9,4.2c-3.2,3.8-4,11.1-4,26h26C435.6,209.3,434.8,202,431.7,198.2z"/>
		</g>
		<g>
			<path class="st2" d="M558.7,284.5l-4.6-22h-32.5l-4.6,22h-29.4L524,143.2h27.8l36.3,141.2L558.7,284.5L558.7,284.5z M537.9,184.7
				L527,237.1h21.8L537.9,184.7z"/>
			<path class="st1" d="M638.1,284.5v-75.6c0-9.3-5.6-14.1-12.3-14.1s-12.1,4.8-12.1,14.1v75.6h-16.1V181.7h15.5v7.9
				c1.4-2.4,4.2-5,6.3-6.3c3.2-2,6.9-3.2,11.1-3.2c7.7,0,13.1,2.6,17.5,7.5c4.2,4.6,6.1,10.1,6.1,21.2v75.6L638.1,284.5L638.1,284.5
				L638.1,284.5z"/>
			<path class="st1" d="M709.4,284.5v-9.1c-1.6,2.8-4,5.4-5.9,6.9c-3.2,2.4-6.5,3.8-12.1,3.8c-7.5,0-12.9-2.4-17.7-7.7
				c-4-4.6-6.5-12.3-6.5-23c0-9.5,3.2-17.9,9.1-23.2c5.2-4.6,11.1-6.9,21.8-6.9h10.5V209c0-9.5-4.2-14.7-12.1-14.7
				c-3.6,0-6,1.4-7.9,3.4c-2.8,3-3.8,6.3-3.8,11.9h-16.1c0-7.9,1.8-15.7,7.9-21.8c4.6-4.6,11.9-7.5,19.8-7.5c8.3,0,15.3,2.4,20,7.1
				c5,5.2,8.1,12.1,8.1,22.6v74.6L709.4,284.5L709.4,284.5z M708.6,236.9h-9.1c-5,0-8.3,0.8-11.5,3.8c-3,2.8-4.8,8.5-4.8,14.1
				c0,10.7,4.2,17.3,12.5,17.3c7.7,0,12.9-6.5,12.9-16.1L708.6,236.9L708.6,236.9z"/>
			<path class="st1" d="M750.1,278.1c-5.6-4.6-9.1-11.7-9.1-23V143.2h16v111.3c0,10.1,4.8,15.5,15.3,15.5v14.5
				C763.5,284.5,756.2,283.3,750.1,278.1z"/>
			<path class="st1" d="M808.4,300.9c-4.4,18.4-17.1,22-34.1,22v-14.3c9.9,0,16.1-2.6,18.5-11.9l3.2-12.5l-25-102.6h17.7l15.7,77.2
				l15.5-77.2h17.7L808.4,300.9z"/>
			<path class="st1" d="M865.4,278.1c-5.8-4.8-8.9-12.3-8.9-23v-60.9h-11.7v-12.5h11.7v-28.1h16.1v28.2h15.9v12.5h-15.9v60.3
				c0,10.9,5.8,15.5,16.5,15.5v14.5C879.9,284.5,872,283.7,865.4,278.1z"/>
			<path class="st1" d="M899.8,163.5v-18.7h18.8v18.6C918.6,163.5,899.8,163.5,899.8,163.5z M901.2,284.5V181.7h16.1v102.8
				L901.2,284.5L901.2,284.5z"/>
			<path class="st1" d="M981,278.9c-5,5-11.9,7.1-20.2,7.1c-8.7,0-16.5-2.6-21.6-9.5c-6.3-8.1-7.5-22.8-7.5-43.4
				c0-20.8,1.2-35.3,7.5-43.4c5.2-6.9,12.9-9.5,21.6-9.5c8.3,0,14.7,1.8,20,6.9c6.3,6,7.9,14.5,8.3,23.2H973c0-4.2-0.4-8.5-3.2-11.9
				c-2.2-2.6-5-3.8-8.9-3.8c-3.8,0-7.1,1.6-9.1,4.4c-3.8,5-4,15.5-4,34.1c0,18.4,0.2,29,4,34.1c2,2.8,5.4,4.4,9.1,4.4
				c3.6,0,6.7-1.4,8.7-3.8c2.8-3.2,3.4-7.3,3.4-12.1h16.1C988.7,265.4,986.4,273.4,981,278.9z"/>
			<path class="st1" d="M1050.4,277.9c-5.6,5.8-12.7,8.1-21,8.1s-15.7-2.8-20.6-7.9c-6-6.1-8.7-13.3-8.7-22.6h15.9
				c0,5.4,1.4,9.3,4.4,12.5c2.4,2.4,6,3.6,9.1,3.6c4.2,0,7.1-1.2,9.7-3.8c2.4-2.4,4-6.2,4-10.3c0-3.6-0.8-6.5-2.6-9.3
				c-2-3-5-5.2-9.1-7.3l-13.3-6.7c-6.7-3.4-11.5-7.5-14.1-11.9c-2.2-3.8-3.2-8.1-3.2-13.5c0-8.9,3.4-15.7,8.5-20.8
				c5.2-5.2,12.3-7.7,20.2-7.7c8.1,0,15.1,2.4,20,7.3c5.4,5.2,8.3,12.5,8.3,22.6H1042c0-6-1.2-9.5-3.8-12.3
				c-2.4-2.6-5.6-3.6-8.7-3.6c-3.8,0-6.7,1.2-8.9,3.4c-2.6,2.6-3.8,6.1-3.8,9.9c0,3,0.6,5.4,1.8,7.5c1.4,2.4,4.4,4.8,8.5,6.7
				l13.1,6.5c6.9,3.4,11.5,6.9,14.5,11.7c2.8,4.2,4.4,9.9,4.4,16.5C1059.2,265.6,1055.6,272.8,1050.4,277.9z"/>
		</g>
	</g>
	<g>
		<rect x="233.7" y="339.8" class="st3" width="68.5" height="21.8"/>
		<path class="st1" d="M124.7,386c-4.3-4.1-13.3-9.3-20.7-12.4l5.5-7.9c7.2,2.8,16.4,7.7,21,11.4L124.7,386z M135.6,400.3
			c-6,11.8-13.5,25.2-20.2,36l-8.8-7.1c6-8.6,14.7-23,21.3-35.9L135.6,400.3z M128.3,356.6c-3.8-4.3-12.4-10.2-19.3-13.8l5.9-7.7
			c6.9,3.4,15.6,8.9,19.8,13.1L128.3,356.6z M145.3,387.2h9.5v11.4c0,12.4-1.8,27.5-16.3,38.6c-1.6-2.1-5.1-5.5-7.4-6.9
			c12.8-9.5,14.1-21.9,14.1-31.9L145.3,387.2L145.3,387.2z M198.7,387.2c-1.4-2.1-3.3-4.9-5.4-7.7c-44,2.9-49.4,3.4-53.1,4.9
			c-0.6-2.1-2.3-7.1-3.4-9.8c2.5-0.6,5.1-3.2,8.4-7.1c1.6-1.7,4.4-5.2,7.7-10h-17V348h23.5c2.7-4.5,5.7-9.4,7.9-14.1l10.3,4.1
			c-1.9,3.4-4.1,6.8-6.1,10.1h34.3v9.5H165c-4.2,5.7-8.4,10.9-12.6,15.6l34.5-2c-2.5-2.9-4.9-5.9-6.9-8.6l7.9-4.5
			c6.3,7.5,15,17.8,19.3,23.9L198.7,387.2z M164.9,388.1h9.3v44.7h-9.3V388.1z M201.5,427c1.4,0,3.7-0.2,5.1-0.7
			c0.1,2.6,0.5,6,0.8,8.1c-1.5,0.6-3.7,0.7-5.8,0.7H195c-8.8,0-10.5-3.7-10.5-12.8v-35.2h9.7v35.4c0,3.3,0.2,4.4,1.7,4.4L201.5,427
			L201.5,427z"/>
		<path class="st1" d="M320.2,426.9v8H218.3v-8h45.6v-5.4h-36v-7.1h36v-5.1h-33.1V381h77.6v28.3H274v5.1h36.5v7.1H274v5.4H320.2z
			 M319.8,376.7h-101V369h101V376.7z M305.3,364.7h-72.5v-27.4h72.5V364.7z M240.7,392.2h23.2V387h-23.2V392.2L240.7,392.2z
			 M263.9,403.2v-5.3h-23.2v5.3H263.9z M294.6,343.1h-51.7v5.1h51.7V343.1z M294.6,353.7h-51.7v5.2h51.7V353.7z M298,386.9h-24v5.2
			h24V386.9z M298,397.9h-24v5.3h24V397.9z"/>
		<path class="st1" d="M403.4,335.7c5.3,17.1,17.1,33.1,32.1,41.3c-2.4,2.2-5.9,6.6-7.6,9.6c-3.6-2.4-7.1-5.1-10.3-8.1
			c0,0.7-0.1,1.5-0.1,1.9c-1.5,34.4-2.9,47.5-6.9,51.9c-2.5,3.2-5.2,4.1-9.3,4.6c-3.7,0.5-10.6,0.3-17.5,0
			c-0.1-3.2-1.6-7.6-3.4-10.6c6.8,0.7,13.2,0.8,16,0.8c2.1,0,3.5-0.3,4.8-1.6c2.6-2.7,4.1-13.4,5.2-39.7h-26
			c-2.9,21.9-10.3,41.9-39.3,52.5c-1.2-2.8-4.3-7.2-6.8-9.4c26.1-8.7,32.1-25.1,34.6-43.1h-21.3V378c-2.9,3.3-6.1,6.2-9.3,8.8
			c-1.9-2.1-6.3-6-8.9-7.8c13-9.2,23.2-24.3,28.6-41.4l11,2.6c-4.5,13.5-11.2,25.7-19.3,35.4h65.2c-8.3-8.7-14.9-19.2-19.2-30.2h-19
			v-9.7L403.4,335.7L403.4,335.7L403.4,335.7z"/>
		<path class="st1" d="M480.6,401.2c-1.8-3.7-5.4-10-8.9-15.5v51.9h-10.1v-49.2c-3.8,11.4-8.7,22.2-13.9,29.1
			c-1.1-3.1-3.6-7.2-5.3-9.7c7.4-9.2,14.6-25.8,18-40.4h-14.9v-10h16.2v-23.6h10.1v23.6H488v10h-16.2v5.2
			c4.1,5.1,13.1,17.2,15.3,20.4L480.6,401.2z M546.9,381.9h-15.5v55.8H521v-55.8h-18c-0.1,17.1-2,40.4-12.4,55.5
			c-1.8-1.7-6.2-4.3-8.7-5.3c10.3-14.8,11.2-36.3,11.2-52v-33.9c13.9-2.6,29.6-6.8,38.7-11.1l8.9,8.3c-10.5,4.4-24.6,7.8-37.7,10.3
			V372h43.9V381.9L546.9,381.9z"/>
	</g>
	<rect x="583" y="348" class="st4" width="50.9" height="43.7"/>
	<rect x="801.2" y="388.6" class="st4" width="66" height="31.9"/>
	<rect x="678.4" y="379" class="st3" width="22.5" height="39.6"/>
	<path class="st1" d="M636.3,396.5c6.3,6.6,15.3,12.3,24,15.4c-2.3,1.9-5.3,5.7-6.9,8.1c-10.9-4.8-21.6-13.7-28.5-23.5h-33.7
		c-2.7,4-6.2,7.9-10,11.4h20.7v-8.5h10.6v8.5h22.4v8.4h-22.4v10.1h38v8.7h-85.2v-8.7h36.5v-10.1h-21.6v-7.5
		c-5.7,5.1-12.2,9.4-18.7,12.4c-1.5-2.5-4.5-6.2-6.8-8c8.9-3.4,18-9.7,24.4-16.7H556v-8.7h21.9v-35h-16.4v-8.6h16.4v-9.8h10.5v9.8
		h38.5v-9.7h10.7v9.7h16.2v8.6h-16.2v35h21.3v8.7H636.3L636.3,396.5z M588.4,352.8v6.3h38.5v-6.3H588.4z M588.4,373.3h38.5v-6.5
		h-38.5V373.3z M588.4,387.8h38.5V381h-38.5V387.8z"/>
	<path class="st1" d="M684.3,424.2v8.8h-7.8v-39.9c-1.8,3.2-3.6,6-5.8,8.7c-0.6-2.6-2.5-8.6-4-11.2c7.6-10.1,12.4-25.1,15.4-41.2
		h-12.2v-9.5h33.8v9.5h-12.3c-1.8,8.6-3.8,17.2-6.6,25h17.5v49.8L684.3,424.2L684.3,424.2z M695,383.7h-10.7v31.2H695V383.7z
		 M742.7,426.6c2.4,0.2,4.8,0.3,7.4,0.3c3.1,0,19.1,0,23.4-0.1c-1.4,2.1-2.7,6.4-2.9,8.9h-21c-14.8,0-25.3-2.8-32.2-14.6
		c-2.4,6.9-5.8,12.8-11.5,17.2l-7.4-6.4c9.6-7,12.9-19.6,14.3-33.9l8.7,1.6c-0.3,3.3-0.8,6.4-1.2,9.4c2.8,8.3,7.2,12.9,12.9,15.3
		v-30.5h-27.6v-8.6h57.8l1.7-0.6l6.6,2.3c-1.8,5.7-4.4,12.3-6.4,16.7l-8-2.9c0.9-1.9,1.8-4.3,2.6-6.9H743v11.8h25.4v8.5h-25.5v12.5
		H742.7z M718.2,364c-3.3,5.7-7.1,11.1-11.1,14.8c-1-2-3.1-5.4-4.6-7c4.6-4.1,9.8-11.1,12.9-18.1h-10v-8.3h12.8v-11.1h8.3v11.1h10.1
		v8.3h-10.1v0.7c2.6,2.3,9.5,9.8,11.1,11.9l-5.2,6.2c-1.2-1.9-3.5-5.5-5.9-8.7v17.9h-8.3V364z M750,366.5
		c-3.2,5.3-6.8,10.1-10.5,13.4c-1-1.9-3.1-5.1-4.6-6.8c5.3-4.1,10.7-11.8,13.9-19.5H739v-8.1h11v-11.1h8.5v11.1h13.3v8.1h-11.4
		c3.8,4.4,11.4,13.7,13.2,16.4l-6,7.1c-1.7-3.6-5.8-10.2-9.2-15.5v20.2H750V366.5L750,366.5z"/>
	<path class="st1" d="M884.7,365.7v7.7h-19.5l-0.9,9.5h-64.7l1.2-9.5H783v-7.7h18.9l1.1-9h63.8l-0.9,9H884.7z M850.1,422.8
		c11.5,2.9,23.3,6.6,31,9.2l-7.1,6.7c-7.9-3.1-21.3-7.5-34.2-11l4.4-4.9h-23l6.7,4.5c-9.3,5-24.7,9.3-37.3,11.2
		c-1.2-1.9-3.8-5.2-5.7-7.2c11-1.5,24.5-5.1,32.4-8.5H798v-35.7h72.2v35.7H850.1z M796,362.5h-9.5v-18.7h42.3
		c-1.2-2.7-2.8-5.4-4.2-7.7l9.1-2.6c2.4,2.9,4.6,7,6.1,10.3h41.3v18.7h-10v-10.3H796V362.5z M808.1,397.1h51.4v-4.3h-51.4V397.1z
		 M808.1,406.9h51.4v-4.4h-51.4V406.9z M808.1,417h51.4v-4.5h-51.4V417z M809.7,377.3h18.4c0.2-1.6,0.5-3.2,0.6-4.9h-18.4
		L809.7,377.3z M811.6,362.5l-0.6,4.3h18.3l0.3-4.3H811.6z M855.3,377.3l0.5-4.9h-18.2c-0.2,1.7-0.5,3.3-0.6,4.9H855.3z
		 M856.6,362.5h-18l-0.5,4.3h18.1L856.6,362.5z"/>
	<path class="st1" d="M989.6,354.7c-3.1,7.1-7.4,13.1-12.6,18.1c6.7,3.8,14.5,6.7,22.9,8.5c-2.1,2-5.2,6.1-6.6,8.8
		c-9-2.4-17.3-6-24.5-10.9c-6.9,4.5-15,7.9-23.9,10.6c-0.6-1.2-1.7-2.9-2.9-4.6c-1.9,6.7-4.1,13.3-6.2,18.2l-7.2-3.6
		c1.8-4.4,3.5-10.7,5-17h-8.7v43.4c0,5.1-0.8,7.9-4.2,9.7c-3.3,1.5-7.9,1.7-14.9,1.7c-0.3-2.8-1.7-7.1-3.1-10
		c4.5,0.2,9.1,0.2,10.4,0.1c1.4-0.1,1.8-0.3,1.8-1.7v-30.7c-4.2,9.7-9.5,18.9-15.3,24.5c-1-3.1-3.5-7.4-5.3-10.1
		c6.8-6,13.2-16.7,17.3-27.1h-15.7v-9.2h28.8c-6.2-4.5-16.1-9.8-24.2-13.3l6.6-6.8c3.2,1.2,6.8,2.8,10.2,4.5
		c3.5-2.7,6.9-6.1,9.7-9.5h-29.8v-8.9h37.2l1.7-0.3l6.8,4.2c-4.2,6.7-11,13.7-17.6,18.9c3.6,2,6.7,4.2,9.1,6l-4.9,5.3h7l1.6-0.6
		l6.3,2.3c-0.3,1.5-0.7,2.9-1,4.5c6.4-1.8,12.2-4.2,17.3-7.1c-3.8-3.6-7.2-7.6-10.1-11.9c-2.3,2.5-4.5,4.6-6.8,6.6
		c-2-1.7-6.1-4.6-8.7-6c8.9-6.4,17-16.6,21.5-27.3l9.8,2.7c-1.4,3.1-2.9,6-4.6,8.9h35.6v8.8L989.6,354.7L989.6,354.7z M995.4,397.1
		c0,0-0.1,2.7-0.3,4.2c-1.9,20.2-4,29-7.1,32.4c-2.3,2.3-4.5,2.9-7.6,3.4c-2.8,0.2-7.5,0.2-12.6,0c-0.2-2.9-1.4-7-2.8-9.7
		c4.4,0.5,8.6,0.6,10.5,0.6c1.7,0,2.6-0.2,3.6-1.2c1.9-1.7,3.5-7.5,5-20.7h-16.4c-3.8,13.9-11.8,25.2-29.6,32.2
		c-1.2-2.5-4.1-6.3-6.2-8.1c14.7-5.3,21.6-13.8,25.1-24.1h-15.8v-8.8h18.1c0.6-3.5,1-7,1.4-10.7h10.4c-0.3,3.7-0.8,7.2-1.4,10.7
		L995.4,397.1L995.4,397.1L995.4,397.1z M957.1,354.7c2.9,4.6,6.8,8.7,11.4,12.4c4-3.5,7.1-7.7,9.5-12.4H957.1z"/>
</g>
<g>
	<g>
		<g>
			<path class="st5" d="M403.6,485.3h268.9c19.2,0,34.8,15.6,34.8,34.8l0,0c0,19.2-15.6,34.8-34.8,34.8H403.6
				c-19.2,0-34.8-15.6-34.8-34.8l0,0C368.9,500.9,384.4,485.3,403.6,485.3z"/>
		</g>
		<g>
			<path class="st1" d="M672.5,556H403.6c-19.8,0-35.9-16.1-35.9-35.9c0-19.8,16.1-35.9,35.9-35.9h268.9c19.8,0,35.9,16.1,35.9,35.9
				C708.4,539.9,692.3,556,672.5,556z M403.6,486.4c-18.6,0-33.7,15.1-33.7,33.7c0,18.6,15.1,33.7,33.7,33.7h268.9
				c18.6,0,33.7-15.1,33.7-33.7c0-18.6-15.1-33.7-33.7-33.7L403.6,486.4L403.6,486.4z"/>
		</g>
	</g>
	<g>
		<g>
			<path class="st6" d="M403.2,485.3L403.2,485.3c19.2,0,34.8,15.6,34.8,34.8l0,0c0,19.2-15.6,34.8-34.8,34.8l0,0
				c-19.2,0-34.8-15.6-34.8-34.8l0,0C368.4,500.9,384,485.3,403.2,485.3z"/>
		</g>
		<g>
			<path class="st1" d="M403.2,556c-19.8,0-35.9-16.1-35.9-35.9c0-19.8,16.1-35.9,35.9-35.9s35.9,16.1,35.9,35.9
				C439.1,539.9,423,556,403.2,556z M403.2,486.4c-18.6,0-33.7,15.1-33.7,33.7c0,18.6,15.1,33.7,33.7,33.7s33.7-15.1,33.7-33.7
				C436.9,501.5,421.8,486.4,403.2,486.4z"/>
		</g>
	</g>
	<g>
		<g>
			<polygon class="st5" points="394.3,504.2 394.3,536 421.2,520.1 			"/>
		</g>
		<g>
			<path class="st1" d="M393.1,538v-35.8l30.2,17.9L393.1,538z M395.4,506.1V534l23.6-14L395.4,506.1z"/>
		</g>
	</g>
	<g>
		<path class="st6" d="M467.1,526.6c-0.1-0.6-0.2-1.2-0.3-1.9c-7.8,1.1-9.2,1.5-10.1,2c-0.3-0.9-1.1-3.3-1.7-4.6
			c1.2-0.3,2.1-1.2,3.5-2.8c0.5-0.6,1.5-1.8,2.6-3.4c-3.1,0.4-4.1,0.6-4.7,0.9c-0.3-0.9-1-3.2-1.6-4.4c0.9-0.2,1.5-1,2.4-2.3
			c0.9-1.2,3.4-5.9,4.8-10.4l4.6,1.9c-1.5,3.5-3.5,7.1-5.5,10.1l2.9-0.2c1.1-1.8,2.2-3.8,3.1-5.8l4.3,2.7c-1.6,3-3.6,6-5.7,8.9
			l3.2-0.9c1,2.9,2,6.7,2.3,8.9L467.1,526.6z M460.7,528.7c-0.3,4-1,8.2-1.9,10.9c-0.8-0.4-2.8-1-3.8-1.3c1-2.6,1.5-6.5,1.8-10.2
			L460.7,528.7z M464.9,528c0.5,2.9,0.9,6.6,0.9,9.1l-3.8,0.6c0-2.5-0.3-6.2-0.7-9.1L464.9,528z M466,520.8c-0.2-1-0.5-2.1-0.8-3
			c-0.9,1.2-1.9,2.3-2.8,3.4L466,520.8z M469,526.8c0.7,1.9,1.4,4.3,1.8,5.9l-3.5,1.2c-0.3-1.6-1-4.2-1.6-6L469,526.8z M481,523.6
			c-1.4,6.7-4.6,11.6-9.1,14.4c-0.6-1-1.9-2.7-2.9-3.6c2.7-1.5,4.9-4.3,6.3-7.6h-3.9v-4.1h5.7l0.8-0.1L481,523.6z M495,523.9
			c-2,1.5-3.9,3.2-5.7,4.5c1.7,2.5,3.8,4.6,6.3,5.9c-1.1,0.9-2.6,2.8-3.4,4.1c-2.5-1.7-4.6-4.2-6.2-7.2v3.7c0,2.3-0.4,3.5-1.9,4.3
			c-1.4,0.7-3.4,0.8-6.2,0.8c-0.2-1.4-0.8-3.4-1.4-4.7c1.6,0.1,3.4,0.1,3.9,0c0.6,0,0.7-0.1,0.7-0.6v-14.8H473v-15.6h6.1
			c0.6-1.5,1.1-3.2,1.4-4.6l5.8,1c-0.6,1.2-1.3,2.4-1.9,3.5h9.2v15.6H486v1.4c0.4,1.2,0.8,2.4,1.3,3.4c1.4-1.3,2.9-2.9,3.8-4.2
			L495,523.9z M477.7,510.4h10.9v-2.1h-10.9V510.4z M477.7,516.2h10.9v-2.3h-10.9V516.2z"/>
		<path class="st6" d="M537.7,532.7v5.2h-39.1v-5.2H514v-32.4h5.5v12.3h15.2v5.2h-15.2v14.9H537.7z"/>
		<path class="st6" d="M580.8,534.2v4.6h-39.3v-4.6h5.6v-24.5h10.1c0.1-0.7,0.3-1.4,0.3-2.2h-14.9V503h15.5c0.1-1.1,0.2-2.2,0.2-3.2
			l5.7,0.6c-0.1,0.8-0.3,1.7-0.5,2.6h16.2v4.5h-17c-0.1,0.8-0.3,1.5-0.5,2.2h13.1v24.5H580.8z M552.1,513.8v2.3h18.1v-2.3H552.1z
			 M570.1,519.8H552v2.1h18.1V519.8z M552.1,528h18.1v-2.3h-18.1V528z M552.1,534.2h18.1v-2.4h-18.1V534.2z"/>
		<path class="st6" d="M621.8,523.7v16.2h-4.7v-1.5h-13.8v1.7h-4.5v-15.4l-0.3,0.1c-0.4-0.6-1-1.4-1.6-2.2c-1.2,0.4-2.3,0.9-3.5,1.3
			v10.7c0,2.4-0.4,3.7-1.7,4.5s-3.1,1-5.9,0.9c-0.1-1.2-0.7-3.4-1.3-4.7c1.5,0.1,3,0.1,3.5,0c0.5,0,0.7-0.2,0.7-0.7v-9.1l-4.3,1.5
			l-0.9-4.9c1.5-0.4,3.3-1,5.2-1.5v-7.7h-4.5v-4.7h4.5v-8.1h4.7v8.1h3.9v4.7h-3.9v6.2l3.1-1l0.5,2.5c2.8-1.2,5.5-3.3,7.4-5.4h-7
			v-3.9h4.4c-0.4-1.2-1.2-3.1-1.8-4.5l3.3-1c-1.5,0-3.1,0.1-4.5,0.1c-0.1-1.1-0.6-2.7-1.1-3.7c7.7-0.3,16.8-0.9,22.3-2l2.6,3.7
			c-3,0.5-6.5,0.9-10.3,1.3v6.1h1.5c0.8-1.9,1.8-4.4,2.3-6.3l4.3,1.1c-0.8,1.8-1.6,3.6-2.3,5.2h5.1v3.9h-7.1c3.1,1.9,6.2,4.1,8,5.8
			L621.8,523.7z M607.9,517.3c-1.5,2-3.4,3.8-5.4,5.2h17.4c-2-1.7-4.8-3.7-7.4-5.4v4.6h-4.6V517.3z M607.9,505.4
			c-1.2,0.1-2.4,0.1-3.7,0.2c0.7,1.5,1.5,3.3,1.9,4.4l-3.3,1.1h5.1V505.4z M608.1,526.4h-4.7v2.3h4.7V526.4z M603.4,534.8h4.7v-2.5
			h-4.7V534.8z M617.1,526.4h-4.9v2.3h4.9V526.4z M617.1,534.8v-2.5h-4.9v2.5H617.1z"/>
	</g>
	<g>
		<path class="st6" d="M645.1,505.7v4.2h-16.4v-4.2H645.1z M670.2,525.7h-7.5c2.1,3.2,4.6,5.8,7.6,8c0.4,0.3,0.9,0.6,1.2,0.8
			c-1.2,0.9-2.4,2.1-3.4,3.8c-0.1,0.1-0.1,0.2-0.2,0.3c-2.7-2.1-5.1-4.9-7.4-8.4v10.3h-5.3v-9.9c-2.4,3.6-5,6.3-7.9,8.2
			c-0.9-1.4-2-2.7-3.4-3.9v3.3H635v1.8h-4.4v-15.4H644v10c3.2-1.7,6-4.3,8.3-7.6c0.3-0.4,0.6-0.8,0.8-1.2h-7.4v-4.7h9.6v-2.7h-8.4
			V500h22.2v18.4h-8.6v2.7h9.6v4.6L670.2,525.7L670.2,525.7z M643.9,512v4.1h-13.2V512H643.9z M630.8,522.2v-4H644v4H630.8z
			 M643.8,499.6v4.1h-12.9v-4.1H643.8z M639.5,533.9v-5.2H635v5.2H639.5z M651.7,504.2v2.9h3.8v-2.9H651.7z M651.7,511.2v2.9h3.8
			v-2.9H651.7z M664.2,507.1v-2.9h-4v2.9H664.2z M664.2,514.1v-2.9h-4v2.9H664.2z"/>
	</g>
</g>
<path class="st5" d="M654.6,13.6H420.8c-19.4,0-35,15.7-35,35v0c0,19.4,15.7,35,35,35h233.8c19.4,0,35-15.7,35-35v0
	C689.7,29.3,674,13.6,654.6,13.6z"/>
<g>
	<path class="st6" d="M410.8,56.4h5.3V40.8h-4.5v-3c2.5-0.5,4.2-1.1,5.7-2.1h3.6v20.6h4.6v4h-14.8V56.4z"/>
	<path class="st6" d="M430.4,56.4h5.3V40.8h-4.5v-3c2.5-0.5,4.2-1.1,5.7-2.1h3.6v20.6h4.6v4h-14.8V56.4z"/>
	<path class="st6" d="M456,33.6h3.3L451,66.4h-3.3L456,33.6z"/>
	<path class="st6" d="M461,57.4l2.3-3.1c1.4,1.4,3.1,2.5,5.4,2.5c2.6,0,4.4-1.6,4.4-4.5c0-2.9-1.7-4.5-4.2-4.5
		c-1.5,0-2.3,0.4-3.7,1.3l-2.2-1.5l0.7-11.9h13.2v4.1h-8.9l-0.5,5.2c1-0.5,1.8-0.7,3-0.7c4.1,0,7.6,2.5,7.6,7.8
		c0,5.5-4.1,8.6-8.6,8.6C465.5,60.8,462.9,59.3,461,57.4z"/>
	<path class="st6" d="M511.6,56.1h-11.4v7.1h-4.1v-7.1h-15v-3.8h5.3v-8.7h9.7v-4H489c-1.4,2.4-3,4.5-4.5,6.1c-0.8-0.7-2.5-2-3.4-2.6
		c3-2.5,5.6-6.8,7-11.1l4,1c-0.3,0.9-0.7,1.8-1.1,2.7h18.8v3.8h-9.5v4h8.8v3.7h-8.8v5.1h11.4V56.1z M496.1,52.3v-5.1h-5.8v5.1H496.1
		z"/>
	<path class="st6" d="M533.9,49.4c2.9,3.6,7.3,6.8,11.5,8.7c-1,0.8-2.3,2.5-3,3.5c-3.9-2.1-7.7-5.5-10.7-9.3v10.9h-4.2V52.6
		c-3,3.8-6.8,7.1-10.7,9.2c-0.7-1-2-2.7-2.9-3.5c4.3-1.9,8.7-5.3,11.7-8.9h-8.9v-3.9h10.8v-4.4h-12.3v-4h12.3v-5.1h4.2v5.1h12.6v4
		h-12.6v4.4h11.1v3.9H533.9z"/>
	<path class="st6" d="M577,49.8c-0.9,3.1-2.3,5.6-4.1,7.7c1.6,1,3.6,1.8,5.7,2.3c-0.8,0.7-1.8,2.1-2.3,3.1c-2.3-0.7-4.3-1.6-6-2.9
		c-1.8,1.4-3.7,2.4-5.8,3.2c-0.4-0.9-1.3-2.1-2-2.9v3h-3.7v-2.9c-3.9,0.4-7.7,0.8-10.7,1.1l-0.3-3.4c0.9-0.1,1.8-0.1,2.9-0.2V47.8
		h-2.6v-3.1h29.5v3.1h-15.1V60c1.8-0.5,3.5-1.4,5-2.5c-1.3-1.5-2.4-3.2-3.2-5.1l1.2-0.3h-2v-3h10.4l0.6-0.1L577,49.8z M555.7,43.6
		H552V33.2h21.8v10.4h-4v-7.7h-14.1V43.6z M554.2,47.8v1.4h4.6v-1.4H554.2z M554.2,53.2h4.6v-1.3h-4.6V53.2z M554.2,57.5
		c1.5-0.1,3.1-0.3,4.6-0.4v-1.2h-4.6V57.5z M568.6,39.4h-11.8v-2.3h11.8V39.4z M556.8,43v-2.3h11.8V43H556.8z M567.8,52.1
		c0.6,1.1,1.4,2.2,2.3,3.1c0.9-0.9,1.6-2,2.2-3.1H567.8z"/>
	<path class="st6" d="M589.8,53c-0.1-0.5-0.2-1.1-0.3-1.7c-6,1-7,1.3-7.7,1.6c-0.2-0.7-0.8-2.5-1.3-3.5c0.9-0.2,1.6-1,2.7-2.2
		c0.4-0.5,1.1-1.4,2-2.7c-2.5,0.3-3.2,0.5-3.7,0.7c-0.2-0.7-0.8-2.4-1.2-3.4c0.7-0.2,1.3-0.8,1.9-1.8c0.7-0.9,2.8-4.6,4-8.1l3.5,1.5
		c-1.3,2.8-2.9,5.8-4.7,8.1l2.2-0.2c0.9-1.4,1.7-3,2.4-4.5l3.3,2c-1.3,2.3-2.8,4.7-4.5,6.8l2.4-0.7c0.8,2.3,1.6,5.2,1.9,7L589.8,53z
		 M584.9,54.5c-0.2,3-0.8,6.1-1.5,8.1c-0.7-0.4-2.2-0.9-3-1.1c0.8-2,1.2-4.9,1.4-7.6L584.9,54.5z M588.5,53.9
		c0.4,2.3,0.8,5.3,0.9,7.2l-2.9,0.6c-0.1-2-0.4-5-0.8-7.2L588.5,53.9z M588.9,48.5c-0.2-0.8-0.4-1.6-0.7-2.3
		c-0.7,0.9-1.4,1.8-2.2,2.7L588.9,48.5z M591.8,53c0.8,1.9,1.6,4.4,2,6l-2.8,1c-0.3-1.6-1.1-4.2-1.9-6.1L591.8,53z M610.2,36.6
		c-1.3,3.2-3.1,6-5.4,8.3c2.2,1.6,4.7,3,7.3,3.9c-0.8,0.8-2,2.2-2.5,3.2c-2.7-1.1-5.2-2.7-7.4-4.6c-2.3,1.9-4.9,3.4-7.5,4.5
		c-0.4-0.9-1.6-2.5-2.4-3.1c2.6-0.9,5.1-2.3,7.2-4c-0.8-1-1.6-2-2.3-3.1c-0.8,0.9-1.6,1.7-2.5,2.6c-0.5-0.8-1.8-2-2.7-2.5
		c3.3-2.8,5.5-6.5,6.6-9.5l3.8,0.6c-0.3,0.9-0.7,1.7-1.1,2.5h5.9l0.6-0.1L610.2,36.6z M596.8,55.5c4.3,1.1,9.4,3.3,12.5,5l-2.3,3.1
		c-2.9-1.8-8.2-4.1-12.5-5.3L596.8,55.5z M600.4,49.8c2.4,0.9,5.2,2.5,6.8,3.6l-2.3,2.8c-1.5-1.3-4.4-3-6.8-3.9L600.4,49.8z
		 M599.4,38.8c0.8,1.2,1.7,2.5,2.8,3.6c1.1-1.2,2.1-2.4,2.9-3.8h-5.6L599.4,38.8z"/>
	<path class="st6" d="M631.6,48.8c-0.3,0.5-0.6,1.1-0.9,1.6h13.5c0,0,0,0.9-0.1,1.4c-0.5,6.5-1,9.1-1.9,10.1c-0.6,0.8-1.4,1-2.2,1.1
		c-0.8,0.1-2,0.1-3.4,0.1c-0.1-0.9-0.4-2.3-0.9-3.1c1.1,0.1,1.9,0.1,2.4,0.1c0.5,0,0.7-0.1,1-0.4c0.5-0.5,0.9-2.2,1.2-6.2h-1.3
		c-1.4,3.7-4,7.7-6.6,9.8c-0.7-0.8-1.8-1.7-2.8-2.2c2.5-1.6,4.8-4.6,6.2-7.6h-2c-1.8,3.2-4.9,6.5-7.8,8.3c-0.6-0.8-1.7-1.8-2.6-2.3
		c2.5-1.2,5-3.6,6.8-6h-2c-1.2,1.3-2.5,2.4-3.9,3.3c-0.5-0.6-1.8-1.8-2.6-2.3c-2.4,1.2-4.8,2.4-6.8,3.4l-1.5-4
		c1.1-0.4,2.5-1,4.1-1.6v-9.4h-3.3v-3.7h3.3v-6.5h3.7v6.5h3.1v3.7h-3.1v7.8l2.7-1.2l0.7,2.8c1.2-1,2.2-2.2,3.1-3.5H624v-3.3h20.9
		v3.3H631.6z M642.6,44.2h-15.7V33h15.7V44.2z M639,35.7h-8.6v1.6h8.6V35.7z M639,39.9h-8.6v1.6h8.6V39.9z"/>
	<path class="st6" d="M652.5,57.5c0.7-2.2,3-3.2,5.2-2.4c2.3,0.8,3.4,2.9,2.7,5.1c-0.7,2.2-3,3.2-5.2,2.4
		C653,61.8,651.8,59.7,652.5,57.5z M659.7,38.2l1.8-5.7l7,2.4l-2.1,5.6l-5.7,12.6l-3.9-1.3L659.7,38.2z"/>
</g>
</svg>
