<?xml version="1.0" encoding="utf-8"?>
<!-- Generator: Adobe Illustrator 25.4.1, SVG Export Plug-In . SVG Version: 6.00 Build 0)  -->
<svg version="1.1" id="圖層_1" xmlns="http://www.w3.org/2000/svg" xmlns:xlink="http://www.w3.org/1999/xlink" x="0px" y="0px"
	 viewBox="0 0 1103 677.6" style="enable-background:new 0 0 1103 677.6;" xml:space="preserve">
<style type="text/css">
	.st0{fill:#E2AE46;}
	.st1{fill:#231815;}
	.st2{fill:#458DA7;}
	.st3{opacity:0.5;fill:#D98239;enable-background:new    ;}
	.st4{opacity:0.5;fill:#458DA7;enable-background:new    ;}
	.st5{fill:#D71618;}
	.st6{fill:#FFFFFF;}
</style>
<g>
	<g>
		<g>
			<path class="st0" d="M86.2,344.3c-15.3,0-24.6-6.3-30.9-14.3c-9.9-12.1-10.5-30.8-10.5-57.9c0-27.1,0.6-45.8,10.5-57.9
				c6.3-7.9,15.7-14.3,30.9-14.3c11.9,0,21,4,27.8,10.5c7.5,7.5,11.5,18.6,12.1,31.5H97.9c-0.2-6-1-16.7-11.7-16.7
				c-5.2,0-7.9,2.4-9.5,5.6c-3.4,6.5-3.8,24.2-3.8,41.3s0.4,34.7,3.8,41.3c1.6,3.2,4.4,5.6,9.5,5.6c9.3,0,11.7-8.7,11.7-16.5v-14.7
				H86.2V265h39.9v35.9C126.1,329,110.4,344.3,86.2,344.3z"/>
			<path class="st1" d="M187.9,334.8c-5.2,6.9-12.7,9.5-21.8,9.5s-16.5-2.6-21.6-9.5c-6.3-8.1-7.5-22.6-7.5-43.4
				c0-20.8,1.2-35.3,7.5-43.4c5.2-6.9,12.5-9.5,21.6-9.5s16.7,2.6,21.8,9.5c6.3,8.1,7.3,22.6,7.3,43.4
				C195.2,312.1,194.2,326.6,187.9,334.8z M175.2,257.2c-2-2.8-5.4-4.4-9.1-4.4c-3.8,0-6.9,1.6-8.9,4.4c-3.8,5.2-4.2,15.7-4.2,34.1
				c0,18.4,0.4,29,4.2,34.1c2,2.8,5.2,4.4,8.9,4.4c3.8,0,7.1-1.6,9.1-4.4c3.8-5.2,4-15.7,4-34.1
				C179.1,272.9,178.9,262.3,175.2,257.2z"/>
			<path class="st1" d="M258.9,334.8c-5.2,6.9-12.7,9.5-21.8,9.5s-16.5-2.6-21.6-9.5c-6.3-8.1-7.5-22.6-7.5-43.4
				c0-20.8,1.2-35.3,7.5-43.4c5.2-6.9,12.5-9.5,21.6-9.5s16.7,2.6,21.8,9.5c6.3,8.1,7.3,22.6,7.3,43.4
				C266.2,312.1,265.2,326.6,258.9,334.8z M246.2,257.2c-2-2.8-5.4-4.4-9.1-4.4c-3.8,0-6.9,1.6-8.9,4.4c-3.8,5.2-4.2,15.7-4.2,34.1
				c0,18.4,0.4,29,4.2,34.1c2,2.8,5.2,4.4,8.9,4.4c3.8,0,7.1-1.6,9.1-4.4c3.8-5.2,4-15.7,4-34.1C250.2,272.9,250,262.3,246.2,257.2z
				"/>
			<path class="st1" d="M336.4,345.1c0,15.3-2.6,22.8-8.3,28.8c-4.8,5-12.3,7.9-20.2,7.9c-7.9,0-15.5-2.4-20.6-7.3
				c-5.8-5.8-7.7-13.3-7.7-22.2h16.1c0,5,0.6,9.1,3.4,12.3c2.2,2.2,5.4,3.4,8.7,3.4c3.8,0,6.7-1.6,8.7-3.8c3-3.2,4-8.5,4-18.1v-15.7
				c-1.6,2.2-3.6,4.4-5.8,5.8c-3,2.2-6.5,3.2-10.7,3.2c-6.9,0-12.5-2.4-16.9-7.5c-6.5-7.3-8.1-18.8-8.1-43c0-24.2,1.6-35.5,8.1-43.1
				c4.4-5,9.7-7.3,16.9-7.3c4.4,0,7.9,1,11.1,3.2c2.2,1.4,4.4,3.6,5.8,5.6v-7.1h15.7L336.4,345.1L336.4,345.1z M320.3,267.7
				c0-5.6-1.4-9.1-4-11.7c-2.2-2.2-5-3.2-8.3-3.2c-3.8,0-6.7,1.6-8.7,4.2c-3.6,4.4-4.2,12.3-4.2,31.9c0,19.6,0.6,27.6,4.2,32.1
				c2,2.4,5,4.2,8.7,4.2c3.4,0,6.1-1.2,8.3-3.4c2.6-2.6,4-6.1,4-11.7V267.7z"/>
			<path class="st1" d="M362.4,336.3c-5.6-4.6-9.1-11.7-9.1-23V201.4h16.1v111.3c0,10.1,4.8,15.5,15.3,15.5v14.5
				C375.9,342.7,368.6,341.5,362.4,336.3z"/>
			<path class="st1" d="M409.6,295.1c0,16.3,0.6,25.8,4.2,30.4c1.8,2.6,5,4.4,9.1,4.4c3.6,0,6.5-1,9.1-4s3.4-6.9,3.4-11.9h16.1
				c-0.2,9.5-2.6,16.7-8.3,22.8c-5,5.2-11.9,7.5-20.2,7.5c-8.7,0-15.1-2.2-20.4-7.9c-7.7-8.1-9.1-23.6-9.1-45
				c0-21.6,1.4-36.9,8.9-45c5.4-5.8,11.9-7.9,20.2-7.9c8.3,0,14.9,2.2,20.2,7.9c7.7,8.1,9.1,23.4,9.1,48.8L409.6,295.1L409.6,295.1z
				 M431.7,257c-2-2.6-4.8-4.2-9.1-4.2c-4.4,0-6.9,1.6-8.9,4.2c-3.2,3.8-4,11.1-4,26h26C435.6,268.1,434.8,260.8,431.7,257z"/>
		</g>
		<g>
			<path class="st2" d="M558.7,343.3l-4.6-22h-32.5l-4.6,22h-29.4L524,202h27.8l36.3,141.2L558.7,343.3L558.7,343.3z M537.9,243.5
				L527,295.9h21.8L537.9,243.5z"/>
			<path class="st1" d="M638.1,343.3v-75.6c0-9.3-5.6-14.1-12.3-14.1s-12.1,4.8-12.1,14.1v75.6h-16.1V240.5h15.5v7.9
				c1.4-2.4,4.2-5,6.3-6.3c3.2-2,6.9-3.2,11.1-3.2c7.7,0,13.1,2.6,17.5,7.5c4.2,4.6,6.1,10.1,6.1,21.2v75.6L638.1,343.3L638.1,343.3
				L638.1,343.3z"/>
			<path class="st1" d="M709.4,343.3v-9.1c-1.6,2.8-4,5.4-5.9,6.9c-3.2,2.4-6.5,3.8-12.1,3.8c-7.5,0-12.9-2.4-17.7-7.7
				c-4-4.6-6.5-12.3-6.5-23c0-9.5,3.2-17.9,9.1-23.2c5.2-4.6,11.1-6.9,21.8-6.9h10.5v-16.3c0-9.5-4.2-14.7-12.1-14.7
				c-3.6,0-6,1.4-7.9,3.4c-2.8,3-3.8,6.3-3.8,11.9h-16.1c0-7.9,1.8-15.7,7.9-21.8c4.6-4.6,11.9-7.5,19.8-7.5c8.3,0,15.3,2.4,20,7.1
				c5,5.2,8.1,12.1,8.1,22.6v74.6L709.4,343.3L709.4,343.3z M708.6,295.7h-9.1c-5,0-8.3,0.8-11.5,3.8c-3,2.8-4.8,8.5-4.8,14.1
				c0,10.7,4.2,17.3,12.5,17.3c7.7,0,12.9-6.5,12.9-16.1L708.6,295.7L708.6,295.7z"/>
			<path class="st1" d="M750.1,336.9c-5.6-4.6-9.1-11.7-9.1-23V202h16v111.3c0,10.1,4.8,15.5,15.3,15.5v14.5
				C763.5,343.3,756.2,342.1,750.1,336.9z"/>
			<path class="st1" d="M808.4,359.7c-4.4,18.4-17.1,22-34.1,22v-14.3c9.9,0,16.1-2.6,18.5-11.9L796,343l-25-102.6h17.7l15.7,77.2
				l15.5-77.2h17.7L808.4,359.7z"/>
			<path class="st1" d="M865.4,336.9c-5.8-4.8-8.9-12.3-8.9-23V253h-11.7v-12.5h11.7v-28.1h16.1v28.2h15.9v12.5h-15.9v60.3
				c0,10.9,5.8,15.5,16.5,15.5v14.5C879.9,343.3,872,342.5,865.4,336.9z"/>
			<path class="st1" d="M899.8,222.3v-18.7h18.8v18.6C918.6,222.3,899.8,222.3,899.8,222.3z M901.2,343.3V240.5h16.1v102.8H901.2
				L901.2,343.3z"/>
			<path class="st1" d="M981,337.7c-5,5-11.9,7.1-20.2,7.1c-8.7,0-16.5-2.6-21.6-9.5c-6.3-8.1-7.5-22.8-7.5-43.4
				c0-20.8,1.2-35.3,7.5-43.4c5.2-6.9,12.9-9.5,21.6-9.5c8.3,0,14.7,1.8,20,6.9c6.3,6,7.9,14.5,8.3,23.2H973c0-4.2-0.4-8.5-3.2-11.9
				c-2.2-2.6-5-3.8-8.9-3.8c-3.8,0-7.1,1.6-9.1,4.4c-3.8,5-4,15.5-4,34.1c0,18.4,0.2,29,4,34.1c2,2.8,5.4,4.4,9.1,4.4
				c3.6,0,6.7-1.4,8.7-3.8c2.8-3.2,3.4-7.3,3.4-12.1h16.1C988.7,324.2,986.4,332.2,981,337.7z"/>
			<path class="st1" d="M1050.4,336.7c-5.6,5.8-12.7,8.1-21,8.1s-15.7-2.8-20.6-7.9c-6-6.1-8.7-13.3-8.7-22.6h15.9
				c0,5.4,1.4,9.3,4.4,12.5c2.4,2.4,6,3.6,9.1,3.6c4.2,0,7.1-1.2,9.7-3.8c2.4-2.4,4-6.2,4-10.3c0-3.6-0.8-6.5-2.6-9.3
				c-2-3-5-5.2-9.1-7.3l-13.3-6.7c-6.7-3.4-11.5-7.5-14.1-11.9c-2.2-3.8-3.2-8.1-3.2-13.5c0-8.9,3.4-15.7,8.5-20.8
				c5.2-5.2,12.3-7.7,20.2-7.7c8.1,0,15.1,2.4,20,7.3c5.4,5.2,8.3,12.5,8.3,22.6H1042c0-6-1.2-9.5-3.8-12.3
				c-2.4-2.6-5.6-3.6-8.7-3.6c-3.8,0-6.7,1.2-8.9,3.4c-2.6,2.6-3.8,6.1-3.8,9.9c0,3,0.6,5.4,1.8,7.5c1.4,2.4,4.4,4.8,8.5,6.7
				l13.1,6.5c6.9,3.4,11.5,6.9,14.5,11.7c2.8,4.2,4.4,9.9,4.4,16.5C1059.2,324.4,1055.6,331.6,1050.4,336.7z"/>
		</g>
	</g>
	<g>
		<rect x="233.7" y="398.6" class="st3" width="68.5" height="21.8"/>
		<path class="st1" d="M124.7,444.8c-4.3-4.1-13.3-9.3-20.7-12.4l5.5-7.9c7.2,2.8,16.4,7.7,21,11.4L124.7,444.8z M135.6,459.1
			c-6,11.8-13.5,25.2-20.2,36l-8.8-7.1c6-8.6,14.7-23,21.3-35.9L135.6,459.1z M128.3,415.4c-3.8-4.3-12.4-10.2-19.3-13.8l5.9-7.7
			c6.9,3.4,15.6,8.9,19.8,13.1L128.3,415.4z M145.3,446h9.5v11.4c0,12.4-1.8,27.5-16.3,38.6c-1.6-2.1-5.1-5.5-7.4-6.9
			c12.8-9.5,14.1-21.9,14.1-31.9L145.3,446L145.3,446z M198.7,446c-1.4-2.1-3.3-4.9-5.4-7.7c-44,2.9-49.4,3.4-53.1,4.9
			c-0.6-2.1-2.3-7.1-3.4-9.8c2.5-0.6,5.1-3.2,8.4-7.1c1.6-1.7,4.4-5.2,7.7-10h-17v-9.5h23.5c2.7-4.5,5.7-9.4,7.9-14.1l10.3,4.1
			c-1.9,3.4-4.1,6.8-6.1,10.1h34.3v9.5H165c-4.2,5.7-8.4,10.9-12.6,15.6l34.5-2c-2.5-2.9-4.9-5.9-6.9-8.6l7.9-4.5
			c6.3,7.5,15,17.8,19.3,23.9L198.7,446z M164.9,446.9h9.3v44.7h-9.3V446.9z M201.5,485.8c1.4,0,3.7-0.2,5.1-0.7
			c0.1,2.6,0.5,6,0.8,8.1c-1.5,0.6-3.7,0.7-5.8,0.7H195c-8.8,0-10.5-3.7-10.5-12.8v-35.2h9.7v35.4c0,3.3,0.2,4.4,1.7,4.4
			L201.5,485.8L201.5,485.8z"/>
		<path class="st1" d="M320.2,485.7v8H218.3v-8h45.6v-5.4h-36v-7.1h36v-5.1h-33.1v-28.3h77.6v28.3H274v5.1h36.5v7.1H274v5.4H320.2z
			 M319.8,435.5h-101v-7.7h101V435.5z M305.3,423.5h-72.5v-27.4h72.5V423.5z M240.7,451h23.2v-5.2h-23.2V451L240.7,451z M263.9,462
			v-5.3h-23.2v5.3H263.9z M294.6,401.9h-51.7v5.1h51.7V401.9z M294.6,412.5h-51.7v5.2h51.7V412.5z M298,445.7h-24v5.2h24V445.7z
			 M298,456.7h-24v5.3h24V456.7z"/>
		<path class="st1" d="M403.4,394.5c5.3,17.1,17.1,33.1,32.1,41.3c-2.4,2.2-5.9,6.6-7.6,9.6c-3.6-2.4-7.1-5.1-10.3-8.1
			c0,0.7-0.1,1.5-0.1,1.9c-1.5,34.4-2.9,47.5-6.9,51.9c-2.5,3.2-5.2,4.1-9.3,4.6c-3.7,0.5-10.6,0.3-17.5,0
			c-0.1-3.2-1.6-7.6-3.4-10.6c6.8,0.7,13.2,0.8,16,0.8c2.1,0,3.5-0.3,4.8-1.6c2.6-2.7,4.1-13.4,5.2-39.7h-26
			c-2.9,21.9-10.3,41.9-39.3,52.5c-1.2-2.8-4.3-7.2-6.8-9.4c26.1-8.7,32.1-25.1,34.6-43.1h-21.3v-7.8c-2.9,3.3-6.1,6.2-9.3,8.8
			c-1.9-2.1-6.3-6-8.9-7.8c13-9.2,23.2-24.3,28.6-41.4l11,2.6c-4.5,13.5-11.2,25.7-19.3,35.4h65.2c-8.3-8.7-14.9-19.2-19.2-30.2h-19
			v-9.7L403.4,394.5L403.4,394.5L403.4,394.5z"/>
		<path class="st1" d="M480.6,460c-1.8-3.7-5.4-10-8.9-15.5v51.9h-10.1v-49.2c-3.8,11.4-8.7,22.2-13.9,29.1
			c-1.1-3.1-3.6-7.2-5.3-9.7c7.4-9.2,14.6-25.8,18-40.4h-14.9v-10h16.2v-23.6h10.1v23.6H488v10h-16.2v5.2
			c4.1,5.1,13.1,17.2,15.3,20.4L480.6,460z M546.9,440.7h-15.5v55.8H521v-55.8h-18c-0.1,17.1-2,40.4-12.4,55.5
			c-1.8-1.7-6.2-4.3-8.7-5.3c10.3-14.8,11.2-36.3,11.2-52V405c13.9-2.6,29.6-6.8,38.7-11.1l8.9,8.3c-10.5,4.4-24.6,7.8-37.7,10.3
			v18.3h43.9V440.7L546.9,440.7z"/>
	</g>
	<rect x="583" y="406.8" class="st4" width="50.9" height="43.7"/>
	<rect x="801.2" y="447.4" class="st4" width="66" height="31.9"/>
	<rect x="678.4" y="437.8" class="st3" width="22.5" height="39.6"/>
	<path class="st1" d="M636.3,455.3c6.3,6.6,15.3,12.3,24,15.4c-2.3,1.9-5.3,5.7-6.9,8.1c-10.9-4.8-21.6-13.7-28.5-23.5h-33.7
		c-2.7,4-6.2,7.9-10,11.4h20.7v-8.5h10.6v8.5h22.4v8.4h-22.4v10.1h38v8.7h-85.2v-8.7h36.5v-10.1h-21.6v-7.5
		c-5.7,5.1-12.2,9.4-18.7,12.4c-1.5-2.5-4.5-6.2-6.8-8c8.9-3.4,18-9.7,24.4-16.7H556v-8.7h21.9v-35h-16.4V403h16.4v-9.8h10.5v9.8
		h38.5v-9.7h10.7v9.7h16.2v8.6h-16.2v35h21.3v8.7H636.3L636.3,455.3z M588.4,411.6v6.3h38.5v-6.3H588.4z M588.4,432.1h38.5v-6.5
		h-38.5V432.1z M588.4,446.6h38.5v-6.8h-38.5V446.6z"/>
	<path class="st1" d="M684.3,483v8.8h-7.8v-39.9c-1.8,3.2-3.6,6-5.8,8.7c-0.6-2.6-2.5-8.6-4-11.2c7.6-10.1,12.4-25.1,15.4-41.2
		h-12.2v-9.5h33.8v9.5h-12.3c-1.8,8.6-3.8,17.2-6.6,25h17.5V483L684.3,483L684.3,483z M695,442.5h-10.7v31.2H695V442.5z
		 M742.7,485.4c2.4,0.2,4.8,0.3,7.4,0.3c3.1,0,19.1,0,23.4-0.1c-1.4,2.1-2.7,6.4-2.9,8.9h-21c-14.8,0-25.3-2.8-32.2-14.6
		c-2.4,6.9-5.8,12.8-11.5,17.2l-7.4-6.4c9.6-7,12.9-19.6,14.3-33.9l8.7,1.6c-0.3,3.3-0.8,6.4-1.2,9.4c2.8,8.3,7.2,12.9,12.9,15.3
		v-30.5h-27.6V444h57.8l1.7-0.6l6.6,2.3c-1.8,5.7-4.4,12.3-6.4,16.7l-8-2.9c0.9-1.9,1.8-4.3,2.6-6.9H743v11.8h25.4v8.5h-25.5v12.5
		H742.7z M718.2,422.8c-3.3,5.7-7.1,11.1-11.1,14.8c-1-2-3.1-5.4-4.6-7c4.6-4.1,9.8-11.1,12.9-18.1h-10v-8.3h12.8v-11.1h8.3v11.1
		h10.1v8.3h-10.1v0.7c2.6,2.3,9.5,9.8,11.1,11.9l-5.2,6.2c-1.2-1.9-3.5-5.5-5.9-8.7v17.9h-8.3V422.8z M750,425.3
		c-3.2,5.3-6.8,10.1-10.5,13.4c-1-1.9-3.1-5.1-4.6-6.8c5.3-4.1,10.7-11.8,13.9-19.5H739v-8.1h11v-11.1h8.5v11.1h13.3v8.1h-11.4
		c3.8,4.4,11.4,13.7,13.2,16.4l-6,7.1c-1.7-3.6-5.8-10.2-9.2-15.5v20.2H750V425.3L750,425.3z"/>
	<path class="st1" d="M884.7,424.5v7.7h-19.5l-0.9,9.5h-64.7l1.2-9.5H783v-7.7h18.9l1.1-9h63.8l-0.9,9H884.7z M850.1,481.6
		c11.5,2.9,23.3,6.6,31,9.2l-7.1,6.7c-7.9-3.1-21.3-7.5-34.2-11l4.4-4.9h-23l6.7,4.5c-9.3,5-24.7,9.3-37.3,11.2
		c-1.2-1.9-3.8-5.2-5.7-7.2c11-1.5,24.5-5.1,32.4-8.5H798v-35.7h72.2v35.7H850.1z M796,421.3h-9.5v-18.7h42.3
		c-1.2-2.7-2.8-5.4-4.2-7.7l9.1-2.6c2.4,2.9,4.6,7,6.1,10.3h41.3v18.7h-10V411H796V421.3z M808.1,455.9h51.4v-4.3h-51.4V455.9z
		 M808.1,465.7h51.4v-4.4h-51.4V465.7z M808.1,475.8h51.4v-4.5h-51.4V475.8z M809.7,436.1h18.4c0.2-1.6,0.5-3.2,0.6-4.9h-18.4
		L809.7,436.1z M811.6,421.3l-0.6,4.3h18.3l0.3-4.3H811.6z M855.3,436.1l0.5-4.9h-18.2c-0.2,1.7-0.5,3.3-0.6,4.9H855.3z
		 M856.6,421.3h-18l-0.5,4.3h18.1L856.6,421.3z"/>
	<path class="st1" d="M989.6,413.5c-3.1,7.1-7.4,13.1-12.6,18.1c6.7,3.8,14.5,6.7,22.9,8.5c-2.1,2-5.2,6.1-6.6,8.8
		c-9-2.4-17.3-6-24.5-10.9c-6.9,4.5-15,7.9-23.9,10.6c-0.6-1.2-1.7-2.9-2.9-4.6c-1.9,6.7-4.1,13.3-6.2,18.2l-7.2-3.6
		c1.8-4.4,3.5-10.7,5-17h-8.7V485c0,5.1-0.8,7.9-4.2,9.7c-3.3,1.5-7.9,1.7-14.9,1.7c-0.3-2.8-1.7-7.1-3.1-10
		c4.5,0.2,9.1,0.2,10.4,0.1c1.4-0.1,1.8-0.3,1.8-1.7v-30.7c-4.2,9.7-9.5,18.9-15.3,24.5c-1-3.1-3.5-7.4-5.3-10.1
		c6.8-6,13.2-16.7,17.3-27.1h-15.7v-9.2h28.8c-6.2-4.5-16.1-9.8-24.2-13.3l6.6-6.8c3.2,1.2,6.8,2.8,10.2,4.5
		c3.5-2.7,6.9-6.1,9.7-9.5h-29.8v-8.9h37.2l1.7-0.3l6.8,4.2c-4.2,6.7-11,13.7-17.6,18.9c3.6,2,6.7,4.2,9.1,6l-4.9,5.3h7l1.6-0.6
		l6.3,2.3c-0.3,1.5-0.7,2.9-1,4.5c6.4-1.8,12.2-4.2,17.3-7.1c-3.8-3.6-7.2-7.6-10.1-11.9c-2.3,2.5-4.5,4.6-6.8,6.6
		c-2-1.7-6.1-4.6-8.7-6c8.9-6.4,17-16.6,21.5-27.3l9.8,2.7c-1.4,3.1-2.9,6-4.6,8.9h35.6v8.8L989.6,413.5L989.6,413.5z M995.4,455.9
		c0,0-0.1,2.7-0.3,4.2c-1.9,20.2-4,29-7.1,32.4c-2.3,2.3-4.5,2.9-7.6,3.4c-2.8,0.2-7.5,0.2-12.6,0c-0.2-2.9-1.4-7-2.8-9.7
		c4.4,0.5,8.6,0.6,10.5,0.6c1.7,0,2.6-0.2,3.6-1.2c1.9-1.7,3.5-7.5,5-20.7h-16.4c-3.8,13.9-11.8,25.2-29.6,32.2
		c-1.2-2.5-4.1-6.3-6.2-8.1c14.7-5.3,21.6-13.8,25.1-24.1h-15.8v-8.8h18.1c0.6-3.5,1-7,1.4-10.7h10.4c-0.3,3.7-0.8,7.2-1.4,10.7
		L995.4,455.9L995.4,455.9L995.4,455.9z M957.1,413.5c2.9,4.6,6.8,8.7,11.4,12.4c4-3.5,7.1-7.7,9.5-12.4H957.1z"/>
</g>
<g>
	<g>
		<g>
			<path class="st5" d="M348.3,545.6H728c27.1,0,49.1,22,49.1,49.1l0,0c0,27.1-22,49.1-49.1,49.1H348.3c-27.1,0-49.1-22-49.1-49.1
				l0,0C299.2,567.6,321.2,545.6,348.3,545.6z"/>
		</g>
		<g>
			<path class="st1" d="M728,645.5H348.3c-28,0-50.7-22.8-50.7-50.7c0-28,22.8-50.7,50.7-50.7H728c28,0,50.7,22.8,50.7,50.7
				C778.7,622.7,756,645.5,728,645.5z M348.3,547.2c-26.2,0-47.5,21.3-47.5,47.5s21.3,47.5,47.5,47.5H728
				c26.2,0,47.5-21.3,47.5-47.5s-21.3-47.5-47.5-47.5H348.3L348.3,547.2z"/>
		</g>
	</g>
	<g>
		<g>
			<path class="st6" d="M347.7,545.6L347.7,545.6c27.1,0,49.1,22,49.1,49.1l0,0c0,27.1-22,49.1-49.1,49.1l0,0
				c-27.1,0-49.1-22-49.1-49.1l0,0C298.6,567.6,320.5,545.6,347.7,545.6z"/>
		</g>
		<g>
			<path class="st1" d="M347.7,645.5c-28,0-50.7-22.8-50.7-50.7c0-28,22.8-50.7,50.7-50.7s50.7,22.8,50.7,50.7
				C398.4,622.7,375.6,645.5,347.7,645.5z M347.7,547.2c-26.2,0-47.5,21.3-47.5,47.5s21.3,47.5,47.5,47.5s47.5-21.3,47.5-47.5
				S373.9,547.2,347.7,547.2z"/>
		</g>
	</g>
	<g>
		<g>
			<polygon class="st5" points="335.1,572.2 335.1,617.2 373.1,594.7 			"/>
		</g>
		<g>
			<path class="st1" d="M333.5,620v-50.6l42.7,25.3L333.5,620z M336.6,575v39.4l33.3-19.7L336.6,575z"/>
		</g>
	</g>
	<g>
		<path class="st6" d="M437.9,604c-0.1-0.8-0.2-1.7-0.4-2.7c-11,1.6-13,2.2-14.3,2.8c-0.4-1.3-1.5-4.7-2.4-6.5c1.6-0.4,3-1.8,4.9-4
			c0.7-0.8,2.1-2.5,3.6-4.8c-4.4,0.5-5.8,0.9-6.7,1.3c-0.4-1.3-1.5-4.5-2.2-6.3c1.2-0.3,2.2-1.5,3.4-3.2c1.2-1.7,4.8-8.3,6.7-14.7
			l6.6,2.7c-2.1,4.9-4.9,10.1-7.8,14.3l4.1-0.3c1.6-2.6,3.1-5.3,4.3-8.1l6.1,3.8c-2.3,4.2-5,8.5-8.1,12.5l4.5-1.3
			c1.4,4.1,2.8,9.4,3.2,12.6L437.9,604z M428.8,606.8c-0.5,5.6-1.5,11.5-2.7,15.4c-1.2-0.6-3.9-1.5-5.3-1.9
			c1.5-3.6,2.2-9.2,2.6-14.4L428.8,606.8z M434.9,605.9c0.7,4.1,1.2,9.3,1.3,12.9l-5.3,0.9c0-3.5-0.5-8.8-1-12.9L434.9,605.9z
			 M436.3,595.8c-0.3-1.5-0.7-2.9-1.1-4.2c-1.3,1.6-2.7,3.3-4,4.8L436.3,595.8z M440.6,604.2c1,2.7,2,6.1,2.5,8.4l-4.9,1.6
			c-0.4-2.2-1.4-5.9-2.3-8.5L440.6,604.2z M457.5,599.7c-2,9.4-6.5,16.4-12.8,20.3c-0.9-1.5-2.7-3.8-4.1-5c3.8-2.1,7-6.1,8.9-10.7
			H444v-5.8h8.1l1.1-0.2L457.5,599.7z M477.3,600.1c-2.8,2.1-5.5,4.6-8,6.4c2.4,3.5,5.3,6.6,8.9,8.4c-1.5,1.3-3.7,3.9-4.7,5.8
			c-3.5-2.4-6.4-5.9-8.7-10.1v5.2c0,3.2-0.5,5-2.7,6.1c-2,1-4.9,1.2-8.7,1.2c-0.2-1.9-1.1-4.7-1.9-6.6c2.2,0.1,4.7,0.1,5.5,0.1
			s1-0.2,1-0.8v-20.9h-11.6v-22.3h8.6c0.8-2.2,1.5-4.6,1.9-6.4l8.3,1.5c-0.9,1.8-1.9,3.4-2.7,5h13v22.1h-10.6v1.9
			c0.5,1.7,1.2,3.3,1.8,4.9c2-1.9,4.1-4.1,5.4-5.9L477.3,600.1z M452.9,581h15.4v-3h-15.4V581z M452.9,589.3h15.4v-3.2h-15.4V589.3z
			"/>
		<path class="st6" d="M537.7,612.6v7.3h-55.2v-7.3h21.7v-45.7h7.8v17.4h21.4v7.3H512v21L537.7,612.6L537.7,612.6z"/>
		<path class="st6" d="M598.5,614.6v6.5H543v-6.5h7.9v-34.7h14.2c0.2-1,0.4-2,0.5-3.1h-21.1v-6.4h21.9c0.1-1.6,0.2-3.1,0.3-4.5
			l8.1,0.8c-0.2,1.2-0.4,2.4-0.7,3.7h22.8v6.4h-24c-0.2,1.1-0.4,2.1-0.7,3.1h18.5v34.7H598.5z M557.9,585.9v3.2h25.5v-3.2H557.9z
			 M583.4,594.4h-25.5v3h25.5V594.4z M557.9,605.9h25.5v-3.2h-25.5V605.9z M557.9,614.6h25.5v-3.4h-25.5V614.6z"/>
		<path class="st6" d="M656.4,599.9v22.8h-6.6v-2.1h-19.4v2.4h-6.3v-21.8l-0.4,0.2c-0.5-0.9-1.4-2-2.2-3.1c-1.6,0.6-3.3,1.2-4.9,1.8
			v15.2c0,3.3-0.6,5.2-2.4,6.3c-1.8,1.2-4.4,1.4-8.4,1.3c-0.2-1.8-1-4.7-1.8-6.7c2.2,0.1,4.2,0.1,5,0.1c0.7,0,1-0.2,1-1v-12.9
			l-6.1,2.1l-1.3-7c2.1-0.6,4.6-1.4,7.4-2.2v-10.9h-6.4v-6.8h6.4v-11.4h6.6v11.4h5.5v6.7h-5.5v8.7l4.4-1.5l0.7,3.6
			c4-1.8,7.8-4.6,10.4-7.6h-9.9V582h6.2c-0.6-1.8-1.6-4.4-2.5-6.4l4.7-1.4c-2.1,0.1-4.3,0.1-6.3,0.2c-0.2-1.5-0.9-3.8-1.5-5.2
			c10.9-0.4,23.7-1.3,31.5-2.9l3.7,5.3c-4.2,0.7-9.2,1.3-14.5,1.8v8.6h2.2c1.2-2.7,2.6-6.3,3.3-8.9l6.1,1.6
			c-1.1,2.5-2.2,5.1-3.3,7.3h7.2v5.5h-10c4.3,2.7,8.8,5.8,11.4,8.1L656.4,599.9z M636.8,590.8c-2.1,2.9-4.7,5.3-7.6,7.4h24.6
			c-2.9-2.4-6.8-5.2-10.4-7.6v6.6h-6.5L636.8,590.8L636.8,590.8z M636.8,574c-1.8,0.1-3.5,0.2-5.2,0.2c1,2.1,2.2,4.6,2.7,6.3
			l-4.6,1.6h7.2V574H636.8z M637.1,603.7h-6.7v3.3h6.7V603.7z M630.4,615.5h6.7v-3.6h-6.7V615.5z M649.8,603.7h-7v3.3h7V603.7z
			 M649.8,615.5v-3.6h-7v3.6H649.8z"/>
	</g>
	<g>
		<path class="st6" d="M689.3,574.4v6h-23.1v-6H689.3z M724.7,602.7h-10.6c2.9,4.5,6.5,8.2,10.8,11.2c0.6,0.5,1.2,0.9,1.7,1.2
			c-1.7,1.2-3.3,3-4.9,5.3c-0.1,0.2-0.2,0.3-0.2,0.4c-3.7-2.9-7.2-6.9-10.5-11.9v14.5h-7.4v-13.8c-3.3,5-7.1,8.9-11.2,11.5
			c-1.2-2-2.9-3.8-4.8-5.6v4.6H675v2.5h-6.2v-21.8h18.9V615c4.5-2.5,8.4-6,11.7-10.7c0.4-0.6,0.8-1.1,1.1-1.7H690v-6.7h13.6v-3.7
			h-11.8v-26h31.4v26H711v3.7h13.6v6.8H724.7L724.7,602.7z M687.7,583.3v5.8h-18.6v-5.8H687.7z M669.1,597.7V592h18.6v5.7H669.1z
			 M687.5,565.8v5.8h-18.2v-5.8H687.5z M681.4,614.3v-7.4h-6.3v7.4H681.4z M698.7,572.3v4.1h5.4v-4.1H698.7z M698.7,582.2v4.1h5.4
			v-4.1H698.7z M716.3,576.4v-4.1h-5.7v4.1H716.3z M716.3,586.3v-4.1h-5.7v4.1H716.3z"/>
	</g>
</g>
<path class="st5" d="M670.4,53H383.6c-23.8,0-43,19.3-43,43v0c0,23.8,19.3,43,43,43h286.9c23.8,0,43-19.3,43-43v0
	C713.4,72.2,694.2,53,670.4,53z"/>
<g>
	<path class="st6" d="M371.3,105.4h6.5V86.3h-5.5v-3.7c3-0.6,5.1-1.3,7-2.5h4.4v25.3h5.7v4.9h-18.2V105.4z"/>
	<path class="st6" d="M395.4,105.4h6.5V86.3h-5.5v-3.7c3-0.6,5.1-1.3,7-2.5h4.4v25.3h5.7v4.9h-18.2V105.4z"/>
	<path class="st6" d="M426.7,77.5h4l-10.1,40.3h-4L426.7,77.5z"/>
	<path class="st6" d="M432.9,106.7l2.8-3.8c1.7,1.7,3.8,3.1,6.6,3.1c3.1,0,5.3-2,5.3-5.5c0-3.5-2-5.5-5.1-5.5
		c-1.8,0-2.8,0.4-4.5,1.6l-2.7-1.8l0.8-14.6h16.2v5h-11l-0.6,6.4c1.2-0.6,2.2-0.9,3.6-0.9c5.1,0,9.3,3,9.3,9.6
		c0,6.7-5,10.6-10.6,10.6C438.4,110.9,435.2,109,432.9,106.7z"/>
	<path class="st6" d="M495,105.2h-14v8.7h-5v-8.7h-18.4v-4.7h6.4V89.8H476v-4.9h-8.7c-1.7,2.9-3.6,5.5-5.5,7.4
		c-0.9-0.8-3-2.4-4.2-3.1c3.7-3.1,6.8-8.3,8.6-13.6l4.9,1.3c-0.4,1.1-0.8,2.2-1.3,3.3h23.1v4.7H481v4.9h10.8v4.5H481v6.2h14V105.2z
		 M476,100.5v-6.2h-7.1v6.2H476z"/>
	<path class="st6" d="M522.3,96.9c3.5,4.4,8.9,8.4,14.2,10.6c-1.2,1-2.8,3-3.7,4.3c-4.7-2.5-9.5-6.7-13.1-11.4v13.4h-5.2v-13.1
		c-3.6,4.7-8.4,8.8-13.1,11.3c-0.8-1.3-2.4-3.3-3.6-4.3c5.3-2.3,10.7-6.5,14.3-10.9h-10.9v-4.8h13.3v-5.3h-15.1v-4.9h15.1v-6.2h5.2
		v6.2h15.5v4.9h-15.5v5.3h13.6v4.8H522.3z"/>
	<path class="st6" d="M575.2,97.4c-1.1,3.8-2.8,6.9-5,9.4c2,1.3,4.4,2.2,7,2.9c-1,0.9-2.2,2.6-2.9,3.8c-2.8-0.8-5.3-2-7.3-3.6
		c-2.2,1.7-4.5,2.9-7.1,3.9c-0.5-1.1-1.6-2.6-2.4-3.6v3.6h-4.5v-3.5c-4.7,0.5-9.5,1-13.1,1.4l-0.4-4.2c1.1-0.1,2.2-0.2,3.5-0.3V94.9
		h-3.2v-3.8H576v3.8h-18.6v15c2.2-0.7,4.3-1.8,6.2-3.1c-1.6-1.8-2.9-3.9-3.9-6.2l1.5-0.4h-2.4v-3.7h12.7l0.8-0.2L575.2,97.4z
		 M549.1,89.8h-4.7V77h26.8v12.8h-4.9v-9.4h-17.3V89.8z M547.2,94.9v1.7h5.6v-1.7H547.2z M547.2,101.6h5.6v-1.6h-5.6V101.6z
		 M547.2,106.9c1.8-0.2,3.8-0.3,5.6-0.5v-1.4h-5.6V106.9z M564.9,84.7h-14.5v-2.8h14.5V84.7z M550.5,89v-2.8h14.4V89H550.5z
		 M563.9,100.2c0.7,1.4,1.7,2.7,2.8,3.8c1.1-1.1,2-2.4,2.7-3.8H563.9z"/>
	<path class="st6" d="M591,101.4c-0.1-0.6-0.2-1.3-0.4-2.1c-7.3,1.2-8.6,1.6-9.5,2c-0.2-0.9-1-3.1-1.6-4.2c1.1-0.3,2-1.2,3.3-2.7
		c0.5-0.6,1.4-1.7,2.5-3.3c-3.1,0.4-4,0.6-4.5,0.9c-0.2-0.9-0.9-2.9-1.5-4.1c0.9-0.2,1.6-1,2.4-2.2c0.9-1.1,3.5-5.6,4.9-10l4.3,1.8
		c-1.6,3.4-3.6,7.1-5.7,10l2.7-0.2c1.1-1.8,2.1-3.7,3-5.5l4,2.5c-1.6,2.8-3.5,5.7-5.5,8.4l3-0.8c0.9,2.8,2,6.4,2.3,8.6L591,101.4z
		 M585,103.2c-0.3,3.6-0.9,7.5-1.8,10c-0.8-0.5-2.7-1.1-3.7-1.3c1-2.4,1.4-6,1.7-9.3L585,103.2z M589.3,102.4c0.5,2.8,1,6.4,1.1,8.8
		l-3.5,0.7c-0.1-2.4-0.5-6.1-0.9-8.9L589.3,102.4z M589.8,95.8c-0.2-1-0.5-2-0.8-2.8c-0.9,1.1-1.8,2.2-2.7,3.3L589.8,95.8z
		 M593.4,101.3c0.9,2.4,2,5.3,2.4,7.3l-3.4,1.3c-0.4-2-1.4-5.1-2.3-7.5L593.4,101.3z M616,81.2c-1.6,3.9-3.8,7.3-6.6,10.2
		c2.7,2,5.7,3.7,8.9,4.7c-1,1-2.4,2.7-3.1,4c-3.3-1.3-6.4-3.3-9.1-5.7c-2.8,2.4-6,4.2-9.2,5.5c-0.5-1.1-2-3-2.9-3.8
		c3.2-1.1,6.2-2.8,8.9-4.9c-1-1.2-2-2.4-2.9-3.8c-0.9,1.1-2,2.1-3.1,3.1c-0.7-1-2.2-2.4-3.3-3.1c4.1-3.4,6.7-7.9,8.1-11.7l4.7,0.8
		c-0.4,1.1-0.9,2-1.4,3.1h7.2l0.7-0.2L616,81.2z M599.5,104.3c5.3,1.4,11.6,4.1,15.4,6.1l-2.8,3.8c-3.6-2.2-10.1-5-15.4-6.5
		L599.5,104.3z M603.9,97.4c2.9,1.1,6.4,3,8.4,4.4l-2.8,3.4c-1.9-1.6-5.4-3.6-8.4-4.7L603.9,97.4z M602.7,83.9
		c0.9,1.5,2.1,3,3.4,4.4c1.4-1.4,2.6-2.9,3.5-4.6h-6.9L602.7,83.9z"/>
	<path class="st6" d="M642.3,96.2c-0.3,0.7-0.7,1.3-1.1,2h16.6c0,0,0,1.1-0.1,1.7c-0.6,8-1.2,11.2-2.3,12.4
		c-0.8,0.9-1.7,1.3-2.7,1.4c-0.9,0.1-2.5,0.2-4.1,0.1c-0.1-1.1-0.5-2.8-1.1-3.8c1.3,0.1,2.4,0.1,2.9,0.1c0.6,0,0.9-0.1,1.2-0.4
		c0.6-0.6,1.1-2.7,1.5-7.6h-1.6c-1.7,4.6-4.9,9.5-8.2,12.1c-0.8-0.9-2.2-2-3.4-2.7c3.1-2,5.8-5.6,7.6-9.4H645c-2.2,3.9-6,8-9.5,10.2
		c-0.8-0.9-2-2.2-3.2-2.9c3-1.5,6.2-4.4,8.3-7.4h-2.4c-1.5,1.6-3.1,2.9-4.7,4c-0.6-0.8-2.2-2.2-3.2-2.9c-2.9,1.5-5.9,2.9-8.4,4.2
		l-1.8-4.9c1.4-0.5,3.1-1.2,5-2V88.8H621v-4.6h4.1v-8h4.5v8h3.8v4.6h-3.8v9.6l3.3-1.4l0.9,3.5c1.5-1.3,2.7-2.7,3.8-4.3h-4.6v-4.1
		h25.7v4.1H642.3z M655.7,90.5h-19.3V76.8h19.3V90.5z M651.3,80.1h-10.5v2h10.5V80.1z M651.3,85.2h-10.5v2h10.5V85.2z"/>
	<path class="st6" d="M667.9,106.8c0.9-2.7,3.7-3.9,6.4-3c2.8,0.9,4.2,3.6,3.3,6.3c-0.9,2.7-3.7,3.9-6.4,3
		C668.5,112.1,667,109.5,667.9,106.8z M676.7,83.2l2.2-7l8.6,2.9l-2.6,6.9l-7,15.5l-4.8-1.6L676.7,83.2z"/>
</g>
</svg>
