<svg xmlns="http://www.w3.org/2000/svg" viewBox="0 0 110 110"><defs><style>.cls-1{fill:#afafaf;}.cls-2{fill:#e2ae46;}.cls-3,.cls-4{fill:#fff;stroke-linejoin:round;}.cls-3,.cls-4,.cls-7{stroke:#40220f;}.cls-3{stroke-width:2px;}.cls-5{fill:#40220f;}.cls-6,.cls-7{fill:#d98339;}.cls-7{stroke-miterlimit:10;}</style></defs><g id="BG"><circle class="cls-1" cx="54.62" cy="55" r="54"/><circle class="cls-2" cx="54.62" cy="55" r="49.53"/><rect class="cls-3" x="20.39" y="27.08" width="68.46" height="53.04"/><rect class="cls-4" x="25.52" y="31.82" width="58.19" height="27.8"/><rect class="cls-5" x="25.52" y="68.7" width="58.19" height="4.1"/><rect class="cls-6" x="30.2" y="65.77" width="5.27" height="9.95"/><polygon class="cls-6" points="50.98 38.42 50.98 51.56 60.2 44.99 50.98 38.42"/><polyline class="cls-7" points="74.25 92.41 74.25 84.51 55.74 84.51 55.74 92.41"/><path class="cls-4" d="M57.12,84.51l-5.63-6.66s-1.25-2.34,1-2.78a3.11,3.11,0,0,1,3.23,1l1.38,1.32s-.73-13.25,0-16.91,3.59-2.63,3.59-2.63A3.17,3.17,0,0,1,62.54,61c-.15,2.34,0,6.43,0,6.43s3.79.59,4.74,2.49a4.15,4.15,0,0,1,3.81,1.22,5.11,5.11,0,0,1,3.44,2.22,3,3,0,0,1,1.68,2.93c-.22,2.05-2.85,8.27-2.85,8.27Z"/></g></svg>