<?xml version="1.0" encoding="utf-8"?>
<!-- Generator: Adobe Illustrator 25.2.3, SVG Export Plug-In . SVG Version: 6.00 Build 0)  -->
<svg version="1.1" id="圖層_1" xmlns="http://www.w3.org/2000/svg" xmlns:xlink="http://www.w3.org/1999/xlink" x="0px" y="0px"
	 viewBox="0 0 345 110.6" style="enable-background:new 0 0 345 110.6;" xml:space="preserve">
<style type="text/css">
	.st0{fill:#C9C9CA;}
	.st1{fill:#FFFFFF;}
	.st2{fill:none;stroke:#C9C9CA;stroke-miterlimit:10;}
	.st3{fill:#606060;}
</style>
<path class="st0" d="M24.4,19.8h294.9c10.7,0,19.4,8.7,19.4,19.4v45c0,10.7-8.7,19.4-19.4,19.4H24.4c-10.7,0-19.4-8.7-19.4-19.4v-45
	C4.9,28.5,13.6,19.8,24.4,19.8z"/>
<path class="st1" d="M28.9,7.2h291c11,0,19.9,8.9,19.9,19.9v46.1c0,11-8.9,19.9-19.9,19.9h-291C17.9,93.1,9,84.2,9,73.2V27.1
	C9,16.2,17.9,7.2,28.9,7.2z"/>
<path class="st2" d="M28.9,7.2h291c11,0,19.9,8.9,19.9,19.9v46.1c0,11-8.9,19.9-19.9,19.9h-291C17.9,93.1,9,84.2,9,73.2V27.1
	C9,16.2,17.9,7.2,28.9,7.2z"/>
<g>
	<path class="st3" d="M138.7,32.4c-0.4,2.2-1,4.6-1.8,6.5c0.4,0.2,0.8,0.6,1.4,1c1.3,0.8,2.9,1,4.9,1c1.6,0,4.3-0.1,6.1-0.4
		c-0.2,0.7-0.6,2-0.7,2.7c-1.3,0.1-3.8,0.2-5.4,0.2c-2.3,0-3.8-0.4-5.3-1.3c-0.9-0.6-1.6-1.3-2.1-1.3c-0.5,0-1.4,1.5-2,2.9l-1.7-2.5
		c0.9-1,1.7-1.9,2.6-2.3c0.6-1.3,1-3,1.4-4.6h-1.9v0c0,1.5-0.3,2.5-1,3.1c-0.3,0.3-0.8,0.4-1.3,0.5c-0.4,0.1-1,0.1-1.5,0
		c0-0.6-0.2-1.5-0.6-2.1c0.4,0,0.8,0,1,0c0.2,0,0.5,0,0.7-0.2c0.3-0.2,0.4-0.8,0.4-1.6c0-1.2-0.3-2.8-1.7-4.6c0.5-1.5,0.9-3.4,1.3-5
		h-2v19h-2.3V22h5.1l0.3-0.1l1.6,0.9c-0.6,2-1.4,4.5-2,6.4c1.2,1.6,1.6,3.1,1.7,4.3c0.4-1.3,0.9-3,1.3-4.6h-1.7v-2.3h4
		c0.7-0.6,1.4-1.4,1.9-2.2h-1.6v-1.8h2.5c0.2-0.5,0.4-1.1,0.6-1.7l2.3,0.4c-0.1,0.4-0.2,0.8-0.4,1.2h6v1.8h-6.8
		c-0.2,0.4-0.4,0.7-0.6,1h6.6v1.6h-2.6v1.1h3.1v1.6h-8.9v-1.6h3.3v-1.1h-1.8v-1.2c-0.8,1.3-1.9,2.4-3.1,3.3
		c-0.1-0.2-0.3-0.6-0.6-0.9c-0.3,1.3-0.7,2.7-1.1,3.9h0.7l0.4-0.1L138.7,32.4z M135.2,25.8c-0.2-1.1-0.7-2.7-1-4l2.2-0.5
		c0.3,1.2,0.8,2.8,1.1,3.9L135.2,25.8z M148.2,38.1c0,1-0.2,1.5-0.9,1.8c-0.7,0.3-1.6,0.3-3,0.3c-0.1-0.6-0.4-1.3-0.7-1.8
		c0.7,0,1.5,0,1.7,0c0.2,0,0.3-0.1,0.3-0.3v-1.2c-1.4,0.4-2.6,0.7-3.8,1l-0.5-1.5c-0.1,1.3-0.4,2.7-1,3.7c-0.4-0.4-1.5-1.1-2-1.3
		c0.7-1.4,0.8-3.2,0.8-4.7v-3.4h9V38.1z M145.7,35.2v-2.9h-4.2v1.8c0,0.5,0,1.1,0,1.7c0.8-0.1,1.8-0.2,2.9-0.4
		c-0.7-0.5-1.7-1.2-2.6-1.6l1-1.3c1,0.5,2.2,1,2.9,1.5l-0.9,1.4L145.7,35.2z"/>
	<path class="st3" d="M159,39h-4.9v2.1h-2.7V22.5h7.6V39z M154.1,25.1v4.3h2.2v-4.3H154.1z M156.3,36.4v-4.6h-2.2v4.6H156.3z
		 M167.7,26.1v2.3h4.8v2.5h-1.8v1.9h2.3v2.5h-2.3v5.3c0,1.4-0.3,2.1-1.2,2.5c-0.9,0.4-2.3,0.5-4,0.5c-0.1-0.8-0.5-1.9-0.9-2.7
		c1.2,0,2.5,0,2.9,0c0.4,0,0.5-0.1,0.5-0.4v-5.2h-8.5v-2.5h8.5v-1.9h-7.7v-2.5h4.7v-2.3h-5.4v-2.5h5.4V21h2.8v2.6h5.4v2.5H167.7z
		 M162.8,35.7c1,1.2,2.3,2.8,2.9,3.9l-2.5,1.5c-0.6-1-1.8-2.8-2.8-4.1L162.8,35.7z"/>
	<path class="st3" d="M197,25c-0.9,0.8-2,1.6-2.9,2.2c1.1,0.6,2.2,1,3.5,1.4c-0.6,0.6-1.3,1.6-1.7,2.3c-1-0.3-1.9-0.7-2.8-1.2v2.1
		c0,0.6,0,0.8,0.4,0.8h1.2c0.3,0,0.9,0,1.2-0.1c0,0.6,0.1,1.4,0.2,2c-0.3,0.1-0.9,0.1-1.4,0.1h-1.5c-2,0-2.4-0.8-2.4-2.8v-1.4h-2.2
		c-0.1,1.7-0.7,3.5-2.7,4.8c-0.3-0.4-1-1.1-1.5-1.5v0.7h-4.8c-0.1,0.6-0.2,1.1-0.2,1.7h5c0,0,0,0.7,0,1c-0.3,3.3-0.6,4.8-1.2,5.5
		c-0.5,0.6-1.1,0.8-1.9,0.8c-0.7,0.1-1.9,0.1-3.2,0c0-0.8-0.4-1.7-0.8-2.4c1.2,0.1,2.4,0.1,2.9,0.1c0.4,0,0.7,0,0.9-0.2
		c0.3-0.3,0.5-1,0.7-2.7h-5.1c0.3-1.6,0.7-4,0.9-5.9h4.3v-1.7h-3.5v-0.4c-0.7,0.4-1.5,0.7-2.2,0.9c-0.3-0.6-1-1.6-1.5-2.1
		c1.4-0.4,2.8-1.1,4.1-1.9c-0.7-0.5-1.5-1-2.3-1.5l1.6-1.5c0.8,0.4,1.8,1,2.5,1.5c0.5-0.5,1-1,1.4-1.5h-4.8v-2.3h6.3l0.5-0.1
		l1.8,0.9c-1,2.4-2.6,4.3-4.6,5.7h3.2v4.8c1.5-1,1.7-2.2,1.7-3.2v-1.7h4.6c-2.1-1.7-3.7-3.8-4.9-6.4l2.3-0.7
		c0.4,0.8,0.8,1.6,1.4,2.3c0.8-0.7,1.7-1.5,2.3-2.2l2.1,1.5c-1,0.8-2,1.7-3,2.3c0.4,0.4,0.8,0.8,1.3,1.1c0.9-0.7,2-1.7,2.7-2.5
		L197,25z M195.3,35.7c-0.6,1.8-1.5,3.2-2.7,4.3c1.1,0.6,2.1,1.2,2.8,1.7l-1.5,1.9c-0.8-0.6-2-1.3-3.3-2.1c-1.5,0.9-3.4,1.6-5.4,2.1
		c-0.2-0.6-0.8-1.5-1.2-2.1c1.6-0.3,3.1-0.7,4.3-1.4c-1.2-0.7-2.3-1.3-3.4-1.9l1-1.2h-0.6v-1.9h7.9l0.4-0.1L195.3,35.7z M187.2,37.2
		c1,0.5,2.1,1.1,3.2,1.7c0.6-0.5,1.1-1.1,1.5-1.7H187.2z"/>
	<path class="st3" d="M203.1,31v12.7h-2.9V21.9h9.2v9H203.1z M203.1,24.2v1.3h3.7v-1.3H203.1z M206.8,28.8v-1.4h-3.7v1.4H206.8z
		 M208.3,40.2v1.4h-2.7v-9h9.4v7.6H208.3z M208.3,35v2.9h4V35H208.3z M220.7,40.2c0,1.6-0.3,2.4-1.4,2.9c-1,0.5-2.5,0.6-4.7,0.6
		c-0.1-0.8-0.6-2.2-1-3c1.4,0.1,3.1,0.1,3.5,0c0.5,0,0.6-0.1,0.6-0.6V31h-6.6v-9h9.5V40.2z M213.9,24.1v1.3h3.8v-1.3H213.9z
		 M217.7,28.8v-1.4h-3.8v1.4H217.7z"/>
	<path class="st3" d="M148.8,72.1V75h-22v-2.9h11.9c1.2-3,2.5-7.4,3.1-10.8l3.3,0.6c-0.9,3.5-2.2,7.3-3.3,10.1H148.8z M147.8,60.5
		h-19.9v-2.9h8.8c-0.2-1.1-0.7-2.7-1.2-3.9l2.9-0.7c0.5,1.2,1,2.8,1.3,3.8l-2.6,0.8h10.6V60.5z M132.9,71.5c-0.3-2.6-1.2-6.6-2-9.6
		l2.9-0.7c0.9,3.1,1.8,6.9,2.2,9.5L132.9,71.5z"/>
	<path class="st3" d="M159.7,67.1c1.2,2,2.7,4.6,3.3,6.3l-2.7,1.4c-0.2-0.6-0.5-1.3-0.8-2.1c-5.7,1.8-6.7,2.2-7.3,2.6
		c-0.2-0.8-0.7-2.2-1.1-2.9c0.5-0.3,1.1-0.8,1.1-1.7V54.5h10.2v12h-7.2v4.8l3.2-0.9c-0.4-0.7-0.8-1.4-1.1-2L159.7,67.1z M155.1,57.1
		v2.1h4.4v-2.1H155.1z M159.4,63.9v-2.2h-4.4v2.2H159.4z M172.3,68.6c0,1.3-0.2,2.1-1,2.5c-0.8,0.5-1.9,0.5-3.4,0.5
		c-0.1-0.8-0.4-2-0.8-2.7c0.9,0,1.8,0,2,0c0.3,0,0.4-0.1,0.4-0.4V57.3h-2.9v18.6h-2.9V54.7h8.7V68.6z"/>
	<path class="st3" d="M197.5,71.8h-4.1v4h-2.7v-4h-4.5v-2.5h4.5v-2.2h-2c-0.3,0.7-0.6,1.3-1,1.9c-0.4-0.3-1.3-0.8-1.9-1v5.1
		c0,1.1-0.2,1.9-0.9,2.3c-0.8,0.4-1.7,0.5-3.2,0.5c-0.1-0.7-0.5-1.8-0.8-2.4c1,0,1.9,0,2.2,0c0.3,0,0.4-0.1,0.4-0.4v-3.5h-4.8
		c-0.2,2.3-0.8,4.6-1.9,6.4c-0.4-0.4-1.5-1-2-1.3c1.6-2.5,1.7-6.1,1.7-8.8v-3.6c-0.5-0.5-1.4-1.2-1.9-1.5c1.6-1.8,2.9-4.6,3.6-7.4
		l2.5,0.5c-0.1,0.6-0.3,1.2-0.5,1.7h2.2l0.4-0.1l1.6,1c-0.3,0.9-0.8,2.1-1.3,3h2.7V61c2-0.9,2.7-2.3,3.1-4.1h-2.7v-2.3h10.7
		c0,0,0,0.6,0,0.9c-0.1,3.8-0.3,5.5-0.8,6.1c-0.4,0.5-0.9,0.7-1.5,0.8c-0.5,0.1-1.5,0.1-2.4,0.1c0-0.7-0.3-1.7-0.7-2.3
		c0.8,0.1,1.4,0.1,1.7,0.1c0.3,0,0.5,0,0.7-0.3c0.2-0.3,0.3-1.1,0.4-3.1h-2.8c-0.4,2.5-1.3,4.5-3.8,5.9l2.2,0.4
		c-0.1,0.5-0.2,1-0.3,1.5h1.2v-2.2h2.7v2.2h3.6v2.4h-3.6v2.2h4.1V71.8z M179.4,57.7c-0.3,0.6-0.5,1.2-0.8,1.8h2.1
		c0.2-0.5,0.5-1.2,0.7-1.8H179.4z M178.8,65.9c0,0.5,0,1,0,1.6h1.4v-2h-1.4V65.9z M178.8,63.4h1.4v-1.8h-1.4V63.4z M182.1,63.4h1.4
		v-1.8h-1.4V63.4z M183.5,67.5v-2h-1.4v2H183.5z M185.8,67.6c0.8-1.2,1.4-3,1.7-4.7c-0.2,0.1-0.3,0.2-0.5,0.2
		c-0.2-0.5-0.7-1.2-1.2-1.6V67.6z"/>
	<path class="st3" d="M199.3,74c0.9-1.3,1.7-3.2,2.2-4.9l2.6,1c-0.5,1.7-1.3,3.9-2.2,5.3L199.3,74z M199.6,66.2
		c2.7-0.1,6.8-0.5,10.7-0.8v1c0.9-0.5,1.8-1.1,2.6-1.8c-0.9-1.7-1.6-3.8-2.1-6.1h-10.9V56h10.5c-0.1-0.9-0.2-1.8-0.2-2.7h2.9
		c0,0.9,0.1,1.8,0.2,2.7h2.9c-0.6-0.4-1.3-0.8-1.9-1.1l1.6-1.7c1.2,0.5,2.7,1.3,3.4,2l-0.7,0.8h2.5v2.5h-7.4
		c0.3,1.4,0.8,2.7,1.3,3.8c0.7-1,1.3-2.1,1.7-3.2l2.7,0.7c-0.7,1.9-1.7,3.6-2.9,5.1c0.6,0.8,1.3,1.2,2,1.2c0.6,0,0.8-0.7,0.9-2.7
		c0.6,0.6,1.5,1.1,2.3,1.3c-0.4,3.4-1.3,4.1-3.3,4.1c-1.4,0-2.7-0.7-3.8-1.9c-0.7,0.6-1.4,1.1-2.1,1.6c-0.4-0.5-1.4-1.5-2-2l0,1.3h0
		c1.4,0.8,3,1.9,3.8,2.8l-1.9,1.8c-0.7-0.9-2.5-2.3-4-3.1l1.5-1.4c-3.6,0.3-7.3,0.6-10,0.9L199.6,66.2z M209.3,59.4v5.3h-8.3v-5.3
		H209.3z M206.6,61.3h-3v1.5h3V61.3z M213.1,73.1c1,0,1.2-0.3,1.3-2c0.6,0.4,1.7,0.8,2.5,1c-0.3,2.7-1.1,3.4-3.6,3.4h-4.5
		c-3.3,0-4.1-0.7-4.1-3.1v-2.8h2.8v2.8c0,0.7,0.2,0.8,1.5,0.8H213.1z M219,69.1c1,1.6,2.2,3.8,2.6,5.2l-2.9,0.9
		c-0.3-1.4-1.4-3.6-2.4-5.3L219,69.1z"/>
</g>
</svg>
