<?xml version="1.0" encoding="utf-8"?>
<!-- Generator: Adobe Illustrator 25.2.3, SVG Export Plug-In . SVG Version: 6.00 Build 0)  -->
<svg version="1.1" id="圖層_1" xmlns="http://www.w3.org/2000/svg" xmlns:xlink="http://www.w3.org/1999/xlink" x="0px" y="0px"
	 viewBox="0 0 345 109.8" style="enable-background:new 0 0 345 109.8;" xml:space="preserve">
<style type="text/css">
	.st0{fill:#C9C9CA;}
	.st1{fill:#FFFFFF;}
	.st2{fill:none;stroke:#C9C9CA;stroke-miterlimit:10;}
	.st3{fill:#606060;}
</style>
<path class="st0" d="M24.5,19.8h294.9c10.7,0,19.4,8.7,19.4,19.4v45c0,10.7-8.7,19.4-19.4,19.4H24.5c-10.7,0-19.4-8.7-19.4-19.4v-45
	C5.1,28.5,13.7,19.8,24.5,19.8z"/>
<path class="st1" d="M29,7.2h291c11,0,19.9,8.9,19.9,19.9v46.1c0,11-8.9,19.9-19.9,19.9H29c-11,0-19.9-8.9-19.9-19.9V27.1
	C9.1,16.2,18,7.2,29,7.2z"/>
<path class="st2" d="M29,7.2h291c11,0,19.9,8.9,19.9,19.9v46.1c0,11-8.9,19.9-19.9,19.9H29c-11,0-19.9-8.9-19.9-19.9V27.1
	C9.1,16.2,18,7.2,29,7.2z"/>
<g>
	<path class="st3" d="M100,42.1c0.9-1,1.4-2.7,1.6-4.3l1.9,0.6c-0.3,1.7-0.7,3.6-1.7,4.7L100,42.1z M100.5,34.9
		c1.2,0,2.7-0.1,4.3-0.1v-1.2h-3.7v-2.2h3.7v-1.1h-3.8v-9.1h10.2v9.1h-3.9v1.1h3.9v2.2h-3.9v1.1c1.4,0,2.9-0.1,4.3-0.2l0,2.2
		c-3.9,0.2-8.1,0.5-11,0.6L100.5,34.9z M103.2,28.4h2v-5.2h-2v1l1.1-0.3c0.4,1.1,0.7,2.5,0.8,3.5l-1.3,0.4c0-0.9-0.3-2.3-0.6-3.4
		V28.4z M105.5,37.8c0.3,1.4,0.5,3.1,0.5,4.2l-1.9,0.2c0-1.1-0.1-2.9-0.4-4.2L105.5,37.8z M107.9,37.5c0.5,1.3,0.9,2.9,1,4l-1.8,0.4
		c-0.1-1.1-0.5-2.8-1-4L107.9,37.5z M109.1,23.2H107v4c0.3-1,0.7-2.4,0.9-3.3l1.2,0.4V23.2z M109.1,28.4V25c-0.4,1-0.8,2.1-1.1,2.8
		l-1-0.4v1H109.1z M110.2,37c0.8,1.1,1.5,2.7,1.9,3.7l-1.8,0.7c-0.3-1.1-1-2.7-1.8-3.9L110.2,37z M118.1,28.1v3.7h3.9V43h-2.8v-0.8
		h-4.5v0.9h-2.6V31.9h3.2V20.5h2.8v5h4.7v2.7H118.1z M119.2,34.5h-4.5v5.1h4.5V34.5z"/>
	<path class="st3" d="M130.9,32.1c-0.3,2.1-0.9,4.2-1.7,5.9c0.4,0.3,0.9,0.7,1.7,1.1c1.7,1,3.9,1.1,6.7,1.1c2.8,0,7.1-0.2,9.8-0.6
		c-0.3,0.8-0.8,2.2-0.8,3c-2,0.1-6.3,0.3-9.1,0.3c-3.2,0-5.2-0.3-7-1.3c-1-0.6-1.9-1.4-2.4-1.4c-0.5,0-1.4,1.6-2,3l-1.9-2.7
		c0.6-0.7,1.2-1.3,1.7-1.8c0.9-1.3,1.6-3,2.1-4.7H125c0.5-1.4,1.1-3.4,1.7-5.2h-2.1v-2.6h5.6c-0.5,1.7-1.1,3.6-1.6,5.3h0.3l0.4-0.1
		L130.9,32.1z M127.3,25.5c-0.3-1.1-0.9-2.9-1.4-4.2l2.6-0.7c0.5,1.3,1.1,3,1.5,4.1L127.3,25.5z M138.2,26.4c-0.2,0.6-0.4,1.5-0.5,2
		c-4.8,0.7-5.6,0.9-6.1,1.2c-0.1-0.6-0.6-1.6-0.9-2.1c0.4-0.2,0.8-0.6,0.8-1.6v-4.6h6.8v4.6h-4.6V27L138.2,26.4z M146.6,36.2H142
		c1.5,0.7,3,1.6,3.9,2.3l-2.6,1.2c-0.9-0.7-2.4-1.8-3.9-2.5l1.4-0.9h-4.7l1.9,0.7c-1.2,1.1-3.2,2.2-4.8,2.9
		c-0.5-0.5-1.5-1.4-2.2-1.7c1.5-0.5,3-1.1,4.1-1.8h-4.3v-2.1h3.8v-1.5h-2.9v-2.1h2.9v-1.3h2.6v1.3h2.7v-1.3h2.7v1.3h3v2.1h-3v1.5
		h3.9V36.2z M133.8,23.1v1.1h2.2v-1.1H133.8z M137.3,34.1h2.7v-1.5h-2.7V34.1z M141.9,28.9c-2.2,0-2.7-0.8-2.7-2.9v-4.7h6.9v4.6
		h-4.6v0.1c0,0.7,0.1,0.9,0.6,0.9h2.5c0.5,0,1.3,0,1.6-0.1c0,0.6,0.1,1.4,0.2,1.9c-0.4,0.1-1.1,0.2-1.8,0.2H141.9z M141.4,23.1v1.1
		h2.2v-1.1H141.4z"/>
	<path class="st3" d="M170.9,38h-5.4v2.3c0,1.3-0.2,2-1.2,2.4c-1,0.4-2.3,0.4-4.2,0.4c-0.1-0.8-0.5-1.8-0.8-2.5c1.2,0,2.5,0,2.9,0
		c0.4,0,0.5-0.1,0.5-0.4V38h-6.8c1,0.7,2,1.6,2.6,2.2l-2.1,1.8c-0.7-0.9-2.3-2.3-3.6-3.2l1-0.8h-4.8v-2.3h13.8v-0.9
		c-4.8,0.1-9.3,0.2-12.7,0.2l-0.1-2.1c2.3,0,5.2,0,8.5,0v-0.9h-7v-7h7v-0.9h-8.9V22h8.9v-1.5h2.8V22h8.8v2.2h-8.8v0.9h7.3v7h-1.6
		c1.2,0.6,2.3,1.4,3.1,1.9l-1.8,1.5c-0.3-0.2-0.6-0.5-1-0.8l-1.8,0v1h5.4V38z M154.1,27.7h4.3v-0.9h-4.3V27.7z M158.4,30.3v-0.9
		h-4.3v0.9H158.4z M161.2,26.8v0.9h4.5v-0.9H161.2z M165.7,30.3v-0.9h-4.5v0.9H165.7z M161.2,32.9l3,0c-0.3-0.1-0.7-0.3-1-0.4
		l0.5-0.4h-2.5V32.9z"/>
	<path class="st3" d="M194.5,34.4c0,0,0,0.6,0,0.9c-0.2,4.5-0.4,6.2-1,6.9c-0.4,0.5-0.9,0.7-1.4,0.7c-0.5,0.1-1.3,0.1-2.2,0.1
		c0-0.3-0.1-0.6-0.2-0.9l-1,0.4c-0.1-0.2-0.2-0.4-0.3-0.6c-3.7,0.3-7.6,0.5-10.4,0.7l-0.2-1.9c1.5,0,3.4-0.1,5.5-0.2v-0.8h-4.1v-2
		c-0.3,0.2-0.7,0.4-1,0.6c-0.3-0.4-0.9-1-1.4-1.3c-0.4,2.2-0.9,4.3-1.9,6c-0.5-0.4-1.8-1.1-2.5-1.4c2-3.7,2.2-9.2,2.2-13.1v-7.2H194
		v4.8h-1.7l0.6,1.1c-1.2,0.5-2.8,0.8-3.9,1c1.5,0.2,3.1,0.5,4,0.8l-0.5,1.3h0.9v3.4h-10.1c-0.2,0.2-0.3,0.5-0.5,0.7H194.5z
		 M177.6,28.5c0,2.2-0.1,5.1-0.5,7.9c1.5-0.8,2.7-1.8,3.5-2.8h-2v-3.4h0.5l-0.4-1.4c1-0.2,2.4-0.4,3.9-0.7c-1-0.3-2.2-0.6-3.4-0.7
		l0.4-1.3c1.5,0.2,3.1,0.5,4.1,0.8l-0.4,1l0.9-0.2l0,1.4c-1.5,0.4-3.1,0.7-4.5,1h12.6c-1.1-0.3-2.7-0.7-4.2-0.8l0.4-1.2l0.5,0
		l-0.6-1.1c0.9-0.1,2.2-0.6,3.1-0.9h-14V28.5z M177.6,23.2v1.1h13.6v-1.1H177.6z M181.4,36c-0.2,0.2-0.5,0.5-0.8,0.7h2.7V36H181.4z
		 M182.7,31.4h-2v1.1h2V31.4z M183.4,38.6v-0.8h-2v0.8H183.4z M187.4,30h-2.6v-3.5h2.6V30z M186.9,31.4h-2v1.1h2V31.4z M189.2,39.7
		c0.4,0.4,0.7,0.9,0.9,1.3c0.2,0,0.4,0,0.5,0c0.2,0,0.4,0,0.6-0.3c0.3-0.3,0.5-1.5,0.6-4.8h-6v0.7h4.2v3H189.2z M187.8,37.8h-2v0.8
		h2V37.8z M187.4,40.3c-0.1-0.2-0.2-0.3-0.3-0.4l0.5-0.2h-1.7v0.7L187.4,40.3z M191.1,31.4h-2.1v1.1h2.1V31.4z"/>
	<path class="st3" d="M203.7,31.8c-0.4,2.2-1.1,4.5-1.9,6.3c0.4,0.2,0.8,0.6,1.5,1c1.6,1,3.9,1.1,6.7,1.1c2.8,0,7.1-0.2,9.8-0.6
		c-0.3,0.8-0.8,2.2-0.8,3c-2,0.1-6.3,0.3-9.1,0.3c-3.2,0-5.2-0.3-7-1.3c-1-0.6-1.9-1.4-2.4-1.4c-0.6,0-1.4,1.6-2,3l-1.9-2.7
		c0.8-1,1.7-1.8,2.5-2.3c0.6-1.2,1-2.7,1.4-4.2h-3c0.6-1.4,1.2-3.4,1.7-5.2h-2.2v-2.6h5.7c-0.5,1.7-1.1,3.6-1.7,5.3h1l0.4-0.1
		L203.7,31.8z M199.7,25.5c-0.3-1.1-0.9-2.9-1.3-4.2l2.5-0.7c0.4,1.3,1.1,2.9,1.4,4L199.7,25.5z M209.7,24.6h-6v-2.3h6v-1.7h2.8v1.7
		h6.3v2.3h-6.3v1.2h5.3V34h-5.3v1.1h6.6v2.3h-6.6v2.2h-2.8v-2.2h-6v-2.3h6V34h-5.1v-8.2h5.1V24.6z M207.2,28.9h2.4v-1.2h-2.4V28.9z
		 M209.7,32v-1.2h-2.4V32H209.7z M212.5,27.7v1.2h2.5v-1.2H212.5z M215,30.7h-2.5V32h2.5V30.7z"/>
	<path class="st3" d="M229.2,29.8c0.6,1.6,1.3,3.7,1.5,5l-2.2,0.8c0-0.3-0.1-0.7-0.2-1.1c-4.9,0.7-5.8,0.9-6.3,1.2
		c-0.1-0.5-0.6-1.8-0.9-2.5c0.6-0.1,1.1-0.7,1.9-1.5c0.3-0.3,0.9-1.1,1.6-2c-1.9,0.2-2.5,0.4-2.8,0.5c-0.1-0.5-0.6-1.7-0.8-2.4
		c0.5-0.1,0.9-0.6,1.4-1.3c0.5-0.7,2.1-3.4,3-5.9l2.5,1.1c-0.9,2-2.2,4.1-3.4,5.8l1.7-0.1c0.6-1,1.2-2,1.7-3l2.3,1.5
		c-1.4,2.4-3.2,4.9-5,7l2.5-0.3c-0.2-0.7-0.4-1.3-0.6-1.9L229.2,29.8z M224.3,36.7c-0.2,2.2-0.6,4.5-1.1,6c-0.5-0.3-1.6-0.6-2.2-0.8
		c0.6-1.4,0.8-3.6,1-5.6L224.3,36.7z M226.9,36.3c0.3,1.7,0.6,4,0.7,5.5l-2.2,0.4c0-1.5-0.3-3.8-0.6-5.5L226.9,36.3z M229.3,35.6
		c0.6,1.5,1.1,3.4,1.4,4.7l-2,0.7c-0.2-1.3-0.8-3.3-1.3-4.8L229.3,35.6z M238.3,26.1v2.8h4.6v2.6h-11.7v-2.6h4.2v-2.8h-4.9v-2.7h4.9
		v-3h3v3h5.2v2.7H238.3z M231.5,33.4h10.7V43h-2.8V42h-5.2v1h-2.7V33.4z M234.2,35.9v3.5h5.2v-3.5H234.2z"/>
	<path class="st3" d="M106.3,71.5v3.8h-2.4v-3.8h-3.7V69h3.7v-1.5h-3v-8.7h3v-1.3h-3.4v-2.5h3.4v-2.3h2.4v2.3h3.5v2.5h-3.5v1.3h3.2
		v8.7h-3.2V69h3.7v2.5H106.3z M102.9,62.2h1.3v-1.4h-1.3V62.2z M102.9,65.6h1.3v-1.4h-1.3V65.6z M107.4,60.8H106v1.4h1.4V60.8z
		 M107.4,64.1H106v1.4h1.4V64.1z M122.8,72.3v2.4h-13v-2.4h5.1v-3.6h-4v-2.4h11.2v2.4h-4.3v3.6H122.8z M112.3,65.9
		c-0.4-1.3-1.4-3.2-2.5-4.9c0.8-1.5,1.6-3.3,2.1-4.5l2.3,0.5c-0.6,1.3-1.3,2.8-2,4c0.9,1.4,1.8,3,2.2,4L112.3,65.9z M122.5,56.1
		h-12.1v-2.4h12.1V56.1z M118.1,57c-0.6,1.3-1.4,2.8-2.1,3.9c1,1.4,2,2.9,2.4,4l-2.2,0.9c-0.5-1.3-1.5-3.1-2.7-4.9
		c0.9-1.5,1.8-3.3,2.2-4.5L118.1,57z M120.4,65.9c-0.5-1.3-1.6-3.2-2.9-4.9c0.9-1.5,1.9-3.3,2.4-4.5l2.4,0.5
		c-0.7,1.4-1.5,2.8-2.2,3.9c1,1.3,2.1,3,2.6,4L120.4,65.9z"/>
	<path class="st3" d="M131.1,68.4c0.8,0.6,2.6,1.9,3,2.3l-1.5,1.9c-0.3-0.4-0.9-1.1-1.5-1.7v4.5h-2.6V71c-0.8,1.1-1.7,2.2-2.5,2.9
		c-0.4-0.6-1.2-1.5-1.7-1.9c1.4-0.8,2.9-2.4,3.9-4H125v-2.2h3.6v-1.7h2.6v1.7h3v2.2h-3V68.4z M134.9,64.3c-0.2-0.3-0.5-0.6-0.8-1
		c-6.6,0.5-7.5,0.5-8.2,0.7c-0.1-0.4-0.4-1.2-0.6-1.7c0.3,0,0.6-0.2,0.9-0.4c0.2-0.1,0.6-0.4,1-0.8h-2.4v-1.6h1.9v-6.2h9.4v1.6h-6.8
		v0.7h6.1v1.3h-6.1v0.7h6.1v1.3h-6.1v0.7h7.4v1.6h-2c0.7,0.7,1.6,1.6,2.1,2.2L134.9,64.3z M132.5,61.5l0.8-0.3h-3.5
		c-0.4,0.4-0.8,0.7-1.3,1.1l4.4-0.2L132.5,61.5z M139.1,64.6c-0.9,2.2-2.3,4.3-3.9,5.6c-0.4-0.4-1.3-1.2-1.9-1.6
		c1.5-1.1,2.7-2.8,3.3-4.6L139.1,64.6z M143.3,69.7c1,1.5,2.4,3.4,3.1,4.6l-2.2,1c-0.2-0.4-0.4-0.8-0.7-1.2
		c-6.4,0.5-7.4,0.6-8.1,0.9c-0.1-0.5-0.5-1.6-0.8-2.2c0.5-0.1,0.9-0.5,1.4-1c0.5-0.5,2.2-2.7,3.1-4.8l2.4,1.2
		c-0.8,1.4-1.9,2.8-3.1,4l3.7-0.2c-0.3-0.5-0.6-1-0.9-1.4L143.3,69.7z M146.5,60c-1.9,1.9-5,3-8.6,3.7c-0.3-0.6-0.8-1.4-1.4-1.9
		c3-0.4,6.1-1.3,7.6-2.7L146.5,60z M145.2,54c-1.8,1.3-4.5,2.3-6.7,3c-0.4-0.5-1-1.2-1.6-1.6c2-0.5,4.8-1.5,6.2-2.4L145.2,54z
		 M145.9,57c-1.8,1.5-4.6,2.6-7.3,3.2c-0.4-0.5-1-1.3-1.5-1.7c2.4-0.4,5.2-1.3,6.6-2.4L145.9,57z M143.1,63.6
		c0.8,1.8,2.4,3.5,4.1,4.5c-0.5,0.5-1.3,1.5-1.7,2.1c-1.5-1.1-3-2.7-4-4.4h-2.1v-2.2H143.1z"/>
	<path class="st3" d="M167,69.6h-3.8l2.4,0.5c-0.4,0.8-0.8,1.6-1.2,2.3h6.1v2.4h-21.3v-2.4h5.9c-0.2-0.7-0.6-1.5-1-2.2l1.9-0.6h-3.5
		v-6.3c-0.8,0.6-1.7,1-2.5,1.5c-0.4-0.6-1.2-1.6-1.8-2.1c1.4-0.6,2.9-1.5,4.1-2.6c-0.7-0.7-1.7-1.5-2.6-2l1.5-1.6
		c0.9,0.5,2,1.3,2.7,2c0.7-0.8,1.3-1.6,1.8-2.5h-5.8v-2.3h7.2l0.5-0.1l1.9,1c-0.6,1.7-1.5,3.3-2.6,4.7h5.8c-1.3-1.6-2.3-3.6-3.2-5.6
		l2.6-0.8c0.3,0.8,0.8,1.7,1.2,2.5c0.9-0.7,1.9-1.6,2.5-2.3l2.2,1.5c-1.1,0.9-2.3,1.8-3.4,2.6c0.3,0.4,0.7,0.8,1.1,1.2
		c1-0.8,2.1-1.8,2.8-2.6l2.1,1.5c-1,0.9-2.2,1.8-3.3,2.6c1.2,1,2.6,1.8,4.1,2.4c-0.7,0.6-1.5,1.7-2,2.4c-0.9-0.4-1.8-0.9-2.6-1.5
		V69.6z M155.8,60.6c-0.8,0.9-1.7,1.6-2.7,2.3h13.6c-0.9-0.7-1.7-1.4-2.5-2.2v0.8h-8.4V60.6z M163.9,65.2h-8.4v2.1h8.4V65.2z
		 M161.5,72.4c0.5-0.8,1-2,1.3-2.8h-5.9c0.5,0.8,0.9,1.7,1.1,2.4l-1.2,0.4H161.5z"/>
	<path class="st3" d="M185.9,54.1c0,4.6,0.7,13.4,9.6,18.6c-0.6,0.5-1.8,1.8-2.3,2.5c-5-3-7.6-7.6-8.9-11.9
		c-1.8,5.4-4.7,9.4-8.9,11.9c-0.5-0.6-1.9-1.8-2.6-2.3c5-2.5,7.9-7.2,9.2-13.6l1.5,0.3c-0.2-0.9-0.3-1.8-0.3-2.6h-5.5v-2.9H185.9z"
		/>
	<path class="st3" d="M206.2,59h-9.3v-2.3h4.2c-0.4-0.9-1-2.1-1.5-3l2.2-1.1c0.7,1,1.4,2.3,1.8,3.2l-1.6,0.9h4.3V59z M215.1,67.5
		c1.2,1.8,3,3.6,4.8,4.7c-0.6,0.5-1.5,1.5-2,2.2c-1.4-1.1-2.8-2.7-4-4.5v5.5h-2.8v-5.2c-1.2,1.8-2.7,3.3-4.2,4.4
		c-0.3-0.5-0.8-1.1-1.3-1.6V74h-5.2v1H198v-8.3h7.6v5.2c1.7-1.1,3.3-2.7,4.4-4.4h-4v-2.5h5.2v-1.4h-4.5v-9.8h11.9v9.8h-4.6v1.4h5.2
		v2.5H215.1z M205.4,62.3H198v-2.2h7.4V62.3z M198,63.4h7.4v2.2H198V63.4z M203.1,69h-2.7v2.7h2.7V69z M209.3,57.5h2v-1.6h-2V57.5z
		 M209.3,61.2h2v-1.5h-2V61.2z M215.9,55.9h-2.1v1.6h2.1V55.9z M215.9,59.7h-2.1v1.5h2.1V59.7z"/>
	<path class="st3" d="M228.7,68.8c-0.3-0.8-0.9-2-1.5-3.1v9.6h-2.7v-9c-0.7,2-1.5,3.9-2.4,5.2c-0.2-0.9-0.8-2.1-1.2-2.9
		c1.1-1.6,2.3-4.2,3-6.5h-2.7v-2.7h3.3v-2.9c-0.8,0.1-1.5,0.3-2.3,0.4c-0.1-0.7-0.5-1.6-0.8-2.2c2.5-0.4,5.2-1.2,7-2l1.5,2.4
		c-0.8,0.3-1.8,0.6-2.7,0.9v3.5h2.7v2.7h-2.7v0.4c0.6,0.7,2.6,3.2,3,3.8L228.7,68.8z M243.5,72.3v2.6h-14v-2.6h5.8v-2.2h-4.6v-2.5
		h4.6v-2c-1.3,0.1-2.6,0.2-3.8,0.2c-0.1-0.6-0.4-1.6-0.7-2.2c3.5-0.2,7.4-0.7,9.9-1.3l1.8,2.2c-1.3,0.3-2.8,0.6-4.3,0.8v2.3h4.3v2.5
		h-4.3v2.2H243.5z M242.4,62.1h-11.5v-8.3h11.5V62.1z M239.6,56.2h-6v3.5h6V56.2z"/>
</g>
</svg>
